<?xml version="1.0" encoding="UTF-8"?><svg id="Layer_2" xmlns="http://www.w3.org/2000/svg" xmlns:xlink="http://www.w3.org/1999/xlink" viewBox="0 0 101.69 103.34"><defs><style>.cls-1{fill:url(#New_Gradient_Swatch);}.cls-2{fill:url(#Main_Gradient);}.cls-3{fill:url(#linear-gradient);}</style><linearGradient id="Main_Gradient" x1="89.69" y1="84.07" x2="9.87" y2="17.09" gradientUnits="userSpaceOnUse"><stop offset=".13" stop-color="#4b008b"/><stop offset=".5" stop-color="#6102c4"/><stop offset=".58" stop-color="#5d01bc"/><stop offset=".71" stop-color="#5500a6"/><stop offset=".84" stop-color="#4b008b"/></linearGradient><linearGradient id="New_Gradient_Swatch" x1="49.56" y1="-38.84" x2="49.56" y2="60.28" gradientUnits="userSpaceOnUse"><stop offset=".39" stop-color="#6102c4"/><stop offset=".39" stop-color="#6201c6"/><stop offset=".47" stop-color="#7401df"/><stop offset=".56" stop-color="#8000f1"/><stop offset=".64" stop-color="#8700fb"/><stop offset=".75" stop-color="#8a00ff"/></linearGradient><linearGradient id="linear-gradient" x1="52.13" y1="134.13" x2="52.13" y2="35.35" gradientUnits="userSpaceOnUse"><stop offset=".3" stop-color="#6102c4"/><stop offset=".31" stop-color="#6201c6"/><stop offset=".39" stop-color="#7401df"/><stop offset=".48" stop-color="#8000f1"/><stop offset=".57" stop-color="#8700fb"/><stop offset=".68" stop-color="#8a00ff"/></linearGradient></defs><g id="Layer_1-2"><g><path class="cls-2" d="M50.78,23.74c-.08,4.95,1.19,11.44,3.82,13.12,11.34,7.25,23.33,6.91,36.47,13.26,8.07,3.89,10.62,9.17,10.62,12.99,0,14.75-51.64,30.94-51.64,19.39,0-4.68,1.64-13.03-4.54-16.57-11.95-6.84-22.32-7.49-32.92-12.32-6.66-3.03-12.6-6.79-12.6-13.95,0-9.24,17.56-16.89,30.07-18.89,6.16-.99,20.77-1.39,20.71,2.97Z"/><path class="cls-1" d="M0,40.23c19.44-19.19,65.87-19.54,95.56-5.16,1.94,.94,4.02-.82,3.48-2.9C95.01,16.6,74.15,0,52.62,0,28.62,0,0,19.12,0,40.23Z"/><path class="cls-3" d="M101.69,63.11c-19.44,19.19-65.87,19.54-95.55,5.16-1.94-.94-4.02,.82-3.48,2.9,4.02,15.57,24.88,32.17,46.41,32.17,24,0,52.62-19.12,52.62-40.23Z"/></g></g></svg>