<?xml version="1.0" encoding="UTF-8"?><svg id="Layer_2" xmlns="http://www.w3.org/2000/svg" xmlns:xlink="http://www.w3.org/1999/xlink" viewBox="0 0 160.05 173.84"><defs><style>.cls-1{fill:url(#linear-gradient-2);}.cls-2{fill:url(#Main_Gradient);}.cls-3{fill:url(#linear-gradient);}</style><linearGradient id="Main_Gradient" x1="117.53" y1="84.07" x2="37.71" y2="17.09" gradientUnits="userSpaceOnUse"><stop offset=".13" stop-color="#4b008b"/><stop offset=".5" stop-color="#6102c4"/><stop offset=".58" stop-color="#5d01bc"/><stop offset=".71" stop-color="#5500a6"/><stop offset=".84" stop-color="#4b008b"/></linearGradient><linearGradient id="linear-gradient" x1="77.39" y1="-38.84" x2="77.39" y2="60.28" gradientUnits="userSpaceOnUse"><stop offset=".39" stop-color="#6102c4"/><stop offset=".39" stop-color="#6201c6"/><stop offset=".47" stop-color="#7401df"/><stop offset=".56" stop-color="#8000f1"/><stop offset=".64" stop-color="#8700fb"/><stop offset=".75" stop-color="#8a00ff"/></linearGradient><linearGradient id="linear-gradient-2" x1="79.97" y1="134.13" x2="79.97" y2="35.35" gradientUnits="userSpaceOnUse"><stop offset=".3" stop-color="#6102c4"/><stop offset=".31" stop-color="#6201c6"/><stop offset=".39" stop-color="#7401df"/><stop offset=".48" stop-color="#8000f1"/><stop offset=".57" stop-color="#8700fb"/><stop offset=".68" stop-color="#8a00ff"/></linearGradient></defs><g id="Layer_1-2"><g><g><path d="M25.74,129.86c-2.52-2.28-4.92-2.88-6.72-2.88-1.14,0-2.76,.18-3.78,1.02-.84,.66-1.38,1.8-1.38,2.88,0,1.2,.54,2.04,1.38,2.7,.84,.72,1.92,1.2,3.9,2.1l2.34,1.08c1.92,.9,3.72,1.92,5.28,3.84,1.44,1.8,2.04,3.66,2.04,6.24,0,4.2-1.68,7.92-4.02,10.26-3.24,3.18-7.38,3.9-11.46,3.9-2.94,0-5.28-.36-7.98-1.8-1.98-1.08-3.9-2.7-5.34-4.26l5.16-6.6c.84,1.14,2.16,2.4,3.36,3.18,1.26,.78,2.94,1.32,4.68,1.32,1.38,0,3.3-.42,4.44-1.26,1.08-.84,1.68-2.22,1.68-3.72s-.66-2.28-1.14-2.76c-.3-.3-1.08-.96-3.18-1.8l-2.34-.96c-.66-.24-3.72-1.56-5.64-3.54s-2.64-4.26-2.64-6.78c0-4.14,1.68-7.14,3.6-9.06,3.24-3.18,7.38-3.78,10.8-3.78s7.38,.66,11.58,3.96l-4.62,6.72Z"/><path d="M39.93,173.84h-8.64l4.98-40.5h8.64l-.48,3.12c1.08-1.32,2.34-2.22,3.36-2.76,1.74-.9,3.48-1.26,5.52-1.26,4.14,0,6.66,1.56,8.1,2.94,2.16,2.16,3.54,5.88,3.54,10.02,0,5.1-1.86,9.36-4.5,12-2.64,2.64-5.58,3.6-9.06,3.6-1.92,0-3.96-.18-5.82-1.14-1.14-.6-2.4-1.56-3.48-3.06l-2.16,17.04Zm4.98-31.92c-1.56,1.56-2.16,3.36-2.16,5.4,0,1.26,.3,3,1.62,4.38,1.02,1.08,2.64,1.86,4.5,1.86,1.74,0,3.54-.66,4.8-1.86,1.44-1.32,2.4-3.78,2.4-5.76,0-1.68-.78-3.54-1.86-4.5-1.08-1.02-2.76-1.56-4.26-1.56-2.1,0-3.72,.72-5.04,2.04Z"/><path d="M92.25,133.34h8.64l-3.3,26.76h-8.64l.66-3.06c-.96,1.14-2.34,2.34-3.78,3-1.86,.84-3.96,.96-4.98,.96-3.3,0-5.94-.84-8.28-3.3-1.98-2.1-3.6-5.22-3.6-9.84,0-4.92,1.74-8.88,4.32-11.52,2.76-2.82,6.12-3.9,9.84-3.9,1.56,0,3.48,.18,5.22,1.02,1.02,.48,2.46,1.44,3.66,3.12l.24-3.24Zm-12.36,8.52c-1.2,1.2-2.04,3.12-2.04,5.34s.9,3.66,1.74,4.56c1.26,1.32,2.82,1.8,4.56,1.8,2.46,0,4.02-.96,4.92-1.8,1.56-1.5,2.28-3.78,2.28-5.76s-.72-3.6-1.86-4.62c-.78-.72-2.16-1.5-4.5-1.5-2.16,0-3.78,.66-5.1,1.98Z"/><path d="M107.91,133.34h8.64l-.78,3.96c.84-1.68,2.1-2.82,3.36-3.54,1.68-.9,3.54-1.08,4.5-1.08,1.44,0,2.64,.18,3.54,.42l-1.68,8.04c-.84-.42-2.1-.9-3.78-.9-2.16,0-3.6,.84-4.44,1.62-1.5,1.44-2.22,3.96-2.58,6.84l-1.44,11.4h-8.64l3.3-26.76Z"/><path d="M141.99,116.36l-3.3,26.82,9.84-9.84h11.52l-13.14,12.3,12.12,14.46h-11.1l-9.84-11.76-1.56,11.76h-8.64l5.46-43.74h8.64Z"/></g><g><path class="cls-2" d="M78.61,23.74c-.08,4.95,1.19,11.44,3.82,13.12,11.34,7.25,23.33,6.91,36.47,13.26,8.07,3.89,10.62,9.17,10.62,12.99,0,14.75-51.64,30.94-51.64,19.39,0-4.68,1.64-13.03-4.54-16.57-11.95-6.84-22.32-7.49-32.92-12.32-6.66-3.03-12.6-6.79-12.6-13.95,0-9.24,17.56-16.89,30.07-18.89,6.16-.99,20.77-1.39,20.71,2.97Z"/><path class="cls-3" d="M27.83,40.23c19.44-19.19,65.87-19.54,95.56-5.16,1.94,.94,4.02-.82,3.48-2.9C122.85,16.6,101.99,0,80.46,0,56.45,0,27.83,19.12,27.83,40.23Z"/><path class="cls-1" d="M129.52,63.11c-19.44,19.19-65.87,19.54-95.55,5.16-1.94-.94-4.02,.82-3.48,2.9,4.02,15.57,24.88,32.17,46.41,32.17,24,0,52.62-19.12,52.62-40.23Z"/></g></g></g></svg>