<?xml version="1.0" encoding="UTF-8"?><svg id="Layer_2" xmlns="http://www.w3.org/2000/svg" viewBox="0 0 160.05 57.48"><g id="Layer_1-2"><g><path d="M25.74,13.5c-2.52-2.28-4.92-2.88-6.72-2.88-1.14,0-2.76,.18-3.78,1.02-.84,.66-1.38,1.8-1.38,2.88,0,1.2,.54,2.04,1.38,2.7,.84,.72,1.92,1.2,3.9,2.1l2.34,1.08c1.92,.9,3.72,1.92,5.28,3.84,1.44,1.8,2.04,3.66,2.04,6.24,0,4.2-1.68,7.92-4.02,10.26-3.24,3.18-7.38,3.9-11.46,3.9-2.94,0-5.28-.36-7.98-1.8-1.98-1.08-3.9-2.7-5.34-4.26l5.16-6.6c.84,1.14,2.16,2.4,3.36,3.18,1.26,.78,2.94,1.32,4.68,1.32,1.38,0,3.3-.42,4.44-1.26,1.08-.84,1.68-2.22,1.68-3.72s-.66-2.28-1.14-2.76c-.3-.3-1.08-.96-3.18-1.8l-2.34-.96c-.66-.24-3.72-1.56-5.64-3.54s-2.64-4.26-2.64-6.78c0-4.14,1.68-7.14,3.6-9.06,3.24-3.18,7.38-3.78,10.8-3.78s7.38,.66,11.58,3.96l-4.62,6.72Z"/><path d="M39.93,57.48h-8.64l4.98-40.5h8.64l-.48,3.12c1.08-1.32,2.34-2.22,3.36-2.76,1.74-.9,3.48-1.26,5.52-1.26,4.14,0,6.66,1.56,8.1,2.94,2.16,2.16,3.54,5.88,3.54,10.02,0,5.1-1.86,9.36-4.5,12-2.64,2.64-5.58,3.6-9.06,3.6-1.92,0-3.96-.18-5.82-1.14-1.14-.6-2.4-1.56-3.48-3.06l-2.16,17.04Zm4.98-31.92c-1.56,1.56-2.16,3.36-2.16,5.4,0,1.26,.3,3,1.62,4.38,1.02,1.08,2.64,1.86,4.5,1.86,1.74,0,3.54-.66,4.8-1.86,1.44-1.32,2.4-3.78,2.4-5.76,0-1.68-.78-3.54-1.86-4.5-1.08-1.02-2.76-1.56-4.26-1.56-2.1,0-3.72,.72-5.04,2.04Z"/><path d="M92.25,16.98h8.64l-3.3,26.76h-8.64l.66-3.06c-.96,1.14-2.34,2.34-3.78,3-1.86,.84-3.96,.96-4.98,.96-3.3,0-5.94-.84-8.28-3.3-1.98-2.1-3.6-5.22-3.6-9.84,0-4.92,1.74-8.88,4.32-11.52,2.76-2.82,6.12-3.9,9.84-3.9,1.56,0,3.48,.18,5.22,1.02,1.02,.48,2.46,1.44,3.66,3.12l.24-3.24Zm-12.36,8.52c-1.2,1.2-2.04,3.12-2.04,5.34s.9,3.66,1.74,4.56c1.26,1.32,2.82,1.8,4.56,1.8,2.46,0,4.02-.96,4.92-1.8,1.56-1.5,2.28-3.78,2.28-5.76s-.72-3.6-1.86-4.62c-.78-.72-2.16-1.5-4.5-1.5-2.16,0-3.78,.66-5.1,1.98Z"/><path d="M107.91,16.98h8.64l-.78,3.96c.84-1.68,2.1-2.82,3.36-3.54,1.68-.9,3.54-1.08,4.5-1.08,1.44,0,2.64,.18,3.54,.42l-1.68,8.04c-.84-.42-2.1-.9-3.78-.9-2.16,0-3.6,.84-4.44,1.62-1.5,1.44-2.22,3.96-2.58,6.84l-1.44,11.4h-8.64l3.3-26.76Z"/><path d="M141.99,0l-3.3,26.82,9.84-9.84h11.52l-13.14,12.3,12.12,14.46h-11.1l-9.84-11.76-1.56,11.76h-8.64L133.35,0h8.64Z"/></g></g></svg>