<?xml version="1.0" encoding="UTF-8"?><svg xmlns="http://www.w3.org/2000/svg" viewBox="0 0 32.59 24.44"><defs><style>.d{fill:#414042;}</style></defs><g id="a"/><g id="b"><g id="c"><g><path class="d" d="M16.29,24.44H2.92c-1.61,0-2.92-1.31-2.92-2.92V2.92C0,1.31,1.31,0,2.92,0h13.37c.36,0,.65,.29,.65,.65V23.79c0,.36-.29,.65-.65,.65ZM2.92,1.3c-.89,0-1.62,.73-1.62,1.62V21.52c0,.89,.73,1.62,1.62,1.62H15.64V1.3H2.92Z"/><path class="d" d="M29.67,24.44h-13.37c-.36,0-.65-.29-.65-.65V.65c0-.36,.29-.65,.65-.65h13.37c1.61,0,2.92,1.31,2.92,2.92V21.52c0,1.61-1.31,2.92-2.92,2.92Zm-12.72-1.3h12.72c.89,0,1.62-.73,1.62-1.62V2.92c0-.89-.73-1.62-1.62-1.62h-12.72V23.14Z"/><path class="d" d="M28,9.11c-.16,0-.32-.06-.45-.18l-1.91-1.81-1.91,1.81c-.19,.18-.47,.23-.7,.12-.24-.1-.39-.34-.39-.6V.65c0-.36,.29-.65,.65-.65s.65,.29,.65,.65V6.96l1.26-1.19c.25-.24,.64-.24,.89,0l1.26,1.19V.65c0-.36,.29-.65,.65-.65s.65,.29,.65,.65v7.81c0,.26-.15,.49-.39,.6-.08,.04-.17,.05-.26,.05Z"/><path class="d" d="M12.39,12.86H4.55c-.36,0-.65-.29-.65-.65s.29-.65,.65-.65h7.84c.36,0,.65,.29,.65,.65s-.29,.65-.65,.65Z"/><path class="d" d="M12.39,16.61H4.55c-.36,0-.65-.29-.65-.65s.29-.65,.65-.65h7.84c.36,0,.65,.29,.65,.65s-.29,.65-.65,.65Z"/><path class="d" d="M12.39,9.11H4.55c-.36,0-.65-.29-.65-.65s.29-.65,.65-.65h7.84c.36,0,.65,.29,.65,.65s-.29,.65-.65,.65Z"/></g></g></g></svg>