<?xml version="1.0" encoding="UTF-8"?><svg xmlns="http://www.w3.org/2000/svg" viewBox="0 0 24.76 24.42"><defs><style>.d{fill:#414042;}</style></defs><g id="a"/><g id="b"><g id="c"><g><path class="d" d="M21.82,24.42c-.75,0-1.51-.29-2.08-.86l-4.64-4.64c-.25-.25-.25-.67,0-.92l3.25-3.25c.24-.24,.68-.24,.92,0l4.64,4.64c1.15,1.15,1.15,3.02,0,4.17h0c-.57,.57-1.33,.86-2.08,.86Zm-5.34-5.96l4.18,4.18c.64,.64,1.69,.64,2.33,0,.64-.64,.64-1.69,0-2.33l-4.18-4.18-2.33,2.33Zm6.97,4.64h0Z"/><path class="d" d="M10.24,20.48C4.59,20.48,0,15.89,0,10.24S4.59,0,10.24,0s10.24,4.59,10.24,10.24-4.59,10.24-10.24,10.24ZM10.24,1.3C5.31,1.3,1.3,5.31,1.3,10.24s4.01,8.94,8.94,8.94,8.94-4.01,8.94-8.94S15.17,1.3,10.24,1.3Z"/><g><path class="d" d="M5.86,15.52c-.08,0-.17-.02-.25-.05-.33-.14-.49-.52-.35-.85L9.57,4.35c.14-.33,.52-.49,.85-.35,.33,.14,.49,.52,.35,.85L6.46,15.13c-.1,.25-.35,.4-.6,.4Z"/><path class="d" d="M14.61,15.51c-.25,0-.5-.15-.6-.4L9.69,4.84c-.14-.33,.02-.71,.35-.85,.33-.14,.71,.02,.85,.35l4.32,10.27c.14,.33-.02,.71-.35,.85-.08,.03-.17,.05-.25,.05Z"/><path class="d" d="M13.22,12.26H7.22c-.36,0-.65-.29-.65-.65s.29-.65,.65-.65h5.99c.36,0,.65,.29,.65,.65s-.29,.65-.65,.65Z"/></g></g></g></g></svg>