<?xml version="1.0" encoding="UTF-8"?><svg xmlns="http://www.w3.org/2000/svg" viewBox="0 0 19.63 24.53"><defs><style>.d{fill:#414042;}</style></defs><g id="a"/><g id="b"><g id="c"><g><path class="d" d="M11.06,8.64c-.11,0-.22-.03-.32-.09l-3.65-2.1c-.31-.18-.42-.58-.24-.89,.18-.31,.58-.42,.89-.24l3.65,2.1c.31,.18,.42,.58,.24,.89-.12,.21-.34,.32-.56,.32Z"/><path class="d" d="M10.26,15.17c-.17,0-.33-.06-.46-.19-.25-.25-.25-.67,0-.92l1.51-1.51c.25-.25,.67-.25,.92,0s.25,.67,0,.92l-1.51,1.51c-.13,.13-.29,.19-.46,.19Z"/><path class="d" d="M4.23,8.47C1.9,8.47,0,6.57,0,4.23S1.9,0,4.23,0s4.23,1.9,4.23,4.23-1.9,4.23-4.23,4.23Zm0-7.17c-1.62,0-2.93,1.32-2.93,2.93s1.31,2.93,2.93,2.93,2.93-1.32,2.93-2.93-1.32-2.93-2.93-2.93Z"/><path class="d" d="M14.76,14.89c-2.69,0-4.87-2.19-4.87-4.87s2.19-4.87,4.87-4.87,4.87,2.19,4.87,4.87-2.19,4.87-4.87,4.87Zm0-8.44c-1.97,0-3.57,1.6-3.57,3.57s1.6,3.57,3.57,3.57,3.57-1.6,3.57-3.57-1.6-3.57-3.57-3.57Z"/><path class="d" d="M6.71,24.53c-3.31,0-6-2.69-6-6s2.69-6,6-6,6,2.69,6,6-2.69,6-6,6Zm0-10.7c-2.59,0-4.7,2.11-4.7,4.7s2.11,4.7,4.7,4.7,4.7-2.11,4.7-4.7-2.11-4.7-4.7-4.7Z"/></g></g></g></svg>