<?xml version="1.0" encoding="UTF-8"?><svg xmlns="http://www.w3.org/2000/svg" viewBox="0 0 24.45 24.41"><defs><style>.d{fill:#E99E23;}</style></defs><g id="a"/><g id="b"><g id="c"><g><path class="d" d="M1.55,24.41c-.4,0-.79-.16-1.09-.46-.45-.45-.58-1.09-.35-1.67l2.65-6.18c.28-.64,.66-1.21,1.15-1.7L17.24,1.07c1.43-1.42,3.91-1.42,5.33,0l.76,.76c.71,.71,1.1,1.66,1.1,2.67s-.39,1.95-1.1,2.67l-13.33,13.33c-.49,.49-1.06,.88-1.7,1.15l-6.16,2.64c-.2,.08-.4,.12-.6,.12ZM19.91,1.26c-.66,0-1.28,.26-1.75,.72L4.83,15.32c-.37,.37-.67,.81-.88,1.3l-2.64,6.16c-.05,.12,.02,.21,.06,.26,.05,.04,.14,.11,.28,.06l6.14-2.64c.49-.21,.92-.5,1.29-.88L22.42,6.25c.47-.47,.72-1.09,.72-1.75s-.26-1.28-.72-1.75h0l-.76-.76c-.47-.47-1.09-.72-1.75-.72Z"/><path class="d" d="M8.68,21.01c-.16,0-.33-.06-.45-.18l-4.48-4.37c-.26-.25-.26-.66-.01-.92,.25-.26,.66-.26,.92-.01l4.48,4.37c.26,.25,.26,.66,.01,.92-.13,.13-.3,.2-.47,.2Z"/></g></g></g></svg>