<?xml version="1.0" encoding="UTF-8"?><svg xmlns="http://www.w3.org/2000/svg" viewBox="0 0 24.52 24.52"><defs><style>.d{fill:#414042;}</style></defs><g id="a"/><g id="b"><g id="c"><g><path class="d" d="M12.26,24.52C5.5,24.52,0,19.02,0,12.26S5.5,0,12.26,0s12.26,5.5,12.26,12.26-5.5,12.26-12.26,12.26ZM12.26,1.3C6.22,1.3,1.3,6.22,1.3,12.26s4.92,10.96,10.96,10.96,10.96-4.92,10.96-10.96S18.31,1.3,12.26,1.3Z"/><circle class="d" cx="12.26" cy="17.85" r=".78"/><path class="d" d="M12.26,15.04c-.36,0-.65-.29-.65-.65,0-1.39,.63-2.73,1.77-3.77,.65-.59,.92-1.25,.79-1.96-.14-.78-.78-1.42-1.56-1.56-.59-.1-1.16,.05-1.61,.42-.44,.37-.7,.92-.7,1.49,0,.36-.29,.65-.65,.65s-.65-.29-.65-.65c0-.96,.42-1.87,1.16-2.49,.74-.62,1.71-.88,2.67-.71,1.31,.23,2.38,1.3,2.61,2.61,.2,1.16-.21,2.24-1.2,3.14-.87,.79-1.35,1.79-1.35,2.81,0,.36-.29,.65-.65,.65Z"/></g></g></g></svg>