<?xml version="1.0" encoding="UTF-8"?><svg xmlns="http://www.w3.org/2000/svg" viewBox="0 0 23.96 24.47"><defs><style>.d{fill:#414042;}</style></defs><g id="a"/><g id="b"><g id="c"><g><path class="d" d="M21.75,11.41H2.21c-.98,0-1.8-.6-2.1-1.53-.3-.93,.02-1.9,.82-2.47L10.7,.41c.77-.55,1.8-.55,2.57,0l9.77,6.99c.79,.57,1.12,1.54,.82,2.47-.3,.93-1.12,1.53-2.1,1.53ZM11.98,1.3c-.18,0-.37,.06-.53,.17h0L1.68,8.46c-.4,.28-.43,.71-.33,1.01,.1,.3,.38,.63,.86,.63H21.75c.49,0,.76-.33,.86-.63,.1-.3,.06-.73-.33-1.01L12.51,1.47c-.16-.11-.34-.17-.53-.17Zm-.91-.36h0Z"/><path class="d" d="M19.65,24.47H4.31c-1.38,0-2.5-1.12-2.5-2.5V10.76c0-.36,.29-.65,.65-.65H21.5c.36,0,.65,.29,.65,.65v11.21c0,1.38-1.12,2.5-2.5,2.5ZM3.11,11.41v10.56c0,.66,.54,1.2,1.2,1.2h15.34c.66,0,1.2-.54,1.2-1.2V11.41H3.11Z"/><path class="d" d="M14.82,24.47h-5.75c-.36,0-.65-.29-.65-.65v-7.06c0-1.1,.9-2,2-2h3.05c1.1,0,2,.9,2,2v7.06c0,.36-.29,.65-.65,.65Zm-5.1-1.3h4.45v-6.41c0-.38-.31-.7-.7-.7h-3.05c-.38,0-.7,.31-.7,.7v6.41Z"/></g></g></g></svg>