<?xml version="1.0" encoding="UTF-8"?>
<svg id="Layer_2" data-name="Layer 2" xmlns="http://www.w3.org/2000/svg" viewBox="0 0 2765.4001 1228.6022">
  <defs>
    <style>
      .cls-1 {
        fill: #fff;
      }

      .cls-2 {
        fill: #afcdfb;
      }

      .cls-3 {
        fill: #82b378;
      }

      .cls-4 {
        fill: #698084;
      }

      .cls-5 {
        fill: #1c468a;
      }

      .cls-6 {
        fill: #acbbbc;
      }

      .cls-7 {
        fill: #f4a269;
      }

      .cls-8 {
        fill: #a8d29f;
      }

      .cls-9 {
        opacity: .2;
      }

      .cls-9, .cls-10 {
        fill: #e37970;
      }

      .cls-11 {
        fill: #824320;
      }

      .cls-12 {
        fill: #f1a34f;
      }

      .cls-13 {
        fill: #a0795f;
      }

      .cls-14 {
        fill: #c69d7f;
      }

      .cls-15 {
        fill: #e0b594;
      }

      .cls-16 {
        fill: #8a5fc1;
      }

      .cls-17 {
        fill: #dbceef;
      }

      .cls-18 {
        fill: #6102c4;
      }

      .cls-19 {
        fill: #e9f3fe;
      }

      .cls-20 {
        fill: #c65447;
      }

      .cls-21 {
        fill: #c45446;
      }

      .cls-22 {
        fill: #eae2f7;
      }

      .cls-23 {
        fill: #e49963;
      }

      .cls-24 {
        fill: #9e332e;
      }

      .cls-25 {
        fill: #f1edf9;
      }

      .cls-26 {
        fill: #dde3f2;
      }

      .cls-27 {
        fill: #b5453c;
      }

      .cls-28 {
        fill: #878787;
      }

      .cls-29 {
        fill: #ed975d;
      }

      .cls-30 {
        fill: #dfb697;
      }

      .cls-31 {
        fill: #d86713;
      }

      .cls-32 {
        fill: #d5c7f2;
      }

      .cls-33 {
        fill: #b699d6;
      }

      .cls-34 {
        fill: #410391;
      }

      .cls-35 {
        fill: #ff8aa3;
      }

      .cls-36 {
        fill: #d1a586;
      }

      .cls-37 {
        fill: #ffb27d;
      }

      .cls-38 {
        fill: #e7f1fd;
      }

      .cls-39 {
        fill: #ff7196;
      }

      .cls-40 {
        fill: #6b7aa0;
      }

      .cls-41 {
        fill: #233862;
      }

      .cls-42 {
        fill: #e7dcf9;
      }

      .cls-43 {
        fill: #163560;
      }

      .cls-44 {
        fill: #699dee;
      }

      .cls-45 {
        fill: #666;
      }

      .cls-46 {
        fill: #2b478b;
      }

      .cls-47 {
        fill: #e5bd9e;
      }
    </style>
  </defs>
  <g id="_Слой_2" data-name="Слой 2">
    <g>
      <path class="cls-25" d="m2563.6472,1225.858l-2403.2134-.6152s-1.4839-1.3525-4.1772-3.9687c-1.0659-1.044-2.3301-2.2862-3.77-3.7266-3.7925-3.8027-8.794-8.9805-14.6641-15.4336-2.2861-2.5059-4.7046-5.21-7.2217-8.0898-11.2783-12.8721-24.7768-29.4483-38.748-49.2129-3.4737-4.9024-6.9693-10.0137-10.4761-15.3125-.1426-.2198-.2964-.4395-.4395-.6592-1.1543-1.7373-2.2973-3.5068-3.4629-5.2871v-.0117c-1.7036-2.6377-3.4072-5.3194-5.1-8.0459-6.2217-10.003-12.3887-20.5889-18.3243-31.7129-.374-.7041-.7475-1.3965-1.1103-2.0996-4.1333-7.794-8.1563-15.8623-12.0039-24.1612-.3296-.6924-.6485-1.3965-.9781-2.0996-.4506-.9785-.8906-1.9678-1.3408-2.957-.3847-.8467-.7588-1.6924-1.1323-2.5391-.9453-2.1103-1.8686-4.2324-2.7812-6.376-.0879-.2089-.1758-.4169-.2637-.6259-.2637-.5938-.5166-1.1983-.7696-1.792-2.8359-6.7383-5.5512-13.6192-8.1123-20.6328-1.2421-3.3526-2.4404-6.7383-3.5947-10.1563-5.0454-14.7744-9.4092-30.1191-12.894-45.9599-2.4951-11.3545-4.5396-22.9629-6.0459-34.8125-.022-.1866-.0435-.3848-.0655-.5713-2.1875-17.3243-3.2431-35.1426-2.8911-53.4014,1.5279-79.9912,29.8443-168.1719,106.0103-258.3193,38.748-45.8496,78.5513-83.6963,118.9038-114.42,17.0713-12.9926,34.2305-24.7216,51.4663-35.2412,85.9273-52.4555,173.3936-74.957,257.7925-75.8916,3.4077-.0327,6.8154-.0434,10.2119-.0215,99.6567.9454,194.7407,31.6358,277.5347,78.1221,53.0273,29.7676,167.3916,25.2276,296.8266-48.8389,16.9283-9.684,34.1094-20.5556,51.4551-32.7128,42.958-30.086,86.8726-67.9439,130.1494-114.8042,2.6709-2.8912,5.3316-5.815,7.9917-8.772,20.4453-22.6773,40.7154-47.377,60.6446-74.2315.3847-.5273.7695-1.0439,1.165-1.5498,6.2656-8.354,12.8613-16.4116,19.7754-24.1831,156.498-176.0976,472.5058-204.5786,727.2754-116.0244,17.4668,6.0679,34.6484,12.6856,51.4668,19.8526,59.6552,25.392,114.8037,57.5996,162.2578,96.1718,9.6074,7.7935,18.8955,15.8618,27.8437,24.1831,25.0293,23.271,47.3877,48.5645,66.5039,75.7813,2.0332,2.9018,4.0342,5.8262,6.001,8.772,65.2402,97.9086,88.9287,219.935,45.4317,362.5493-88.3565,289.7148,268.9169,300.2451,86.873,589.8388Z"/>
      <polygon class="cls-22" points="2041.0329 691.8278 2041.0329 630.9284 2023.1863 630.9284 2023.1863 526.2135 1927.4968 526.2135 1927.4968 630.9284 1838.0349 630.9284 1838.0349 460.299 1739.3142 460.299 1739.3142 571.0636 1716.8015 571.0636 1716.8015 438.8248 1618.0808 438.8248 1618.0808 686.7643 1493.2283 686.7643 1493.2283 831.3453 1446.5788 831.3453 1446.5788 766.9791 1339.4255 766.9791 1339.4255 805.0485 1277.904 805.0485 1277.904 634.6198 1201.907 634.6198 1201.907 760.7682 1125.9099 760.7682 1125.9099 1222.9909 1201.907 1222.9909 1267.0471 1222.9909 1277.904 1222.9909 1339.4255 1222.9909 1374.2009 1222.9909 1429.8982 1222.9909 1446.5788 1222.9909 1493.2283 1222.9909 1537.0515 1222.9909 1618.0808 1222.9909 1642.8972 1222.9909 1692.2683 1222.9909 1716.8015 1222.9909 1739.3142 1222.9909 1790.989 1222.9909 1826.1677 1222.9909 1838.0349 1222.9909 1927.4968 1222.9909 2021.5886 1222.9909 2023.1863 1222.9909 2041.0329 1222.9909 2117.2771 1222.9909 2117.2771 691.8278 2041.0329 691.8278"/>
      <polygon class="cls-22" points="1135.9949 775.9547 1135.9949 1222.3327 262.5954 1222.3327 262.5954 833.8991 329.5461 833.8991 329.5461 727.8893 396.4968 727.8893 396.4968 871.11 450.697 871.11 450.697 839.109 545.1135 839.109 545.1135 893.2096 586.2048 893.2096 586.2048 771.7096 696.197 771.7096 696.197 563.3512 783.1696 563.3512 783.1696 674.4782 803.0055 674.4782 803.0055 581.3883 889.9783 581.3883 889.9783 724.7799 968.8044 724.7799 968.8044 636.7858 1053.1091 636.7858 1053.1091 724.7799 1068.8288 724.7799 1068.8288 775.9547 1135.9949 775.9547"/>
      <path class="cls-42" d="m2168.7361,68.5617v1151.1293h-51.4668V48.7091c17.4668,6.0679,34.6484,12.6856,51.4668,19.8526Z"/>
      <path class="cls-42" d="m276.447,467.6168v752.0742h-51.4663V502.858c17.0713-12.9926,34.2305-24.7216,51.4663-35.2412Z"/>
      <path class="cls-42" d="m1170.2678,388.2741v831.4169h-51.4551V420.9869c16.9283-9.684,34.1094-20.5556,51.4551-32.7128Z"/>
      <path class="cls-17" d="m1511.696,1074.2535h-38.9843c3.6289-29.7021,9.5468-49.3291,9.6376-49.6132.0616-.1914.1016-.4483.1006-.7237,0,0,1.3223-8.1377-12.6298-8.33-13.0088-.1778-19.3379,5.2011-20.4883,7.1728-3.6533-16.6816-8.7725-30.5049-15.083-32.46-2.6934-.8339-5.836-1.1757-9.1153-1.2031-.331-1.0234-1.1552-3.125-2.4736-3.6377-.1084-.042-.2754-.0664-.4922-.0752-1.0351-2.3398-2.0459-5.2656-2.7139-8.6963.0469-.1396.0909-.2802.1309-.4257,5.126-6.8526,8.1143-21.085,5.7158-23.5625-8.8965-9.1895-40.4648-3.2305-28.2724,7.6171-.1455.3926-.2686.7862-.376,1.1749-1.0156,3.6845.4355,22.4335,5.0693,22.9326,0,0,1.4893.0664,3.6113-.1045.0772.9453.1973,2.4248.337,4.1279-1.0577.249-1.7315.415-1.7852.4346-2.4326.8789-4.3037,3.1562-5.2285,4.4804h0s-15.749,8.2159-17.8135,15.9581c-2.0644,7.7421-9.6299,45.2646-12.539,47.8916-2.9092,2.6259-36.3707,8.7294-36.3707,8.7294,0,0-.4316.4834-.9614,1.2647-2.3042-1.2588-5.9873-3.168-7.5268-3.3955-2.0962-.3096-11.2994,7.3066-11.8423,9.2969-.9917.665-1.6153,1.1464-1.6153,1.1464h-5.1499v-1.4384h-9.977c-.0083-.0069-.0166-.0117-.0244-.0186,2.8447-.0068,4.854-.0127,5.1797-.0137-.4346,0-3.7984-.083-4.2735-2.6132-.0376-.1993-.0571-.4131-.0561-.6426.0024-.3945.1748-2.4688.4692-5.7168.0747-.8291.1572-1.7334.2471-2.707.1699-1.8477.3657-3.9405.5796-6.2188l.1562-1.0996h68.1724l3.8623-2.2734h-71.8721,71.8731l-5.1944-19.4795.0323-.003-.2872-1.0752h.0616l-22.5176-84.0898-.0186-.0703h-139.1186v.0752l-2.0298.6767,25.3267,106.2393h41.8217l-1.3134,15.6172s-.6993,4.8125,2.8808,4.8213c1.25.0029,3.2949.0049,5.7334.0058v.0244h-133.0932c.0761,0,.1489-.0126.2221-.0224l.4683.0039c1.1938.0098,2.1323-1.0186,2.0132-2.207l-2.1035-20.9356h34.9536l.0005-.0029h2.499l11.1709-90.9971h-2.4971l.0005-.0029h-120.4185l-9.6025,78.206c-1.7803-6.5634-3.1748-12.0654-3.1748-12.0654-1.0039-2.5224-4.9927-16.7842-6.9824-18.9316l-.0015.0009c-.0015,0-.0024-.0019-.0034-.0029-.7671-.8252-2.4888-1.4775-4.3145-1.9707.4932-.8144.7452-1.7217.6621-2.7305-.455-5.5205,5.9834-5.0605,9.939-11.4072,3.457-5.5478-2.7119-6.9453.5869-15.914,2.4175-6.5733-3.8803-8.1748-3.6914-13.6592,0,0-.8052-10.211-15.4907-7.5596-3.8828.7012-6.5513-6.2226-12.9072-3.7549-13.6856,5.3115-14.4903-1.7021-18.4453,8.1416-1.6563,4.1211-12.1846,8.917-8.9688,16.0381,3.2153,7.1211-2.165,11.9102,1.6143,17.4893,1.956,2.8877,1.1616,8.0488,10.3896,8.2324,1.4522.0293,3.1602.9014,4.9795,2.126-2.9609.5849-6.8784,1.6631-9.6103,3.5722h-.0049l-.0108.0078-.0058.003-.0113.0097c-.6323.4405-1.2045.9356-1.6836,1.4747-.0273.0332-.0551.0605-.0771.0937-.7178.8496-1.2632,2.0078-1.6797,3.335l-.0015-.001s-1.9902,5.2617-4.1196,12.0078c-2.1479-.4697-4.6133-.7568-7.4507-.7148-.3437.0058-.6728.0185-.9961.0351-.7197-.0332-1.4643-.0459-2.2363-.0351-12.5044.1855-11.3183,8.0517-11.3183,8.0517-.001.2656.0346.5137.0893.6992.0776.2598,4.8286,17.2481,8.0942,43.3867h-46.0659c-4.2158,0-7.665,3.4493-7.665,7.6651h0c0,4.2158,3.4492,7.665,7.665,7.665h31.628l-.2798,2.0801-8.8916,66.2529-8.3145,61.9385c-.1001.7324.4873,1.3828,1.2471,1.3828.8628,0,1.6001-.6064,1.7451-1.4336l9.6416-54.6367,10.7847-61.1191v-.003l2.5522-14.4619h7.5669c.94,10.96,1.5132,23.0049,1.3941,35.7432-.0005.0517-.002.1113-.0035.167-.0503.1748-.0859.3545-.0859.5439v1.2666c0,.1172.0151.2315.0352.3428.0009.2002.0053.3936.0161.5664,0,0,.0752.002.1845.0049.3326.6299.9869,1.0664,1.7452,1.0664h.4506c-.0258.0811-.0507.1631-.0478.2471.0142.4355,2.917,35.0244-8.3716,91.3925h2.1074c15.5293-45.2285,14.7876-85.0175,14.1167-91.6396h10.3316c-.0259.0811-.0508.1631-.0479.2471.0142.4355,2.917,35.0244-8.3716,91.3925h2.107c15.5298-45.2285,14.7881-85.0175,14.1172-91.6396h40.3193c-.6709,6.6221-1.4121,46.4111,14.1172,91.6396h2.1069c-11.2886-56.3681-8.3862-90.957-8.3716-91.3925.003-.084-.0219-.166-.0478-.2471h10.2104c-.6709,6.6221-1.4126,46.4111,14.1172,91.6396h2.107c-8.0928-40.4101-8.8916-69.625-8.6905-83.0888.2256,2.3896.4824,4.9756.8975,7.6396,1.668,10.7041,29.5737,54.0215,29.5737,54.0215,0,0,.2832.0869.7363.2168.3013,1.0957.5669,2.0957.7613,2.8877.5879,2.3984-.2798,5.0801-1.0498,7.1211-.4151,1.1104-.834,2.2471-.9434,3.4502-.3154,3.415,4.4395,4.2461,9.9463,4.5205,5.5068.2734,3.8428,1.4014,11.3897,2.7686,7.5463,1.3671,10.5708-.6983,11.1171-1.7178.2339-.4356-.4614-.9893-1.6562-1.624.8354.083,1.7041.1445,2.5976.1894,5.5064.2735,3.8428,1.4014,11.3892,2.7686,7.5464,1.3662,10.5708-.6983,11.1172-1.7178.4868-.9053-3.022-2.3203-6.7612-3.919-.4707-.1992-.9419-.4052-1.4131-.6113-4.208-1.8506-6.5698-5.625-9.8506-9.124-1.4092-1.5029-2.7847-4.5039-3.8687-7.3379,1.1529-.3848,1.6988-.8125,1.6988-.8125,0,0-20.5757-94.3135-33.4053-102.4111-1.8379-1.1592-4.8145-2.0469-8.5596-2.7178.1919-.1729-.4697-.9102-1.5078-1.8428h271.1729c-20.9156,4.5664-42.7329,10.4453-46.4366,15.709-7.4179,10.5401-18.9687,100.3106-18.9687,100.3106,0,0,.1152.0302.3208.081-4.7446,5.4317-12.4517,8.4365-17.4424,9.3057-6.1714,1.0761-6.3101,6.1631-6.3101,6.1631l21.1138.123s16.5396,0,16.9849-.0332c2.3515-.1738,3.5801-8.7559,4.104-13.8545.3589-.0849.7016-.1836,1.0161-.3017,0,0,27.5879-71.1299,29.8232-78.8223.2364-.8145,1.0152-1.4551,2.2286-1.958.2465.1006.5146.1582.7959.1582h5.5009c-.0293.084-.0566.1689-.0537.2549.003.0859.1221,1.4365.2266,3.9609-1.6416,2.0498-2.8154,4.2451-3.0596,6.4844-.5303,4.8691.207,22.3457,1.0508,38.1972-1.1875,10.75-2.9917,23.0958-5.6904,36.8438-3.0323,1.4434-6.0694,2.3652-8.4746,2.7842-6.1719,1.0761-6.3101,6.1631-6.3101,6.1631l12.9263.0752c-.003.0156-.0064.0312-.0098.0478h2.3516c.0039-.0117.0078-.0225.0117-.0342l5.834.0342s6.8994,0,11.9062-.0088c-.001.003-.001.0059-.0019.0088h2.3515c.002-.0049.003-.0098.0049-.0146,1.5479-.0049,2.6152-.0108,2.7246-.0186,2.8164-.209,4.0235-12.4883,4.335-16.3828.6103-.2139,1.1054-.4844,1.4375-.8301,0,0,.4765-6.3828,1.0967-15.1191,4.9296-21.6699,6.2695-40.0703,6.4443-51.3877,6.8076-2.96,21.5488-7.6358,33.5635-11.0586h11.1338c-.7491,6.8515-1.5762,48.0166,15.7519,94.8115h2.3516c-12.5967-58.3193-9.3574-94.1055-9.3418-94.5566.0029-.086-.0244-.1709-.0528-.2549h11.5274c-.7481,6.8515-1.5752,48.0166,15.7519,94.8115h2.3516c-12.5957-58.3193-9.3574-94.1055-9.3408-94.5566.0029-.086-.0244-.1709-.0537-.2549h.5849c.7969,0,1.4873-.4492,1.8516-1.1026.1299-.0029.2197-.0058.2197-.0058.0127-.1953.0176-.4141.0186-.6426.0224-.123.0381-.248.0381-.3769v-1.1524c0-.207-.0391-.4033-.0948-.5918-.0019-.0771-.0039-.1543-.0048-.2226-.1172-11.5743.3632-22.5928,1.1914-32.7862h7.5341l2.0918,11.8584,12.3194,69.8174,8.5644,48.5449c.1475.8272.8848,1.4336,1.7471,1.4336.7607,0,1.3457-.6504,1.248-1.3828l-6.3369-47.209-10.6894-79.6445-.459-3.418h24.5234c4.2158,0,7.6651-3.4492,7.6651-7.665h0c0-4.2158-3.4493-7.6651-7.6651-7.6651Zm-283.2705-22.7421h39.0156-39.0156Zm-128.8545,19.3847c-.7646,0-1.479.4844-1.6767,1.2237-.2998,1.1162.5459,2.1337,1.6176,2.1337h-27.311c-1.4673-1.5214-2.8721-3.0205-4.1113-4.3642.271-.3887.5342-.7725.7773-1.1436,1.231-1.8672,2.1035-3.4209,2.4356-3.788,1.0034-1.1084-4.0415-3.3077-6.1104-4.9659-.6616-.5312-1.9453-4.1845-3.3843-8.8994h54.9415l-.5103,15.7666c-.0728,2.251-1.918,4.0371-4.1699,4.0371h-12.4981Zm32.8731,125.9248c.5801,2.0371,1.1284,4.0264,1.4643,5.3965.5879,2.3985-.2798,5.0801-1.0498,7.1211-.415,1.1104-.834,2.2471-.9433,3.4502-.0347.3779.0019.7188.0854,1.0361-3.7407-1.9521-6.0283-5.4541-9.1055-8.7353-.9448-1.0078-1.8745-2.6914-2.7119-4.5449.8868-.3057,1.3262-.6182,1.3262-.6182,0,0-1.9595-11.0234-5.0361-25.8984,7.6889,11.9433,15.1469,22.5859,15.1469,22.5859,0,0,.3174.085.8238.207Zm-85.6074-131.8974c.3667.7588.8203,1.5449,1.3442,2.33,1.3267,1.9815,3.0723,3.9805,4.8091,5.6299.519.4912,1.0361.9502,1.542,1.3701h-6.8311c-.0019-.0019-.0044-.0039-.0063-.0058l5.7763-.0039c1.4082-.0108-4.3891-4.8828-7.0102-5.6836.0405-.5977.0957-1.2295.1665-1.9004v-.0088c.061-.5498.1313-1.126.2095-1.7275Zm21.2783,24.6601h1.2939c-.4121.003-.8232.0059-1.2344.0098-.02-.0029-.0395-.0068-.0595-.0098Zm27.2353.9199c.0225.002.0493.004.0713.0059.0581.0059.126.0127.2027.0205-.0904-.0088-.1836-.0176-.274-.0264Zm-9.9355-.6738c1.0786.0352,4.3115.126,5.207.2813.0064.0019.0132.0019.0195.0029-4.9755-.3359-10.4253-.4941-15.958-.5303h9.3955c.5288.1436.9864.2344,1.336.2461Zm309.915-38.2812c3.0479,10.7744,3.1651,17.8252,2.6182,22.705h-16.4063s7.5401-10.9042,13.7881-22.705Zm-66.8496,22.705s-.0024-.0058-.0029-.0068c.2529.001.5097.002.7656.0029.0005.001.001.003.001.003l-.7637.0009Zm33.0703,135.376c.9707-3.0761,1.8662-6.1152,2.6914-9.1093.1367,2.1591.2198,3.414.2198,3.414,0,0,1.0273.1943,2.6298.4453-1.5039,2.0547-3.4365,3.7949-5.541,5.25Z"/>
      <path class="cls-17" d="m2682.2243,1072.9274h-39.3359c3.6602-29.9707,9.6318-49.7735,9.7236-50.0606.0625-.1933.1026-.4521.1016-.7295,0,0,1.334-8.2119-12.7432-8.4052-13.1259-.1807-19.5127,5.247-20.6728,7.2373-3.6875-16.833-8.8516-30.7813-15.2197-32.753-2.7178-.8418-5.8877-1.1875-9.1973-1.2138-.335-1.0332-1.166-3.1533-2.4951-3.6709-.1104-.043-.2793-.0674-.4981-.0752-1.0439-2.3613-2.0644-5.3145-2.7382-8.7754.0468-.1406.0918-.2832.1318-.4297,5.1728-6.9141,8.1885-21.2754,5.7685-23.7754-8.9765-9.2715-40.83-3.2598-28.5283,7.6865-.1465.3965-.2705.794-.3789,1.1856-1.0244,3.7178.4395,22.6357,5.1143,23.1387,0,0,1.5029.0673,3.6445-.1045.0772.9531.1992,2.4462.3399,4.164-1.0674.252-1.7471.4199-1.8008.4395-2.4551.8857-4.3428,3.1836-5.2754,4.5205h0s-15.8916,8.29-17.9746,16.1025c-2.084,7.8115-9.7168,45.6719-12.6524,48.3223-2.9355,2.6504-36.6992,8.8086-36.6992,8.8086,0,0-.4346.4883-.9697,1.2754-2.3252-1.2696-6.041-3.1953-7.5947-3.4248-2.1153-.3125-11.4014,7.372-11.9493,9.3799-1,.6708-1.6298,1.1572-1.6298,1.1572h-5.1963v-1.4522h-10.0674c-.0078-.0058-.0166-.0117-.0244-.0175,2.8711-.0069,4.8984-.0137,5.2265-.0137-.4375,0-3.832-.084-4.3115-2.6377-.0381-.2002-.0576-.416-.0566-.6485.0019-.3974.1767-2.4902.4736-5.7675.0742-.8369.1582-1.7491.249-2.7325.1719-1.8642.3682-3.9755.585-6.2744l.1572-1.1093h68.7871l3.8975-2.294h-72.5205,72.5205l-5.2403-19.6553.0323-.0029-.2901-1.085h.0625l-22.7207-84.8486-.0185-.0703h-140.374v.0752l-2.0469.6826,25.5547,107.1983h42.1992l-1.3252,15.7578s-.7061,4.8564,2.9062,4.8652c1.2608.0029,3.3243.0049,5.7852.0059v.0244h-134.294c.0772,0,.1504-.0127.2247-.0225l.4726.0039c1.2041.0098,2.1514-1.0283,2.0313-2.2265l-2.1231-21.125h35.2695v-.003h2.5215l11.2715-91.8174h-2.5195l.001-.0029h-121.5049l-9.6895,78.9112c-1.7959-6.6231-3.2031-12.1739-3.2031-12.1739-1.0127-2.5459-5.0371-16.9365-7.0459-19.1035l-.001.002s-.0019-.003-.0039-.0039c-.7734-.8321-2.5107-1.4903-4.3535-1.9883.4981-.8223.752-1.7364.6689-2.7549-.4599-5.5703,6.0372-5.1065,10.0284-11.5108,3.4883-5.5976-2.7364-7.0068.5918-16.0566,2.4394-6.6328-3.9151-8.248-3.7246-13.7832,0,0-.8116-10.3027-15.6299-7.6269-3.918.707-6.6104-6.2784-13.0235-3.7891-13.8095,5.3603-14.622-1.7168-18.6123,8.2158-1.6709,4.1572-12.2939,8.9971-9.0498,16.1826,3.2451,7.1846-2.1845,12.0166,1.6299,17.6465,1.9736,2.9141,1.1719,8.1211,10.4824,8.3076,1.4649.0283,3.1895.9082,5.0244,2.1446-2.9873.5898-6.9404,1.6787-9.6962,3.6035h-.0059l-.0098.0078-.0068.0039-.0107.0098c-.6387.4443-1.2159.9443-1.6993,1.4882-.0273.0332-.0556.0616-.0781.0948-.7246.8564-1.2744,2.0254-1.6943,3.3642l-.002-.001s-2.0078,5.3096-4.1562,12.1163c-2.167-.4737-4.6553-.7637-7.5176-.7207-.3467.0048-.6797.0185-1.0059.0351-.7256-.0342-1.4775-.0469-2.2558-.0351-12.6172.1865-11.4209,8.124-11.4209,8.124-.001.2676.0351.5185.0908.7051.0771.2627,4.8721,17.4033,8.167,43.7783h-46.4824c-4.253,0-7.7334,3.4804-7.7334,7.7344h0c0,4.2539,3.4804,7.7343,7.7334,7.7343h31.914l-.2822,2.0987-8.9717,66.8505-8.3896,62.4971c-.1016.7393.4912,1.3945,1.2588,1.3945.8701,0,1.6142-.6113,1.7607-1.4453l9.7285-55.1308,10.8819-61.6699v-.002l2.5742-14.5928h7.6357c.9483,11.0586,1.5264,23.2119,1.4063,36.0655,0,.0517-.002.1113-.003.1689-.0507.1758-.0869.3574-.0869.5488v1.2774c0,.1181.0156.2334.0352.3457.001.2021.0058.3974.0166.5713,0,.0009.0762.0029.1865.0058.335.6348.9951,1.0752,1.7607,1.0752h.4551c-.0263.083-.0517.1651-.0488.249.0146.4395,2.9434,35.3409-8.4473,92.2178h2.127c15.6689-45.6377,14.9209-85.7842,14.2441-92.4668h10.4239c-.0254.083-.0508.1651-.0479.249.0147.4395,2.9434,35.3409-8.4463,92.2178h2.126c15.6689-45.6377,14.9209-85.7842,14.2441-92.4668h40.6826c-.6767,6.6826-1.4248,46.8291,14.2442,92.4668h2.1269c-11.3906-56.8769-8.4619-91.7783-8.4472-92.2178.0019-.0839-.0225-.166-.0489-.249h10.3028c-.6768,6.6826-1.4248,46.8291,14.2441,92.4668h2.126c-8.165-40.7744-8.9717-70.2529-8.7686-83.8388.2276,2.4111.4864,5.0214.9063,7.7089,1.6816,10.8008,29.8398,54.5088,29.8398,54.5088,0,0,.2862.0879.7432.2188.3037,1.1054.5723,2.1142.7686,2.914.5927,2.42-.2832,5.126-1.0596,7.1846-.419,1.1211-.8418,2.2676-.9522,3.4815-.3183,3.4462,4.4795,4.2841,10.0362,4.5605,5.5566.2773,3.8769,1.415,11.4922,2.7939,7.6142,1.3799,10.666-.7041,11.2177-1.7334.2354-.4384-.4658-.997-1.6718-1.6376.8437.083,1.7207.1455,2.6211.1904,5.5566.2763,3.8769,1.415,11.4921,2.7939,7.6153,1.3789,10.6661-.7051,11.2178-1.7334.4912-.9131-3.0498-2.3408-6.8223-3.9541-.4755-.2011-.9501-.4092-1.4257-.6172-4.2461-1.8671-6.6289-5.6757-9.9405-9.206-1.4209-1.5166-2.8086-4.5449-3.9023-7.4043,1.1631-.3877,1.7139-.8203,1.7139-.8203,0,0-20.7618-95.1641-33.7071-103.334-1.8545-1.1699-4.8574-2.0654-8.6367-2.7422.1943-.1748-.4736-.9189-1.5215-1.8594h273.6201c-21.1054,4.6074-43.1191,10.5391-46.8564,15.8496-7.4844,10.6358-19.1397,101.2159-19.1397,101.2159,0,0,.1163.0312.3243.082-4.7881,5.4805-12.5645,8.5127-17.6006,9.3896-6.2276,1.086-6.3662,6.2188-6.3662,6.2188l21.3037.124s16.6885,0,17.1377-.0332c2.373-.1758,3.6133-8.835,4.1416-13.9805.3623-.0859.708-.1836,1.0244-.3027,0,0,27.8379-71.7725,30.0928-79.5342.2392-.8213,1.0244-1.4687,2.249-1.9756.248.1006.5185.1592.8027.1592h5.5508c-.0293.085-.0566.1709-.0537.2578.0029.086.1221,1.4483.2275,3.9971-1.6562,2.0674-2.8398,4.2822-3.0859,6.542-.5361,4.9131.209,22.5478,1.0596,38.542-1.1993,10.8467-3.0186,23.3037-5.7422,37.1758-3.0596,1.457-6.124,2.3867-8.5508,2.8095-6.2275,1.086-6.3672,6.2188-6.3672,6.2188l13.044.0762c-.004.0156-.0079.0312-.0108.0478h2.3721c.0049-.0117.0088-.0234.0127-.0342l5.8857.0342s6.9619,0,12.0137-.0098c0,.004-.001.0059-.002.0098h2.3731c.0019-.0049.0039-.0098.0058-.0146,1.5606-.0049,2.6387-.0108,2.7481-.0186,2.8428-.2109,4.0605-12.6006,4.375-16.5312.6152-.2159,1.1152-.4893,1.4492-.837,0,0,.4824-6.4404,1.1074-15.2558,4.9746-21.8653,6.3262-40.4317,6.503-51.8506,6.8681-2.9863,21.7431-7.7051,33.8662-11.1592h11.2334c-.7549,6.9141-1.5899,48.4502,15.8945,95.667h2.3721c-12.709-58.8447-9.4414-94.9541-9.4258-95.4092.0039-.0869-.0244-.1728-.0527-.2578h11.6318c-.7549,6.9141-1.5908,48.4502,15.8935,95.667h2.3731c-12.71-58.8447-9.4424-94.9541-9.4258-95.4092.0029-.0869-.0244-.1728-.0537-.2578h.5898c.8047,0,1.501-.4531,1.8682-1.1123.1309-.0029.2217-.0058.2217-.0058.0137-.1973.0185-.418.0185-.6485.0225-.124.0391-.25.0391-.3808v-1.1622c0-.2089-.04-.4062-.0957-.5976-.0019-.0772-.0039-.1553-.0049-.2246-.1181-11.6778.3662-22.7969,1.2022-33.0811h7.6015l2.1114,11.9658,12.4306,70.4463,8.6416,48.9834c.1485.834.8926,1.4453,1.7627,1.4453.7676,0,1.3574-.6552,1.2588-1.3945l-6.3945-47.6347-10.7852-80.3624-.4629-3.4492h24.7451c4.253,0,7.7334-3.4804,7.7334-7.7343h0c0-4.254-3.4804-7.7344-7.7334-7.7344Zm-285.8261-22.9473h-.001,39.3691-39.3681Zm-130.0166,19.5596c-.7715,0-1.4922.4892-1.6924,1.2344-.3018,1.1269.5518,2.1533,1.6328,2.1533h-27.5576c-1.4805-1.5352-2.8984-3.0479-4.1484-4.4033.2734-.3926.539-.7803.7841-1.1543,1.2422-1.8848,2.1231-3.4522,2.458-3.8223,1.0127-1.1182-4.0781-3.3379-6.166-5.0107-.6679-.5352-1.9629-4.2217-3.414-8.9795h55.4365l-.5147,15.9091c-.0732,2.2705-1.9355,4.0733-4.208,4.0733h-12.6103Zm33.1699,127.0615c.585,2.0547,1.1377,4.0615,1.4766,5.4443.5937,2.42-.2813,5.126-1.0586,7.1856-.419,1.1201-.8418,2.2666-.9522,3.4805-.0351.3818.002.7265.086,1.0468-3.7745-1.9697-6.0831-5.5039-9.1866-8.8144-.9541-1.0176-1.8925-2.7158-2.7373-4.5869.8955-.3086,1.3379-.6231,1.3379-.6231,0,0-1.9765-11.124-5.081-26.1318,7.7578,12.0508,15.2832,22.79,15.2832,22.79,0,0,.3203.085.832.209Zm265.2559-146.584c3.0761,10.8721,3.1943,17.9863,2.6425,22.9102h-16.5547s7.6084-11.003,13.9122-22.9102Zm-67.4522,22.9102s-.0019-.0059-.0029-.0069c.2558.001.5137.002.7724.003.001.0009.001.0029.001.0029l-.7705.001Zm33.3682,136.5967c.9804-3.1036,1.8828-6.17,2.7168-9.1905.1377,2.1778.2207,3.4444.2207,3.4444,0,0,1.0371.1953,2.6543.4492-1.5176,2.0732-3.4678,3.8291-5.5918,5.2969Z"/>
      <path class="cls-17" d="m43.0574,1019.7623l.0332-.0107-.3077-1.1436h.066l-23.9746-89.5322-.022-.0771H2.9577c.022.1865.0435.3847.0655.5713,1.5063,11.8496,3.5508,23.458,6.0459,34.8125,3.4848,15.8408,7.8486,31.1855,12.894,45.9599,1.1543,3.418,2.3526,6.8037,3.5947,10.1563,2.5611,7.0136,5.2764,13.8945,8.1123,20.6328.253.5937.5059,1.1982.7696,1.792h10.0361l4.1109-2.419-5.5293-20.7422Zm163.0605,47.3555c-1.4839-1.4736-3.5176-2.3965-5.771-2.3965h-41.5068c3.8584-31.625,10.1679-52.5332,10.2666-52.8301.0659-.208.0991-.4834.0991-.7685,0,0,1.418-8.6621-13.4439-8.8711-13.8501-.1982-20.5883,5.5293-21.8198,7.6289-3.8911-17.7529-9.3432-32.4824-16.0595-34.5605-2.8692-.879-6.2217-1.2422-9.7066-1.2745-.3623-1.0996-1.2309-3.331-2.6377-3.8701-.1103-.0547-.2969-.0761-.5171-.0879-1.1098-2.4951-2.1875-5.6054-2.8906-9.2548.0439-.1543.0879-.2969.1426-.462,5.4526-7.288,8.6294-22.4463,6.0791-25.0849-9.4756-9.7832-43.0791-3.4405-30.1084,8.1123-.1538.4179-.2744.8359-.3955,1.2539-1.0772,3.9238.4614,23.8857,5.3974,24.4131,0,0,1.5826.0771,3.8472-.1094.0879,1.0117.209,2.583.3516,4.3965-1.1211.2646-1.8355.4404-1.8907.4619-2.5942.9346-4.5835,3.3643-5.5732,4.7705,0,0-4.188,2.1768-8.6616,5.4082-4.4629,3.21-9.2119,7.4639-10.3111,11.5859-2.1982,8.2452-10.2446,48.2022-13.3554,50.9942-.9566.8574-5.0127,2.0771-10.168,3.3525.3735.8467.7476,1.6924,1.1323,2.5391.4502.9892.8902,1.9785,1.3408,2.957.3296.7031.6485,1.4072.9781,2.0996,3.8476,8.2989,7.8706,16.3672,12.0039,24.1612.3628.7031.7363,1.3955,1.1103,2.0996,5.9356,11.124,12.1026,21.7099,18.3243,31.7129,1.6928,2.7265,3.3964,5.4082,5.1,8.0459v.0117c1.1656,1.7803,2.3086,3.5498,3.4629,5.2871.1431.2197.2969.4394.4395.6592,8.0796-2.9131,19.4126-6.4297,29.0747-9.1778h11.8608c-.6484,5.9131-1.352,35.9444,8.2886,73.7032,2.5171,2.8798,4.9356,5.5839,7.2217,8.0898-8.9478-50.6855-6.1997-81.1016-6.1777-81.5293,0-.0889-.0328-.1768-.066-.2637h12.2784c-.8023,7.2979-1.6817,51.125,16.7744,100.9532h2.4956c-13.4107-62.0957-9.9595-100.2061-9.9483-100.6895,0-.0889-.0219-.1768-.0551-.2637h.6269c.8462,0,1.5825-.4843,1.9673-1.1767h.231c.0219-.2198.0219-.4502.0219-.6924.0327-.1318.044-.2637.044-.3955v-1.2315c0-.2197-.044-.4287-.0991-.6269,0-.0879-.0108-.1758-.0108-.2412-.1211-12.3233.3955-24.0625,1.2749-34.9121h8.0244l2.2315,12.6298,13.1142,74.3418,9.1123,51.6973c.1538.8682.9458,1.5274,1.8687,1.5274.8135,0,1.4292-.7032,1.3193-1.4834l-6.7495-50.2569-11.3769-84.8174-.4834-3.6386h26.1064c4.4961,0,8.1675-3.6709,8.1675-8.167,0-2.2315-.9234-4.2764-2.3965-5.7598Zm-126.8843-2.3965h-17.478s8.0352-11.6084,14.6855-24.1728c3.2432,11.4658,3.3638,18.9736,2.7925,24.1728Z"/>
      <g>
        <path class="cls-18" d="m2011.4265,195.3463v193.4229c0,1.6938-.0234,3.3559-.0625,4.9712-.3623,15.0864-2.3398,26.6831-4.7109,26.6831h-.6778c-2.1982,0-4.0576-9.982-4.6015-23.461-.0469-1.1108-.086-2.2456-.1094-3.4033,0-.0791-.0078-.1577-.0078-.2446-.0323-1.481-.0479-3.0015-.0479-4.5454v-194.3135c3.4434.2207,6.8467.52,10.2178.8906Z"/>
        <path class="cls-18" d="m2003.6589,393.2662c-37.2031,0-67.3633,31.8907-67.3633,71.2295h134.7266c0-39.3388-30.1592-71.2295-67.3633-71.2295Z"/>
        <path class="cls-16" d="m2009.0251,394.1344c-1.9345-.4219-3.9091-.644-5.916-.644-24.2392,0-43.8896,31.79-43.8896,71.0053h11.833c0-35.9687,16.5322-65.6865,37.9726-70.3613Z"/>
      </g>
      <g>
        <path class="cls-18" d="m1514.781,195.3463v193.4229c0,1.6938-.0234,3.3559-.0635,4.9712-.3623,15.0864-2.3398,26.6831-4.7109,26.6831h-.6778c-2.1972,0-4.0566-9.982-4.6005-23.461-.0469-1.1108-.087-2.2456-.1104-3.4033,0-.0791-.0078-.1577-.0078-.2446-.0313-1.481-.0469-3.0015-.0469-4.5454v-194.3135c3.4424.2207,6.8457.52,10.2178.8906Z"/>
        <path class="cls-18" d="m1507.0134,393.2662c-37.2041,0-67.3633,31.8907-67.3633,71.2295h134.7266c0-39.3388-30.1602-71.2295-67.3633-71.2295Z"/>
        <path class="cls-16" d="m1512.3796,394.1344c-1.9355-.4219-3.9101-.644-5.916-.644-24.2402,0-43.8896,31.79-43.8896,71.0053h11.833c0-35.9687,16.5312-65.6865,37.9726-70.3613Z"/>
      </g>
      <g>
        <path class="cls-18" d="m544.4514,391.7037v38.7481c0,1.6816-.022,3.3525-.0659,4.957v.0225c-.3628,15.081-2.3301,26.6782-4.7046,26.6782h-.6816c-2.1983,0-4.0562-9.981-4.5948-23.4575v-.022c-.0552-1.0991-.0879-2.2427-.1098-3.3857,0-.0772-.0113-.1538-.0113-.2417v-.0113c-.0327-1.4838-.0439-2.9897-.0439-4.5395v-38.7266c3.4077-.0327,6.8154-.0434,10.2119-.0215Z"/>
        <path class="cls-18" d="m536.6863,434.9528c-37.2041,0-67.3633,31.8906-67.3633,71.2295h134.7265c0-39.3389-30.1596-71.2295-67.3632-71.2295Z"/>
        <path class="cls-16" d="m542.0525,435.8209c-1.9356-.4218-3.9097-.6445-5.9165-.6445-24.2393,0-43.8892,31.7905-43.8892,71.0059h11.8325c0-35.9688,16.5318-65.6866,37.9732-70.3614Z"/>
      </g>
      <path class="cls-32" d="m2128.3386,1194.1998h570.4482c-21.7431,16.9502-49.0371,27.0743-78.5849,27.0743h-810.7842c-70.5713,0-128.3027-57.7315-128.3027-128.3028v-417.0058c0-70.5708,57.7314-128.3028,128.3027-128.3028h810.7842c32.9336,0,63.0742,12.5757,85.8398,33.1641h-577.7031c-60.2822,0-109.5937,49.3115-109.5937,109.5937v394.1856c0,60.2822,49.3115,109.5937,109.5937,109.5937Z"/>
      <path class="cls-33" d="m2142.7273,1194.1998h564.292c-21.5078,16.9502-48.5078,27.0743-77.7364,27.0743h-802.0361c-69.8086,0-126.918-57.7315-126.918-128.3028v-417.0058c0-70.5708,57.1094-128.3028,126.918-128.3028h802.0361c32.5782,0,62.3936,12.5757,84.9131,33.1641h-571.4687c-59.6319,0-108.4121,49.3115-108.4121,109.5937v394.1856c0,60.2822,48.7802,109.5937,108.4121,109.5937Z"/>
      <path class="cls-17" d="m2425.3415,264.6979h-1116.9326c20.4453-22.6773,40.7154-47.377,60.6446-74.2315.3847-.5273.7695-1.0439,1.165-1.5498,6.2656-8.354,12.8613-16.4116,19.7754-24.1831h941c9.6074,7.7935,18.8955,15.8618,27.8437,24.1831,25.0293,23.271,47.3877,48.5645,66.5039,75.7813Z"/>
      <g>
        <path class="cls-36" d="m1522.654,991.2555c1.3399-32.9502,4.2276-61.6123,7.6846-81.6016,5.5107-31.8642,10.4717-50.1953,10.5293-50.3906.7246-2.8027,11.2109-14.1396,34.5254-13.79,23.3144.3496,21.1035,15.2187,21.1035,15.2187h0c.002.502-.0644.9717-.167,1.3213-.2246.7666-21.626,78.3643-20.6992,178.5557.0127,1.4062.1709,3.8379.0713,5.457-.001.0078-54.0283,1.3945-54.041,0-1.8848-8.7558-.9658-33.0195.9931-54.7705Z"/>
        <path class="cls-47" d="m1515.8611,1040.0748c.0156,1.3965.7529,2.5147,1.6513,2.5147h.0215c.8985-.0215,1.6143-1.1397,1.625-2.5147h46.3018c.0166,1.3965.7529,2.5147,1.6513,2.5147h.0215c.9151-.0215,1.6416-1.1758,1.6309-2.5879-.2695-28.6807,1.3662-55.4609,3.8408-79.0986,6.1553-58.9453,17.5342-98.3418,17.6963-98.8877.1016-.3526.166-.8194.166-1.3233,0,0,2.211-14.8672-21.1006-15.2187-23.3183-.3516-33.8037,10.9892-34.5302,13.792-.043.1465-2.8516,10.5273-6.586,29.1894-1.2373,6.1817-2.5713,13.2725-3.9433,21.1963-3.4541,19.9902-6.3428,48.6543-7.6827,81.6016-1.958,21.7539-2.6474,40.0693-.7636,48.8222Z"/>
        <path class="cls-30" d="m1515.8611,1040.0748c.0156,1.3965.7529,2.5147,1.6513,2.5147h.0215c.8985-.0215,1.6143-1.1397,1.625-2.5147h46.3018c.0166,1.3965.7529,2.5147,1.6513,2.5147h.0215c.9151-.0215,1.6416-1.1758,1.6309-2.5879-.2695-28.6807,1.3662-55.4609,3.8408-79.0986-7.6553-37.4073-37.2412-66.0196-44.3545-72.4483-1.2373,6.1817-2.5713,13.2725-3.9433,21.1963-3.4541,19.9902-6.3428,48.6543-7.6827,81.6016-1.958,21.7539-2.6474,40.0693-.7636,48.8222Z"/>
        <path class="cls-36" d="m1562.5486,1039.5543h-.1114l-.0781-.0791c-.0586-.0595-.0732-.1025-.0762-.2041v-.0049c0-.0332,0-.0722.001-.1201-.0625-1.872-3.9092-2.248-10.0928-2.248-1.3798,0-2.8662.0166-4.4414.0342-1.7754.0205-3.663.042-5.6347.042-5.8887,0-13.6416-.1739-21.3789-1.5313-4.9698-.8711-1.6172-39.1475,1.915-74.9551.6006-6.083,1.0742-10.8877,1.2881-13.7138,2.2685-30.0469,15.5928-84.5245,15.7187-84.9571.5801-2.2412,8.5772-10.7324,25.9268-10.4433,6.5176.0976,11.1494,1.7099,13.7676,4.792,2.6875,3.165,2.2021,6.6787,2.1797,6.8271.0039.3418-.044.7168-.1319,1.0176-.0722.2939-12.0488,70.1855-14.0127,87.0137-3.3339,28.5644-4.5556,87.2373-4.5722,88.1191.0009.04.0009.0811,0,.1221l-.0088.2568-.2578.0322Zm-10.3575-3.1884c5.4249,0,8.8868.2783,10.1192,1.5566.1933-8.6133,1.4726-60.5928,4.5498-86.9609,2.0078-17.2139,13.9668-86.8838,14.0303-87.1006.0722-.2491.1142-.5791.1132-.9063.0079-.0742.4707-3.4765-2.0634-6.4541-2.5157-2.9541-7.0117-4.5-13.3633-4.5957-.2617-.0039-.5195-.0058-.7774-.0058-16.5146,0-24.0771,7.9287-24.6298,10.0586-.1309.499-13.4073,54.4804-15.7012,84.8554-.2139,2.834-.6885,7.6406-1.2881,13.7266-2.3545,23.8642-7.2539,73.5215-2.3525,74.3799,7.6972,1.3496,15.4199,1.5234,21.2871,1.5234,1.9697,0,3.8545-.0215,5.6289-.042,1.5771-.0176,3.0654-.0351,4.4472-.0351Z"/>
        <path class="cls-47" d="m1572.1863,1042.5905h-181.5293s4.2285-17.1075,109.3574-14.5596c74.3984,1.8037,72.1719,14.5596,72.1719,14.5596Z"/>
        <path class="cls-36" d="m1586.9617,1221.2741c-21.0479-106.5508-15.6358-171.9336-15.6094-172.7569.0527-1.6406-2.9707-3.1299-4.5967-3.1836-1.6465-.0293-8.9111-.4834-9.752.9199-1.1015,1.8389-5.3398,82.3965,26.0293,175.0206h3.9288Z"/>
        <path class="cls-36" d="m1417.4704,1221.2741c21.0479-106.5508,15.6358-171.9336,15.6084-172.7569-.0527-1.6406,2.9707-3.1299,4.5977-3.1836,1.6465-.0293,8.9111-.4834,9.752.9199,1.1015,1.8389,5.3398,82.3965-26.0293,175.0206h-3.9288Z"/>
        <path class="cls-13" d="m1383.8816,1221.2741c21.0469-106.5508,15.6347-171.9336,15.6084-172.7569-.0528-1.6406,2.9707-3.1299,4.5967-3.1836,1.6474-.0293,8.9121-.4834,9.7519.9199,1.1016,1.8389,5.3399,82.3965-26.0283,175.0206h-3.9287Z"/>
        <path class="cls-13" d="m1553.1462,1221.2741c-21.0478-106.5508-15.6357-171.9336-15.6094-172.7569.0538-1.6406-2.9697-3.1299-4.5966-3.1836-1.6465-.0293-8.9112-.4834-9.752.9199-1.1015,1.8389-5.3398,82.3965,26.0293,175.0206h3.9287Z"/>
        <rect class="cls-36" x="1386.8318" y="1038.1686" width="188.9648" height="9.8818" rx="3.7187" ry="3.7187" transform="translate(2962.6283 2086.2189) rotate(180)"/>
      </g>
      <g>
        <g>
          <path class="cls-37" d="m1355.8718,884.3317c-7.7085-4.4864-11.5381-8.0918-17.1533-8.9014-5.6162-.8096-15.7651-1.4434-17.1821-3.5791-3.4737-5.2363-7.1221-15.4668-4.5591-14.8008,2.5635.667,12.1709,7.2871,15.1953,6.2539,3.0244-1.0341-4.6089-3.4795-2.7734-4.998,1.9155-1.586,10.2407,2.2461,12.1669,6.5322.6749,1.501,24.5684,8.9287,24.5684,8.9287l-10.2627,10.5645Z"/>
          <path class="cls-37" d="m1464.9607,1156.6598c1.5117,1.7314,1.7041,3.667.956,5.7334,0,.0088-.0058.0215-.0146.0293-1.3828,3.8223-5.9531,8.0908-11.2608,12.3535-.6777.5469-1.2812,1.0449-1.8076,1.5059-.1377.1211-.2754.2422-.4052.3642-.1075.0938-.21.1914-.3125.2813-4.9502,4.5635-3.087,5.6084-11.9795,14.8681-10.1397,10.5498-17.1211,10.7393-19.1075,9.7784-1.6806-.8194,1.7334-6.4151,5.5157-12.7041.1836-.3028.3632-.6094.5517-.9161.5039-.8369,1.0039-1.6855,1.5039-2.5263,4.4326-7.5684,3.2949-11.1201,2.2442-22.3848-.8545-9.1533-14.2412-51.1387-14.2412-51.1387l19.4316-3.3476s5.8525,33.4326,12.2998,38.582c3.4473,2.7442,7.3066,2.7783,10.6201,4.8125.2344.1416.4639.2871.6895.4356,1.8828,1.249,3.8017,2.5371,5.3164,4.2734Z"/>
          <path class="cls-20" d="m1464.9607,1156.6598c1.5117,1.7314,1.7041,3.667.956,5.7334,0,.0088-.0058.0215-.0146.0293-1.6934,3.8184-6.1485,8.0654-11.2793,12.3144-.6699.5567-1.2617,1.0674-1.7891,1.545-.1377.1211-.2754.2422-.4052.3642-.1075.0938-.21.1914-.3125.2813-4.9502,4.5635-3.087,5.6084-11.9795,14.8681-10.1397,10.5498-17.1211,10.7393-19.1075,9.7784-1.6806-.8194,1.7334-6.4151,5.5157-12.7041,1.9746-.7227,11.1435-4.4473,18.0752-13.3184,6.1054-7.791,10.1777-17.8018,14.3349-23.6006.2344.1416.4639.2871.6895.4356,1.8828,1.249,3.8017,2.5371,5.3164,4.2734Z"/>
          <path class="cls-37" d="m1308.2756,1144.5231c-1.1997,5.998-9.7495,4.998-19.3017,2.6631-9.5523-2.334-7.2818.4414-20.8765-1.0645-13.5947-1.5039-17.7129-6.5732-18.1279-8.5947-.3711-1.794,6.3462-2.4268,13.5517-3.2559.9058-.1015,1.8159-.2138,2.7261-.3261,8.1353-1.0206,14.0923-6.2706,21.4814-10.5811,6.9996-4.084,17.4444-20.7207,17.4444-20.7207l18.644,1.4766s-9.7837,14.8593-13.5678,21.3203c-2.2256,3.8008-2.1075,8.8252-1.8301,12.706.144,2.1084.2822,4.2647-.1436,6.377Z"/>
          <path class="cls-20" d="m1288.9739,1147.1862c-9.5523-2.334-7.2818.4414-20.8765-1.0645-13.5947-1.5039-17.7129-6.5732-18.1279-8.5947-.3711-1.794,6.3462-2.4268,13.5517-3.2559l.0669.1377s8.1533,5.7813,19.4693,6.0518c9.2231.2246,18.9926-2.418,25.3618-2.3145.144,2.1084.2822,4.2647-.1436,6.377-1.1997,5.998-9.7495,4.998-19.3017,2.6631Z"/>
          <path class="cls-39" d="m1379.7243,1025.3082l40.1817,108.1358s6.1728.5976,12.0918-1.1074c5.4453-1.5694,11.6855-5.6914,11.6855-5.6914,0,0-9.9677-103.8292-28.2412-125.4258-18.2744-21.5967-35.7178,24.0888-35.7178,24.0888Z"/>
          <path class="cls-35" d="m1538.6531,981.5612s-115.459-39.0401-141.208-30.7334c-25.75,8.3066-103.0635,162.1259-103.0635,162.1259,0,0,1.7431,2.3213,6.5073,4.1075,4.4302,1.6611,15.1538,1.5547,15.1538,1.5547,0,0,69.7734-59.8057,78.0791-77.2491,8.3067-17.4433,11.6289-34.0556,19.9356-32.3945,8.3066,1.6611,107.1523,40.7012,129.5791,17.4434,22.4267-23.2579,16.5625-53.4756,16.5625-53.4756l-21.5459,8.6211Z"/>
          <path class="cls-27" d="m1468.0954,799.943c-1.8427-3.8066-3.9043-10.5684-4.913-22.6211.1552,1.1963,2.2324,16.3984,8.0781,25.0039,24.0117,15.7647,70.0361,68.4033,69.125,78.3789,0,0,16.2109-27.4961,16.4902-27.6601,0,0,29.9043-38.0264-5.5381-59.8096-18.0127-11.0703-17.9209-25.2783-17.1689-37.6201.7588-12.3438-4.9131-65.4746-40.9971-51.5713,0,0-5.79-2.5723-8.3838-2.1865,0,0,2.1182.4052,3.1953,1.5166-4.1826-.2471-10.164.0625-15.1543,2.8994-13.2285,7.5166-25.0654,74.956-4.7334,93.6699Z"/>
          <path class="cls-37" d="m1472.6814,803.11c-.1201.0537,11.5937,6.1367,20.4053,3.7266,8.288-2.2598,13.7031-13.0059,13.5888-13.0303-3.5097-.6973-4.5224-5.5205-4.4472-26.2471l-1.587.3125-26.6796,5.2832s.6074,8.3965.625,16.3057c.0185,6.6416-.3848,12.9404-1.9053,13.6494Z"/>
          <path class="cls-29" d="m1473.9617,773.1549s.6074,8.3965.625,16.3057c14.9296-.4209,22.8212-14.0401,26.0546-21.5889l-26.6796,5.2832Z"/>
          <path class="cls-27" d="m1503.3962,764.9674s7.8242-12.3613,9.7022-22.9326c1.3408-7.5459-2.503-35.5195-30.6133-31.4912,0,0-8.1641.8047-15.8389,5.9883-6.1025,4.122-14.9111,13.0215-5.0625,37.4316l2.5576,8.2451,39.2549,2.7588Z"/>
          <path class="cls-37" d="m1468.9763,780.6452s35.3223.582,35.3467-21.42c.0244-22.0029,4.5996-36.7461-17.9522-38.0488-22.5517-1.3027-26.9423,7.0889-28.7373,14.4307-1.7939,7.3427,2.1543,44.3193,11.3428,45.0381Z"/>
          <path class="cls-27" d="m1470.2829,720.6373s9.6719,25.8135,24.5137,29.6299c14.8428,3.8174,21.2803-.1592,21.2803-.1592,0,0-11.3848-9.0449-13.7471-24.832,0,0-24.751-16.9248-32.0469-4.6387Z"/>
          <path class="cls-27" d="m1472.6804,722.733s-7.2227,5.7627-8.9834,11.3663c-1.7607,5.6025-2.5527,17.1367-5.915,16.7451,0,0-7.2862-17.5459.9023-27.4707,8.6836-10.5244,13.9961-.6407,13.9961-.6407Z"/>
          <path class="cls-16" d="m1551.3376,898.1393c3.4834-14.6094-8.3672-42.957-20.7392-66.4268-11.2246-21.2705-22.877-38.5263-23.9229-37.9062-29.6054,17.5713-32.2803,2.9619-32.2803,2.9619,0,0-26.8916,3.5723-34.5068,16.6807-10.5322,18.125-22.0019,72.5175-33.2705,71.7148-5.1728-.3711-57.2285-19.9365-57.2285-19.9365,0,0-8.6724,8.124-7.0108,18.0928,0,0,25.7012,17.2119,47.4366,28.1923,11.497,5.8096,21.8857,9.875,26.7705,8.7227,9.9013-2.3311,25.3681-25.2861,33.7256-38.7979.0185-.0312.0361-.0595.0556-.0908,10.667,60.378-3.8369,74.128,3.5049,80.4942,7.7529,6.7236,18.8281-3.2002,43.1953,7.3603,15.9824,6.9336,38.1612,16.957,53.0908,18.7012,7.8311.9189,13.6739-.4434,15.5782-5.7315,5.5381-15.3681-21.044-56.1816-14.3985-84.0312Z"/>
          <path class="cls-1" d="m1476.8279,767.3073s-.6573,2.7949-7.6114,2.3632c0,0-5.8379-.3603-5.6601-3.4326,0,0,5.6611-2.1855,13.2715,1.0694Z"/>
          <path class="cls-18" d="m1565.7361,982.1705c-1.9043,5.2881-7.7471,6.6504-15.5782,5.7315-10.333-4.502-54.9736-21.7969-54.4755-33.5147.7421-17.3505,8.5839-17.9043,3.0459-39.3193-4.4463-17.1943,36.8007-49.167,43.3798-56.1162,12.3711,23.4687,12.7129,24.5781,9.2295,39.1875-6.6455,27.8496,19.9366,68.6631,14.3985,84.0312Z"/>
          <path class="cls-18" d="m1450.3113,881.4371c-8.3575,13.5118-23.8243,36.4668-33.7256,38.7979-4.8848,1.1523-15.2735-2.9131-26.7705-8.7217,8.3906,2.1651,16.542,2.1045,24.4609,1.3399,8.584-.8311,11.0762-11.3526,24.6436-27.1358,8.7998-10.2334,10.9589-7.6582,11.3916-4.2803Z"/>
          <path class="cls-37" d="m1491.6677,914.653s-7.4766-5.8145-14.5371-4.4307c-7.0605,1.3848-10.5215,6.2305-10.2451,8.4453.2773,2.2158,4.0156,8.4453,9.415,8.999s20.7666-3.3222,20.7666-3.3222l-5.3994-9.6914Z"/>
          <path class="cls-16" d="m1506.6755,793.8063s28.7891,1.7734,38.7559,15.6738c14.0293,19.5664,38.3955,99.4512,31.75,117.7256l-87.5908-.3691s-2.1221-9.9229.831-14.7217c2.9541-4.7998,50.9483-12.5528,53.1631-14.7676s-27.6895-43.1953-27.6895-49.8408-9.2197-53.7002-9.2197-53.7002Z"/>
        </g>
        <g>
          <g>
            <polygon class="cls-28" points="1479.2068 947.9713 1373.1658 947.9713 1354.0486 881.3073 1459.9265 881.3073 1479.2068 947.9713"/>
            <rect class="cls-45" x="1373.5281" y="945.3737" width="138.6298" height="2.5976"/>
          </g>
          <path class="cls-45" d="m1406.8376,913.5573c-.6718-2.3438.6826-4.2432,3.0264-4.2432s4.7881,1.8994,5.46,4.2432c.6718,2.3437-.6827,4.2431-3.0264,4.2431s-4.7881-1.8994-5.46-4.2431Z"/>
        </g>
        <g>
          <g>
            <polygon class="cls-28" points="1169.7234 947.9713 1275.7644 947.9713 1294.8811 881.3073 1189.0036 881.3073 1169.7234 947.9713"/>
            <rect class="cls-45" x="1136.7717" y="945.3737" width="138.6294" height="2.5976" transform="translate(2412.1727 1893.3449) rotate(180)"/>
          </g>
          <path class="cls-45" d="m1242.092,913.5573c.6719-2.3438-.6831-4.2432-3.0263-4.2432s-4.7876,1.8994-5.4595,4.2432c-.6719,2.3437.6826,4.2431,3.0264,4.2431s4.7875-1.8994,5.4594-4.2431Z"/>
        </g>
      </g>
      <g>
        <path class="cls-37" d="m1198.6916,828.5827s10.7642-8.7989,14.6319-8.8448c3.8676-.0459,11.2153-1.9795,10.9253-.7226-.2901,1.2568-6.4776,2.9004-5.4141,3.4804,1.0635.5801,10.0552-1.8369,12.5693-.3867,2.5137,1.4502,8.4117,7.4444,3.6739,10.0557-4.7373,2.6103-18.9502,6.7676-22.6245,6.2842-3.6744-.4834-11.9893-1.0635-11.9893-1.0635l-1.7725-8.8027Z"/>
        <polygon class="cls-37" points="1061.2131 1155.7252 1070.2414 1193.7496 1083.7639 1193.6725 1084.26 1155.7252 1061.2131 1155.7252"/>
        <polygon class="cls-37" points="1174.9636 1157.3463 1201.032 1193.2604 1210.6633 1180.8952 1195.2029 1152.3414 1174.9636 1157.3463"/>
        <path class="cls-43" d="m1122.3196,697.5787v-.0078c0-.0927-.0078-.1855-.023-.2783-.1704-1.8955-.3872-3.7676-.6421-5.6318v-.0078c-.7739-5.7002-1.8877-11.1836-3.2412-16.0801-.7812-2.8076-1.6318-5.4297-2.5522-7.7891-.1397-.3633-.2788-.7041-.4102-1.0527l-.0078-.0068c-2.1968-5.3604-4.7026-9.2129-7.2632-10.667-4.6714-2.6534-10.2641-2.9395-14.1782-2.7149,1.0059-1.0361,2.9936-1.415,2.9936-1.415-2.4287-.3643-7.8432,2.042-7.8432,2.042-33.7549-13.003-39.0611,36.6943-38.3496,48.2422.7041,11.5488-11.3472,15.3154-28.9053,24.4111-33.5078,17.3574-36.4473,40.6006-36.4473,40.6006.2554.1552.5337.333.8203.5342,1.6631-2.8155,5.0894-8.1065,7.9747-8.9034-.1163.2559-3.4112,7.2793-4.649,11.3008,4.231,3.2256,10.0244,8.1065,16.2896,13.5752l.0078.0078c8.3848,7.3096,17.5972,15.6553,24.9687,22.416-.0542-2.3134.0386-5.5849.8819-7.3173l1.4072,8.4775.186,1.1055c4.7027,4.3242,8.4078,7.7744,10.2876,9.5371.1934.1787.3633.3408.5181.4795.5493.5107.8433.789.8433.789-.271-2.9619,3.8906-9.9619,10.4111-18.5947.4482-.6025.9204-1.2139,1.3999-1.833,2.0962-2.7227,4.4087-5.5762,6.8765-8.5078.8891-1.0606,1.7866-2.1201,2.7148-3.1953,0-.0078.0078-.0078.0078-.0078.7422-.8663,1.4927-1.7247,2.2661-2.5987l.0078-.0078c1.8257-2.0723,3.7051-4.1533,5.6158-6.2344,4.9502-5.3906,10.1323-10.705,15.1914-15.5312,7.3481-7.0313,14.4253-13.041,20.1645-16.8086.2168-.3164.4258-.6416.6187-.9746,1.0679-1.7246,1.9805-3.6817,2.7617-5.6924.2397-.6035.4639-1.2148.6729-1.8252,2.2509-6.459,3.2563-13.0488,3.4731-14.6191-.5493,6.4814-1.4312,11.3007-2.4058,14.8974-.2163.7891-.4331,1.5157-.6572,2.1885v.0078c-.5029,1.5244-1.0059,2.7695-1.501,3.7901.9825-.9043,1.8799-1.9258,2.7076-3.0625.5415-.7432,1.0517-1.5313,1.5239-2.3672,5.6386-9.8233,6.853-25.5489,5.4839-40.67Z"/>
        <path class="cls-37" d="m1108.3161,746.6403c.1128.0507-10.8447,5.7402-19.0864,3.4853-7.7529-2.1133-12.8183-12.166-12.7114-12.1885,3.2832-.6523,4.2295-5.164,4.1602-24.5517l1.4843.293,24.9561,4.9414s-.5679,7.8545-.5845,15.2529c-.0171,6.2119.3594,12.1045,1.7817,12.7676Z"/>
        <path class="cls-10" d="m1080.0945,664.1959s12.311-13.1064,27.7671-.6709c0,0-8.9952-1.5556-27.7671.6709Z"/>
        <path class="cls-29" d="m1107.1189,718.6198s-.5679,7.8545-.5845,15.2529c-13.9653-.3936-21.3472-13.1328-24.3716-20.1943l24.9561,4.9414Z"/>
        <path class="cls-43" d="m1079.5852,710.9616s-7.3184-11.5635-9.0747-21.4512c-1.2544-7.0596,2.3408-33.2256,28.6357-29.457,0,0,7.6372.7519,14.8155,5.6005,5.7089,3.8555,13.9482,12.1807,4.7358,35.0137l-2.3931,7.7129-36.7192,2.5811Z"/>
        <path class="cls-46" d="m1206.5876,1170.9157l-13.229.4052-14.3193.4385s-33.0737-36.8242-51.6265-95.8555c-.4331-1.372-.8886-2.7607-1.372-4.166-10.1534-29.6054-31.2022-66.7676-42.2945-100.4033-1.7651-5.3584-3.3506-10.4014-4.7729-15.1738-.4556-1.5293-.8994-3.0303-1.3213-4.5098-8.1743-28.4023-10.541-47.0498-12.7227-66.9746l80.0967.6406s12.9307,136.0528,61.5615,285.5987Z"/>
        <path class="cls-38" d="m1133.8132,839.2926c-.2021,38.1152,5.5908,54.4678,5.5908,54.4678,0,0-34.2939,17.4238-75.0537,4.5976-.48-.1503-33.749-7.7431-33.749-7.7431.6826-1.543,6.7485-27.2295,7.4131-28.6455,8.6055-18.4795,15.1396-26.583,16.1606-32.2647,1.8931-10.6064,1.9346-21.581.9908-31.9326-2.4864-27.4004-9.8833-50.1475-9.8833-50.1475,11.1059-2.5263,21.7861-6.8369,33.3452-11.1718,2.6587,3.3115,10.5068,6.6455,17.5576,6.4873,8.1186-.1787,10.7519-3.6543,10.3301-7.4492,8.6523,4.8144,15.5561,9.3623,15.5561,9.3623,7.353,12.7724,22.2671,25.1767,23.3472,44.7705.2666,4.8183-11.5996,48.6015-11.6055,49.6689Z"/>
        <path class="cls-37" d="m1111.7825,725.6256s-33.0411.5449-33.064-20.0361c-.0225-20.582-4.3023-34.3731,16.7925-35.5908,21.0952-1.2188,25.2026,6.6308,26.8808,13.499,1.6787,6.8672-2.0151,41.456-10.6093,42.1279Z"/>
        <path class="cls-43" d="m1110.5598,669.4948s-9.0469,24.1455-22.9302,27.7158c-13.8838,3.5703-19.9062-.1494-19.9062-.1494,0,0,10.6494-8.46,12.8593-23.2276,0,0,23.1529-15.832,29.9771-4.3388Z"/>
        <path class="cls-43" d="m1108.3176,671.4547s6.7559,5.3906,8.4033,10.6319c1.647,5.2412,2.3877,16.0302,5.5327,15.663,0,0,6.8155-16.4121-.8442-25.6962-8.1221-9.8448-13.0918-.5987-13.0918-.5987Z"/>
        <path class="cls-37" d="m1069.7868,1191.6246s1.0894,7.5313-1.7216,15.5889c0,0-2.2139,10.085,7.7182,10.2715,9.9322.1875,12.3687-.749,11.2442-6.9336-1.1245-6.1836-3.2637-16.8789-3.2637-16.8789l-13.9771-2.0479Z"/>
        <path class="cls-21" d="m1088.3401,1223.4743h-21.7544c-.8897-4.4708,1.0791-14.0147,1.4038-15.8477.0229-.1387.0464-.2393.062-.3096.0078-.0693.0151-.0996.0151-.0996,11.2388,10.3028,18.2779-.2637,18.2779-.2637.0078.0157.0156.0313.0234.0547,1.6475,4.0371,1.9951,14.8887,1.9722,16.4659Z"/>
        <path class="cls-37" d="m1234.5964,1211.5612s-18.311-20.3243-23.9331-30.666l-13.6162,6.9755,30.437,28.584,7.1211-.9365-.0088-3.957Z"/>
        <path class="cls-21" d="m1246.2287,1223.4743h-23.0371c-3.3935,0-6.102-5.6221-9.7563-12.9307-1.4951-2.9902-4.8516-4.6377-8.2925-5.543l.0903,18.4737h-5.3169l-4.893-19.5362c-3.2437-5.959-.2588-11.3623,2.0239-16.0674,2.6538-.0058,9.7935,1.8096,23.3203,17.0508,4.4468,5.0039,9.355,6.792,14.229,6.6397.0674.0449.1348.0791.2027.1074,11.2436,5.0596,11.4296,11.8057,11.4296,11.8057Z"/>
        <path class="cls-41" d="m1193.3586,1171.3209l-14.3193.4385s-33.0737-36.8242-51.6265-95.8555c-.4331-1.372-.8886-2.7607-1.372-4.166-10.1534-29.6054-31.2022-66.7676-42.2945-100.4033-1.7651-5.3584-3.3506-10.4014-4.7729-15.1738-.4556-1.5293-.8994-3.0303-1.3213-4.5098l11.7949-8.9492s35.4131,57.3437,46.376,111.3096c9.5239,46.8769,47.6636,103.2822,57.5356,117.3095Z"/>
        <path class="cls-46" d="m1090.6785,1059.0377c.2021,26.2432-1.1246,86.5791-4.543,111.5576h-12.6831c-7.0108,0-10.5073-.1015-10.5073-.1015-8.5738-43.4297-14.6739-79.3662-19.1153-110.332-3.6426-25.4112-6.8808-47.1963-9.3716-65.9512-2.5073-18.874-4.2505-34.6768-4.8745-48.0293-.0957-2.1026-.1684-4.1494-.208-6.1338-.039-1.9961-.0503-3.9356-.0337-5.8184l69.2075-6.7461c-.872,45.9815-7.9834,116.3018-7.871,131.5547Z"/>
        <path class="cls-41" d="m1073.4524,1170.5953c-7.0108,0-10.5073-.1015-10.5073-.1015-8.5738-43.4297-14.6739-79.3662-19.1153-110.332-3.6426-25.4112-6.8808-47.1963-9.3716-65.9512-2.5073-18.874-4.2505-34.6768-4.8745-48.0293l25.395,14.9375s-16.2085,5.7178-10.0244,49.0068c6.1841,43.2901,19.8911,154.3418,28.4981,160.4697Z"/>
        <path class="cls-16" d="m1076.7204,945.7545s-4.874,17.6143-21.7402,15.3653c-16.8662-2.2491-40.8496-12.3682-40.8496-12.3682,0,0,7.2075-22.7744,16.1689-52.6953,10.8506-36.2227,13.5513-87.1319,19.8814-116.586,1.7768-8.2529,13.7212-10.9326,14.1714-15.8681l14.2754-27.1494s20.581,46.8261,21.7055,58.6318c1.1245,11.8066-23.6128,150.6699-23.6128,150.6699Z"/>
        <path class="cls-18" d="m1064.9294,829.8532c-.7529,19.1142-7.4414,51.7177-34.3095,66.0517-.104.0557-.2134.1065-.3204.1514,10.8506-36.2227,10.711-70.9756,17.0411-100.4297,14.4428-3.0068,17.9995,23.7021,17.5888,34.2266Z"/>
        <g>
          <path class="cls-21" d="m1239.4338,818.4215h-25.9043c-.0151.1231-.0385.6182-.0771,1.3145-.1006,2.3437-.2632,6.9463-.232,7.3711.3633,5.4922,4.1846,8.5244,7.8819,9.9707h.0078c.0229.0156.0308.0234.0537.0312.874.3399,1.7485.5879,2.5605.7656.6192.1319,1.2144.2237,1.7481.2706.3633.039.6963.0546,1.0059.0546,1.8945,0,3.6894-.4101,5.3134-1.1377,4.5557-2.0419,7.7505-6.6289,7.7505-11.9189v-5.0898c0-.5489-.0386-1.0909-.1084-1.6319Z"/>
          <path class="cls-10" d="m1237.3147,818.4215h-3.5117c.0698.5332.1084,1.083.1084,1.6319v5.0898c0,3.542-1.4312,6.7676-3.7437,9.1348-1.145,1.1601-2.5063,2.1113-4.0146,2.7841-.7735.3487-1.586.6192-2.4288.8125-.3632.085-.7348.1465-1.1137.2012.5722.085,1.1601.124,1.7558.124.3711,0,.7427-.0156,1.106-.0546,1.4853-.1163,2.9004-.4952,4.2002-1.0831,2.4287-1.0908,4.4707-2.9082,5.8476-5.1669l.0079-.0079c.541-.8974.9897-1.8711,1.3066-2.9004.3794-1.2138.5801-2.5058.5801-3.8437v-5.0898c0-.5489-.0303-1.0987-.1001-1.6319Z"/>
          <rect class="cls-21" x="1221.1604" y="837.0602" width="10.6597" height="1.5957" transform="translate(2452.9804 1675.716) rotate(180)"/>
        </g>
        <path class="cls-16" d="m1202.0432,823.817s-37.1274,12.376-41.7681,11.3448c-4.6416-1.0313-11.269-51.3399-14.852-68.5831-4.6148-22.206-22.2114-26.621-22.2114-26.621l-16.6963-4.4668s19.1167,47.2255,19.6787,56.7832c.5625,9.5576,2.249,156.2919,2.249,156.2919,0,0-1.1245,6.7461,11.8062,3.9356,12.9306-2.8115,16.3042-5.6221,16.3042-5.6221,0,0-5.6055-41.0195-8.2398-77.4355,13.1743-2.252,55.5342-23.7197,55.5342-23.7197,6.5747-10.3213-1.8047-21.9073-1.8047-21.9073Z"/>
        <path class="cls-37" d="m1035.0061,873.5748s14.6103-2.5781,18.2197,1.0313c3.6099,3.6094,8.5943,18.9072,4.4693,19.7666-4.1255.8594-13.751-9.626-16.1573-8.7666-2.4062.8594-6.7612,2.1777-7.7925-.1143-1.0312-2.292-8.2504-9.0527-8.2504-9.0527l9.5112-2.8643Z"/>
        <path class="cls-37" d="m1045.6628,869.7926s-8.938,3.8965-10.6567,3.7822c-1.7193-.1152,3.7812,3.4375,3.7812,3.4375l2.7505-2.6357s4.9273-1.4893,4.125-4.584Z"/>
        <path class="cls-16" d="m1078.6277,736.4528s-32.4834,1.4287-40.2984,8.6865c-7.8149,7.2588-54.6113,63.3369-55.3847,78.0332-.7735,14.6963,40.9951,56.4648,40.9951,56.4648,0,0,11.602-2.7939,16.6299-10.0986,0,0-25.9117-46.2021-24.3648-48.2178,1.5469-2.0156,45.4424-37.9834,49.0391-30.0058,3.1006,6.8769,13.3838-54.8623,13.3838-54.8623Z"/>
      </g>
      <g>
        <g>
          <path class="cls-14" d="m1065.7742,962.4635l-7.3819,41.832v.0049l-20.3887,115.5508-18.229,103.2969c-.2739,1.5644-1.6684,2.7099-3.2988,2.7099-1.437,0-2.5473-1.2285-2.3584-2.6132l15.7193-117.1016,16.811-125.2568,2.5376-18.8965,16.5889.4736Z"/>
          <path class="cls-13" d="m1058.3923,1004.2955c.9688-17.9765-11.7446-23.4091-11.7446-23.4091l2.5376-18.8965,16.5889.4736-7.3819,41.832Z"/>
        </g>
        <g>
          <path class="cls-14" d="m1635.0466,1225.858c-1.6308,0-3.0244-1.1455-3.3037-2.7099l-16.1914-91.7783-23.291-131.9961-6.5127-36.9102,16.5889-.4736,2.8779,21.4267,20.2099,150.5752,11.9805,89.253c.1846,1.3847-.9219,2.6132-2.3584,2.6132Z"/>
          <path class="cls-13" d="m1605.2146,983.4166c-10.7471,4.7422-12.9541,15.9571-12.9541,15.9571l-6.5127-36.9102,16.5889-.4736,2.8779,21.4267Z"/>
        </g>
        <path class="cls-15" d="m981.4567,947.9713h653.1982c6.8936,0,12.4903,5.5967,12.4903,12.4903v4.0018c0,6.8936-5.5967,12.4903-12.4903,12.4903h-653.1972c-6.8941,0-12.4912-5.5971-12.4912-12.4912v-4.001c0-6.8935,5.5967-12.4902,12.4902-12.4902Z"/>
      </g>
      <g>
        <path class="cls-16" d="m2098.3288,1149.5358c-6.3867,23.084-53.5771,36.6709-105.1972,44.6406h-192.6299c-46.4316-21.9854-46.3652-48.2021-50.0918-120.5977-7.6943-149.5283,73.6484-221.7158,109.9238-209.7998,1.5059.4952,3.0449,1.0332,4.6055,1.6485,10.542,4.1006,22.3476,11.3447,33.834,28.5801,0,0,36.0556,58.1064,65.7236,92.7646,9.5527,11.1572,18.4453,19.8965,25.25,23.4688.0762.0439.1533.0878.2412.121.3623.1866.7149.3516,1.0664.5059,15.7188,6.958,37.8799,21.5449,58.1162,39.9463h.0108c31.3838,28.5244,58.1494,66.1846,49.1474,98.7217Z"/>
        <path class="cls-18" d="m2049.1706,1050.8141c-27.0078,8.0244-166.0175,46.8271-198.7304,5.6826-23.6875-29.7969-8.9385-106.1308,4.1445-155.5224,5.3613-20.2432,32.1328-24.8409,43.8438-7.4805.1152.1699.2304.3418.3447.5137,0,0,36.0556,58.1064,65.7236,92.7646,8.585,10.9482,17.0488,19.3906,25.25,23.4688.0762.0439.1533.0878.2412.121.3516.1866.7149.3516,1.0664.5059,15.7188,6.958,37.8799,21.5449,58.1162,39.9463Z"/>
        <g>
          <path class="cls-7" d="m1973.5769,912.7077s7.8965,11.6855,12.4004,36.2529c3.9453,21.5156,7.4043,29.459,13.1015,33.8711,5.6963,4.4121,37.4356,17.4394,37.4356,17.4394l-2.3731,5.5596s-46.5214-6.3359-51.747-14.1113c-5.2256-7.7754-25.1475-53.7129-23.6016-64.293,1.5469-10.5801,14.7842-14.7187,14.7842-14.7187Z"/>
          <g>
            <path class="cls-37" d="m2087.4968,1169.3444c-.418,4.5371,5.8984,5.6406,13.2149,6.0049,7.3154.3642,5.1044,1.8632,15.1298,3.6787,10.0264,1.8164,14.044-.9278,14.7696-2.2823.6465-1.2021-4.0147-3.082-8.9825-5.206-.625-.2647-1.2509-.5391-1.8769-.8125-5.5908-2.458-8.7275-7.4717-13.0869-12.1211-4.1289-4.4033-8.0488-18.502-8.0488-18.502l-13.625-2.9091s3.8261,12.6894,5.1542,18.1064c.7813,3.1855-.371,6.748-1.3945,9.459-.5508,1.4756-1.1084,2.9853-1.2539,4.584Z"/>
            <path class="cls-20" d="m2100.7117,1175.3493c7.3154.3642,5.1044,1.8632,15.1298,3.6787,10.0264,1.8164,14.044-.9278,14.7696-2.2823.6465-1.2021-4.0147-3.082-8.9825-5.206l-.0771.0849s-7.0498,2.3936-15.1865.1807c-6.6319-1.8008-13.0449-5.7637-17.6143-7.0449-.5508,1.4756-1.1084,2.9853-1.2539,4.584-.418,4.5371,5.8984,5.6406,13.2149,6.0049Z"/>
          </g>
          <path class="cls-43" d="m1951.8259,1007.7838s90.5332-6.8135,107.5772,3.9434c17.0449,10.7568,44.3798,136.0508,44.3798,136.0508,0,0-1.6875,1.3525-5.455,1.7597-3.5049.3799-11.2227-1.6806-11.2227-1.6806,0,0-39.2842-56.0606-42.0517-70.1846-2.7667-14.1231-2.0918-26.7246-8.3926-27.0625s-84.8477,9.5488-96.7285-11.3818c-11.8809-20.9307-2.0586-41.6514-2.0586-41.6514l13.9521,10.207Z"/>
          <g>
            <path class="cls-37" d="m2052.8542,1183.8854c-.4179,4.5381,5.8985,5.6406,13.2149,6.0058,7.3154.3643,5.1045,1.8623,15.1308,3.6778,10.0254,1.8164,14.043-.9278,14.7686-2.2822.6465-1.2012-4.0147-3.0811-8.9824-5.2061-.625-.2647-1.251-.5381-1.877-.8125-5.5908-2.458-8.7275-7.4717-13.0869-12.1211-4.1289-4.4023-8.0488-18.501-8.0488-18.501l-13.6241-2.9092s3.8252,12.6885,5.1534,18.1055c.7812,3.1865-.3711,6.7481-1.3946,9.46-.5507,1.4746-1.1074,2.9853-1.2539,4.583Z"/>
            <path class="cls-20" d="m2066.0691,1189.8912c7.3154.3643,5.1045,1.8623,15.1308,3.6778,10.0254,1.8164,14.043-.9278,14.7686-2.2822.6465-1.2012-4.0147-3.0811-8.9824-5.2061l-.0772.085s-7.0498,2.3935-15.1865.1816c-6.6318-1.8008-13.0449-5.7646-17.6143-7.0449-.5507,1.4746-1.1074,2.9853-1.2539,4.583-.4179,4.5381,5.8985,5.6406,13.2149,6.0058Z"/>
          </g>
          <path class="cls-5" d="m1934.0935,1013.3942s80.4248,3.8066,97.0371,15.2187,39.0508,137.6748,39.0508,137.6748c0,0-1.7393,1.2862-5.5196,1.5469-3.5166.2422-11.1484-2.1162-11.1484-2.1162,0,0-37.0732-57.5479-39.2881-71.7686-2.2158-14.2197-1.0498-26.7861-7.333-27.3691-6.2832-.582-85.1553,6.2393-96.2119-15.1377-11.0576-21.3779,23.4131-38.0488,23.4131-38.0488Z"/>
          <path class="cls-27" d="m1962.7517,836.4157c-3.5684-2.3565-7.999-2.8819-11.1201-2.9063.8554-.7725,2.4511-.9687,2.4511-.9687-1.9091-.4151-6.3408,1.2099-6.3408,1.2099-26.1308-12.1221-32.9795,27.0869-33.0263,36.2988-.0528,9.211-.6885,19.7764-14.626,27.1114-27.4219,14.4336-7.0791,44.1797-7.0791,44.1797.1982.1357,10.8857,21.3759,10.8857,21.3759-.1826-7.4589,36.6338-44.3037,55.2617-54.831,4.7706-6.1065,7.0684-17.3027,7.2432-18.1836-1.3467,8.9082-3.2148,13.832-4.7725,16.5703,16.0391-12.9023,10.5831-63.6143,1.1231-69.8564Z"/>
          <path class="cls-37" d="m1958.6911,902.5084c-.4599-.1924-.9921-.3955-1.5537-.6006.0303-1.1884.0957-2.4599.1856-3.749.4053-5.8779,1.2724-12.0879,1.2724-12.0879l-19.5673-5.249-1.1641-.3115c-.5439,8.624-2.2969,14.5322-3.8359,18.5234-2.0254.0918-3.3145.2129-3.3145.2129-.3291,1.1738,8.3145,19.0547,19.7315,19.5176,3.7392.1514,13.9677-13.8643,8.246-16.2559Z"/>
          <path class="cls-7" d="m1958.5954,886.0709s-.8671,6.21-1.2724,12.0879c-11.0762-1.0527-16.2656-11.5664-18.2949-17.3369l19.5673,5.249Z"/>
          <path class="cls-27" d="m1937.1238,878.526s-5.2032-9.5752-6.0743-17.5254c-.623-5.6758,3.6202-26.2763,24.3135-21.8887,0,0,6.0283,1.002,11.4756,5.2354,4.332,3.3662,10.4375,10.417,1.9082,28.0713l-2.3096,6.0029-29.3134.1045Z"/>
          <path class="cls-37" d="m1961.9304,891.8844s-26.2832-1.3174-25.2109-17.6728c1.0722-16.3545-1.5977-27.5391,15.2285-27.3897s19.6738,6.6035,20.6445,12.1494c.9697,5.5469-3.7978,32.834-10.6621,32.9131Z"/>
          <path class="cls-27" d="m1963.9324,847.2184s-8.4678,18.707-19.6885,20.8076c-11.2207,2.1016-15.8086-1.1728-15.8086-1.1728,0,0,8.9092-6.1582,11.4482-17.7754,0,0,19.2354-11.3526,24.0489-1.8594Z"/>
          <path class="cls-27" d="m1962.0466,848.6569s5.083,4.6416,6.1143,8.8935c1.0312,4.251,1.0478,12.8633,3.5664,12.7393,0,0,6.2851-12.6797.6904-20.4629-5.9326-8.2529-10.3711-1.1699-10.3711-1.1699Z"/>
          <path class="cls-5" d="m1988.2283,1009.15c-2.127,2.544-8.7686,3.3243-15.8663,4.4922-5.5849.9219-11.4521,2.0781-15.624,4.5283-9.4746,5.5635-40.4297,24.3633-49.5019,23.5079-3.5176-.3311-2.8594-7.0469-.7295-15.9551,3.3545-14.0703,10.374-33.6104,10.374-42.1065,0-4.6367,1.5439-15.6093,3.6035-28.1552.167-1.0108.3389-2.0303.5088-3.0606,4.0762-24.3916,9.7207-53.1523,9.7207-53.1523,0,0,6.2949,13.7353,18.5615,13.7353s9.4151-10.4746,9.4151-10.4746c0,0,11.1914,1.3164,13.8359,4.1641,2.6465,2.8486,9.3506,15.1601,10.6816,18.5175,0,0,.2715,4.2725-10.3066,6.3067,0,0,2.5762,11.5967,2.8818,19.3271.2266,5.711-3.8964,23.586-5.083,34.7032-.4199,3.9375-.4765,7.0273.1631,8.4297.8184,1.7958,3.4658,3.5839,6.4776,5.3388,5.9795,3.4805,13.4121,6.8311,10.8877,9.8535Z"/>
          <path class="cls-43" d="m1977.3406,999.2965c6.79,11.5752-18.4131,15.0557-22.585,17.5059-9.4746,5.5625-38.4473,25.7314-47.5195,24.876-3.5176-.3311-2.8594-7.0469-.7295-15.9551,3.3545-14.0703,10.374-33.6104,10.374-42.1065,0-4.6367,1.5439-15.6093,3.6035-28.1552l10.9209-10.4854s11.7012,30.2451,22.8565,35.2012c5.8447,2.5957,11.9502,4.3095,16.4384,5.3506-.4199,3.9375-.4765,7.0273.1631,8.4297.8184,1.7958,3.4658,3.5839,6.4776,5.3388Z"/>
          <path class="cls-37" d="m1927.3572,908.3014s-9.337-5.6709-18.3653,5.0859c-9.0283,10.7569,6.417,87.6504,19.794,91.6006,14.8584,4.3877,57.7822-.7021,57.7822-.7021l-.8262-6.709s-45.6963-8.7608-47.5947-11.2022c-1.8984-2.4414-6.043-76.833-10.79-78.0732Z"/>
          <path class="cls-5" d="m1930.7136,899.2467s-19.1758,1.7295-24.7441,8.0371c-5.5694,6.3067-7.1973,23.3975-7.1973,23.3975,0,0,16.8867,13.6318,37.2324,8.3418l-5.291-39.7764Z"/>
          <g>
            <rect class="cls-24" x="1991.0515" y="1007.8795" width="25.3281" height="2.9922"/>
            <path class="cls-24" d="m2011.0007,1010.4625c.2471-.9912,23.2832-37.1631,23.2832-37.1631h51.2559l-25.709,36.1915-48.8301.9716Z"/>
            <path class="cls-27" d="m2013.157,1010.8717c.247-.9902,23.3574-37.5723,23.3574-37.5723h49.0254l-24.459,37.5723h-47.9238Z"/>
            <path class="cls-24" d="m2056.3738,992.2077c-.5039,1.4648-2.1016,2.6533-3.5674,2.6533s-2.2451-1.1885-1.7403-2.6533c.5049-1.4659,2.1026-2.6543,3.5684-2.6543s2.2441,1.1884,1.7393,2.6543Z"/>
          </g>
          <path class="cls-37" d="m1982.0134,997.1784s14.8779-2.879,16.5576-2.1592c1.6797.7197,11.0391,9.1191,10.0791,10.7988-.9599,1.6797-4.7998,2.8799-9.1191,1.4395-4.3193-1.4395-13.6787-2.1592-15.3584-4.3194-1.6797-2.1601-2.1592-5.7597-2.1592-5.7597Z"/>
        </g>
      </g>
      <g>
        <g>
          <g>
            <path class="cls-36" d="m315.7517,1068.2926c-.9053-21.9531-2.856-41.0488-5.1909-54.3662-3.7222-21.2295-7.0728-33.4424-7.1114-33.5723-.4902-1.8672-7.5732-9.4209-23.3208-9.1875-15.748.2325-14.2543,10.1397-14.2543,10.1397h0c-.0015.3349.0434.6474.1127.8799.1519.5107,14.6075,52.2099,13.9815,118.9619-.0088.9365-.1157,2.5576-.0484,3.6357.0005.0049,36.4937.9287,36.5025,0,1.2725-5.834.6518-21.999-.6709-36.4912Z"/>
            <path class="cls-47" d="m320.3401,1100.819c-.0113.9297-.5088,1.6748-1.1158,1.6748h-.0146c-.6069-.0137-1.0903-.7588-1.0977-1.6748h-31.2744c-.0107.9297-.5088,1.6748-1.1157,1.6748h-.0146c-.6177-.0137-1.1084-.7832-1.1011-1.7236.1816-19.1084-.9229-36.9512-2.5947-52.6993-4.1573-39.2715-11.8433-65.5195-11.9522-65.8838-.0693-.2343-.1128-.5449-.1128-.8808,0,0-1.4936-9.9053,14.2529-10.1397,15.75-.2343,22.8326,7.3213,23.3233,9.1885.0288.0977,1.9258,7.0137,4.4477,19.4473.836,4.1191,1.7373,8.8428,2.6641,14.122,2.333,13.3184,4.2847,32.4161,5.1895,54.3672,1.3227,14.4922,1.788,26.6953.5161,32.5274Z"/>
            <path class="cls-30" d="m320.3401,1100.819c-.0113.9297-.5088,1.6748-1.1158,1.6748h-.0146c-.6069-.0137-1.0903-.7588-1.0977-1.6748h-31.2744c-.0107.9297-.5088,1.6748-1.1157,1.6748h-.0146c-.6177-.0137-1.1084-.7832-1.1011-1.7236.1816-19.1084-.9229-36.9512-2.5947-52.6993,5.1713-24.9228,25.1552-43.9853,29.9589-48.2685.836,4.1191,1.7373,8.8428,2.6641,14.122,2.333,13.3184,4.2847,32.4161,5.1895,54.3672,1.3227,14.4922,1.788,26.6953.5161,32.5274Z"/>
            <path class="cls-36" d="m288.738,1100.4772l-.1094-.1016-.0034-.0957c-.0009-.0273-.0009-.0556,0-.082-.0107-.584-.8672-39.9404-3.0874-58.709-1.3213-11.167-9.416-57.7744-9.4658-57.9746-.0591-.1973-.0913-.4483-.0903-.7022-.0127-.0703-.3379-2.3857,1.4428-4.4863,1.7613-2.0771,4.8999-3.164,9.3296-3.2285.1792-.0029.3555-.0049.5323-.0049,11.3618,0,16.5922,5.4922,16.9795,6.9678.083.2783,9.06,36.2734,10.6167,56.5967.1445,1.8847.4648,5.0898.8706,9.1474,2.3852,23.8526,4.6494,49.3496,1.2934,49.9297-5.2265.9043-10.4639,1.0205-14.4424,1.0205-1.331,0-2.6045-.0146-3.8027-.0283-1.0635-.0117-2.0669-.0225-2.9985-.0225-4.1787,0-6.7774.25-6.8213,1.4961.0005.0186.0005.0381,0,.0586l-.0005.0098c-.0044.0957-.0313.1992-.1685.2051l-.0747.0039Zm-1.4516-125.0283c-.1748,0-.3496.0019-.5274.0039-4.3218.0644-7.3711,1.1084-9.0625,3.1035-1.6772,1.9785-1.3638,4.208-1.3603,4.2305.0009.2441.0288.4638.0786.6298.0429.1455,8.1235,46.5899,9.477,58.0313,2.0503,17.3301,2.938,52.1914,3.0718,57.9394.8306-.8545,3.1699-1.04,6.8394-1.04.9326,0,1.938.0107,3.0024.0225,1.1973.0136,2.4692.0283,3.7988.0283h.001c3.9639,0,9.1812-.1162,14.3809-1.0156,3.3095-.5723.0019-33.6475-1.5879-49.543-.4058-4.0596-.7266-7.2656-.8711-9.1553-1.5586-20.3476-10.5176-56.2021-10.6055-56.5322-.373-1.4209-5.4795-6.7031-16.6352-6.7031Z"/>
            <path class="cls-47" d="m282.2951,1102.4948h122.6133s-2.8554-11.3975-73.8652-9.7002c-50.252,1.2011-48.7481,9.7002-48.7481,9.7002Z"/>
            <path class="cls-36" d="m272.3147,1221.5416c14.2168-70.9882,10.561-114.5498,10.5434-115.0986-.0361-1.0928,2.0064-2.085,3.105-2.1201,1.1123-.0195,6.0191-.3233,6.5869.6123.7437,1.2256,3.6065,54.8955-17.5815,116.6064h-2.6538Z"/>
            <path class="cls-36" d="m386.7976,1221.5416c-14.2168-70.9882-10.561-114.5498-10.543-115.0986.0362-1.0928-2.0063-2.085-3.105-2.1201-1.1123-.0195-6.019-.3233-6.5869.6123-.7441,1.2256-3.6069,54.8955,17.5811,116.6064h2.6538Z"/>
            <path class="cls-13" d="m409.4856,1221.5416c-14.2168-70.9882-10.5611-114.5498-10.543-115.0986.0357-1.0928-2.0068-2.085-3.105-2.1201-1.1123-.0195-6.0195-.3233-6.5869.6123-.7441,1.2256-3.6069,54.8955,17.5811,116.6064h2.6538Z"/>
            <path class="cls-13" d="m295.1555,1221.5416c14.2168-70.9882,10.561-114.5498,10.543-115.0986-.0357-1.0928,2.0063-2.085,3.105-2.1201,1.1123-.0195,6.019-.3233,6.5869.6123.7441,1.2256,3.6069,54.8955-17.5811,116.6064h-2.6538Z"/>
            <path class="cls-36" d="m282.3499,1099.5494h122.6484c1.3768,0,2.4946,1.1178,2.4946,2.4946v1.5943c0,1.3766-1.1176,2.4942-2.4942,2.4942h-122.6484c-1.3768,0-2.4946-1.1178-2.4946-2.4946v-1.5943c0-1.3766,1.1176-2.4942,2.4942-2.4942Z"/>
          </g>
          <g>
            <path class="cls-37" d="m379.7019,1024.9733s22.415,25.6015,27.0019,25.1836c4.688-.4268,7.5474-1.9034,11.626,0,2.9307,1.3681,12.1968,8.8203,9.709,8.3271-2.4883-.4941-6.9883-1.0713-8.1768-1.1846-1.6357-.1552-4.2627-.1914-6.0449-.5009-1.1279-.1963-5.1992-.3106-6.5571-.3555-5.8994-.1943-33.8023-16.4951-33.8023-16.4951l6.2442-14.9746Z"/>
            <path class="cls-11" d="m364.1496,894.9713s-1.0136-12.8584-19.5087-9.5195c-4.8897.8828-8.2505-7.8359-16.2549-4.7295-17.2354,6.6904-18.2491-2.1426-23.2305,10.2539-2.085,5.1895-15.3442,11.2305-11.2949,20.1982,4.0498,8.9678-2.7261,14.9991,2.0337,22.0254,2.4633,3.6368,1.4624,10.1368,13.084,10.3682,5.788.1162,14.8032,10.8408,21.2988,12.7881,6.4956,1.9482,26.0005-.8613,25.2651-9.7734-.5732-6.9532,7.5357-6.3741,12.5171-14.3672,4.3535-6.9864-3.415-8.7461.7393-20.0411,3.0449-8.2783-4.8872-10.2949-4.649-17.2031Z"/>
            <g>
              <path class="cls-37" d="m465.821,1211.2955c-.3965,4.3008,5.5913,5.3477,12.5269,5.6924,6.935.3457,4.8393,1.7656,14.3432,3.4873,9.5044,1.7217,13.313-.8789,14.001-2.164.6128-1.1387-3.8056-2.9209-8.5151-4.9346-.5928-.251-1.186-.5107-1.7793-.7705-5.3003-2.3301-8.2739-7.083-12.4058-11.4902-3.914-4.1739-7.6303-17.5391-7.6303-17.5391l-12.9156-2.7578s3.6265,12.0283,4.8853,17.164c.7407,3.0196-.3521,6.3975-1.3218,8.9668-.5225,1.3985-1.0503,2.8301-1.1885,4.3457Z"/>
              <path class="cls-20" d="m478.3479,1216.9879c6.935.3457,4.8393,1.7656,14.3432,3.4873,9.5044,1.7217,13.313-.8789,14.001-2.164.6128-1.1387-3.8056-2.9209-8.5151-4.9346l-.0733.0801s-6.6831,2.2695-14.3964.1718c-6.2872-1.707-12.3663-5.4638-16.6978-6.6787-.5225,1.3985-1.0503,2.8301-1.1885,4.3457-.3965,4.3008,5.5913,5.3477,12.5269,5.6924Z"/>
            </g>
            <path class="cls-43" d="m337.2077,1058.1393s85.8238-6.459,101.9815,3.7383c16.1572,10.1972,42.0703,128.9736,42.0703,128.9736,0,0-1.5991,1.2813-5.1714,1.668-3.3218.3603-10.6382-1.5928-10.6382-1.5928,0,0-37.2412-53.1445-39.8642-66.5332-2.6231-13.3887-1.9829-25.335-7.9561-25.6553-5.9731-.3203-80.4336,9.0518-91.6963-10.79s-1.9521-39.4834-1.9521-39.4834l13.2265,9.6748Z"/>
            <g>
              <path class="cls-37" d="m436.2912,1211.7789c-.3964,4.3018,5.5914,5.3467,12.5269,5.6924,6.9351.3457,4.8394,1.7656,14.3433,3.4873,9.5044,1.7217,13.3129-.8789,14.0009-2.1631.6128-1.1396-3.8061-2.9218-8.5151-4.9355-.5928-.251-1.186-.5107-1.7793-.7695-5.3003-2.3311-8.2739-7.084-12.4062-11.4912-3.9136-4.1739-7.6299-17.5391-7.6299-17.5391l-12.9156-2.7578s3.6265,12.0283,4.8853,17.164c.7407,3.0205-.3521,6.3975-1.3218,8.9678-.5229,1.3985-1.0503,2.8291-1.1885,4.3447Z"/>
              <path class="cls-20" d="m448.8181,1217.4713c6.9351.3457,4.8394,1.7656,14.3433,3.4873,9.5044,1.7217,13.3129-.8789,14.0009-2.1631.6128-1.1396-3.8061-2.9218-8.5151-4.9355l-.0732.0801s-6.6831,2.2695-14.3965.1718c-6.2871-1.707-12.3667-5.4638-16.6978-6.6777-.5229,1.3985-1.0503,2.8291-1.1885,4.3447-.3964,4.3018,5.5914,5.3467,12.5269,5.6924Z"/>
            </g>
            <path class="cls-5" d="m323.7087,1050.1569s76.2407,3.6084,91.9893,14.4267c15.748,10.8184,37.0185,130.5137,37.0185,130.5137,0,0-1.6484,1.2178-5.2324,1.4658-3.3335.2295-10.5683-2.0068-10.5683-2.0068,0,0-35.1446-54.5537-37.2442-68.0342-2.1006-13.4805-.9956-25.3926-6.9516-25.9453-5.9561-.5527-80.7251,5.9141-91.2071-14.3506-10.4819-20.2656,22.1958-36.0693,22.1958-36.0693Z"/>
            <path class="cls-37" d="m300.8879,952.7457c.0279-.042.0625-.0771.0972-.1181.605-.6817,1.3276-1.3067,2.1269-1.8633l.0279-.0205h.0068c6.228-4.3516,17.356-5.2822,17.356-5.2822v.0068l.0005.001c.0004-.002.0009-.0049.0014-.0069,0,0,1.2163-.1152,3.1426-.2021,1.459-3.7832,3.1201-9.3848,3.6353-17.5586l1.1035.2949,18.5498,4.9756s-.8218,5.8877-1.2066,11.46c-.0844,1.2207-.1469,2.4248-.1762,3.5498.5371.1963,1.0346.3896,1.4731.5732h.0005v-.001s10.6069,1.251,13.1157,3.9483c2.5093,2.7031,7.5278,20.664,8.793,23.8476l-71.4185,1.168s-1.7934-18.6631,3.3711-24.7725Z"/>
            <path class="cls-6" d="m389.4866,1025.1207c-.418.461-1.5171,2.418-3.0669,4.7705-.462.7032-.9673,1.4395-1.5059,2.1875-2.2646,3.1436-5.1338,6.4082-8.1016,7.5625-1.1103.4395-2.2314.5713-3.3525.3077-1.6709-.4063-4.3423-2.2969-7.0352-4.8477-2.1875-2.0771-4.3862-4.5947-6.0566-7.0898-.6597-.9893-1.2314-1.9786-1.6929-2.9346-.0991.7578-.187,1.4834-.2641,2.1758v.0117c-.3955,3.7373-.4507,6.6504.1543,7.9912.7802,1.6924,3.2973,3.3857,6.1445,5.0566,5.6611,3.2979,12.7183,6.4737,10.3218,9.3428-2.0225,2.4082-8.3101,3.1445-15.0484,4.2549-5.2876.8682-10.8496,1.9668-14.8066,4.2979-.1543.0878-.3081.1757-.4727.2744-9.4975,5.5947-38.0009,22.8095-46.4541,22.0068-3.3305-.3184-2.7148-6.6836-.6923-15.1367,3.1767-13.334,9.8383-31.8555,9.8383-39.9024,0-4.3964-9.8711-47.9375-9.8711-47.9375,0,0-1.8027-18.6533,3.3633-24.7656l2.2315-1.9892.0219-.0108h.0113c.3296.1865,21.9189,12.3438,34.5161,13.0254,12.6958.6816,22.479-11.2676,22.479-11.2676,2.5063,2.7041,7.5298,20.666,8.7939,23.8428,0,0,10.2452,40.4297,12.8501,42.5186,2.6055,2.0888,8.959,4.8584,7.6949,6.2548Z"/>
            <path class="cls-7" d="m346.9358,932.9723s-.8223,5.8877-1.2066,11.46c-10.499-.9981-15.4199-10.9649-17.3432-16.4356l18.5498,4.9756Z"/>
            <path class="cls-37" d="m350.0969,938.484s-24.9155-1.249-23.8989-16.7529c1.0166-15.5049-1.5147-26.1074,14.436-25.9658,15.9512.1416,18.6509,6.2607,19.5703,11.5185.9195,5.2569-3.6001,31.125-10.1074,31.2002Z"/>
            <path class="cls-11" d="m351.1457,901.2848s-5.9546-1.3896-7.9004,1.5059c-1.9462,2.8964-.5561,4.5185-4.9003,5.7343-4.3438,1.2168-5.8208,1.1299-5.3868,4.1709.4346,3.041-4.3662,5.2998-4.5722,7.7325-.2061,2.4326-2.2046,3.6494-4.1158,3.8232-1.9116.1738-1.0429-31.3652,6.3423-32.7559,7.3853-1.3896,14.5098.2608,16.6817,1.9991,2.1718,1.7373,3.8515,7.79,3.8515,7.79Z"/>
            <path class="cls-11" d="m351.1457,901.2848s5.7925-.4053,6.835,2.8965c1.0425,3.3017-.3472,4.083,1.1294,6.082,1.477,1.9981.623,5.542.623,5.542,0,0,11.4541-21.0947-.623-22.4844-12.0767-1.3906-11.7583,1.0713-7.9644,7.9639Z"/>
            <path class="cls-4" d="m386.4197,1029.8912c-.462.7032-.9673,1.4395-1.5059,2.1875-2.2646,3.1436-5.1338,6.4082-8.1016,7.5625-1.1103.4395-2.2314.5713-3.3525.3077-1.6709-.4063-4.3423-2.2969-7.0352-4.8477-2.1875-2.0771-4.3862-4.5947-6.0566-7.0898-.6597-.9893-1.2314-1.9786-1.6929-2.9346-.0991.7578-.187,1.4834-.2641,2.1758v-3.5283s1.396-61.7657,3.5288-34.6036c1.561,19.8848,16.5654,34.417,24.48,40.7705Z"/>
            <path class="cls-4" d="m310.948,987.3785s-30.6084,52.7061,33.7524,71.1055c.169-.0957.3262-.1914.4781-.2812,3.9545-2.3233,9.5185-3.4209,14.8061-4.2979,6.7393-1.1035,13.0288-1.8457,15.0425-4.2529,2.3965-2.8692-4.6524-6.0479-10.3169-9.3447-2.8521-1.6641-8.8403-3.2784-9.6226-4.9717-.602-1.333-44.1396-47.9571-44.1396-47.9571Z"/>
          </g>
        </g>
        <g>
          <path class="cls-14" d="m270.3865,1046.0231l-4.9175,27.8652v.0029l-13.5816,76.9727-12.143,68.8086c-.1822,1.042-1.1109,1.8047-2.1973,1.8047-.957,0-1.6968-.8174-1.5708-1.7403l10.4707-78.0039,11.1982-83.4375,1.691-12.5878,11.0503.3154Z"/>
          <path class="cls-13" d="m265.469,1073.8883c.6455-11.9746-7.8238-15.5928-7.8238-15.5928l1.691-12.5878,11.0503.3154-4.9175,27.8652Z"/>
          <g>
            <path class="cls-14" d="m933.6755,1221.4772c-1.0864,0-2.0151-.7627-2.2012-1.8047l-10.7856-61.1357-15.5142-87.9268-4.3388-24.5869,11.0508-.3154,1.917,14.2724,13.4619,100.3027,7.9809,59.4541c.1226.9229-.6137,1.7403-1.5708,1.7403Z"/>
            <path class="cls-13" d="m913.8035,1059.9801c-7.1592,3.1592-8.629,10.6299-8.629,10.6299l-4.3388-24.5869,11.0508-.3154,1.917,14.2724Z"/>
          </g>
          <path class="cls-15" d="m944.1101,1055.6754H218.1658c-5.3091,0-9.6534-4.3437-9.6534-9.6533h0c0-5.3086,4.3443-9.6533,9.6534-9.6533h725.9443c5.3096,0,9.6533,4.3447,9.6533,9.6533h0c0,5.3096-4.3437,9.6533-9.6533,9.6533Z"/>
        </g>
        <g>
          <polygon class="cls-34" points="522.614 1007.1998 370.9612 1007.1998 385.0329 892.5924 536.6863 892.5924 522.614 1007.1998"/>
          <g>
            <polygon class="cls-16" points="539.8298 892.5963 525.7619 1007.1959 374.1052 1007.1959 377.3132 981.0729 388.1736 892.5963 539.8298 892.5963"/>
            <path class="cls-18" d="m539.8298,892.5963l-14.0679,114.5996h-151.6567l3.208-26.123c125.187,7.5469,129.2652-71.4834,128.6987-88.4766h33.8179Z"/>
            <path class="cls-34" d="m468.553,942.025c-.3662-3.6425-2.2725-7.2724-5.9063-7.7216l-6.3843.0507c-3.8427-.4746-7.2641,2.4522-7.3891,6.3223l-2.794,86.3799c-.0918,2.834-2.416,5.0849-5.2519,5.0849h-15.7403c-.9628,0-1.8618.6094-2.1113,1.5401-.3769,1.4062.6875,2.6875,2.0371,2.6875h49.3325c.0962,0,.188-.0156.2803-.0283l.5899.0048c1.5039.0127,2.6855-1.2832,2.5351-2.7793l-9.1977-91.541Z"/>
            <path class="cls-18" d="m472.0451,942.025c-.3657-3.6425-2.2724-7.2724-5.9057-7.7216l-6.3848.0507c-3.8428-.4746-7.2636,2.4522-7.3891,6.3223l-2.794,86.3799c-.0918,2.834-2.416,5.0849-5.2514,5.0849h-15.7403c-.9629,0-1.8623.6094-2.1113,1.5401-.3775,1.4062.6875,2.6875,2.0371,2.6875h49.3325c.0957,0,.1875-.0156.2803-.0283l.5893.0048c1.504.0127,2.6856-1.2832,2.5352-2.7793l-9.1978-91.541Z"/>
          </g>
        </g>
        <g>
          <g>
            <path class="cls-34" d="m643.0149,930.2623l-8.4097,99.9961s-.8813,6.0616,3.6274,6.0723c7.4136.0176,36.899,0,36.899,0,0,0-5.5796-1.2617-5.5122-4.1006.08-3.3467,9.8296-102.9141,9.8296-102.9141l-36.4341.9463Z"/>
            <path class="cls-16" d="m677.5237,1034.5162c-1.458.0049-29.6202.0928-36.8394,0-3.1465-.039-3.6982-2.7968-3.7241-4.582-.0132-.8555.0957-1.4883.0957-1.4883l.2183-2.5996.5576-6.624.4922-5.8525.6328-7.5205.5327-6.3477,5.9756-71.0537,36.4341-.9463s-4.106,41.6689-7.0108,72c-.3242,3.3789-.6328,6.6201-.918,9.6445-.0927.9658-.1806,1.9102-.2675,2.8291-.2696,2.8701-.5157,5.5049-.73,7.8321-.1128,1.2265-.2173,2.3662-.3111,3.4101-.371,4.0899-.5878,6.7022-.5908,7.1992-.0014.2891.023.5586.0708.8086.5982,3.1875,4.8345,3.291,5.3819,3.291Z"/>
            <polygon class="cls-16" points="554.5334 875.8483 575.0183 958.1334 577.823 969.402 587.364 1007.7272 764.6193 1007.7272 729.4533 875.8483 554.5334 875.8483"/>
            <polygon class="cls-34" points="554.5329 875.8483 551.6941 876.7946 583.5896 1010.5905 587.3645 1007.7282 554.5329 875.8483"/>
            <polygon class="cls-34" points="583.5896 1010.5905 759.754 1010.5905 764.6188 1007.7282 587.3645 1007.7282 583.5896 1010.5905"/>
            <rect class="cls-16" x="645.4534" y="1034.5563" width="38.142" height="1.8125" transform="translate(1329.0487 2070.925) rotate(180)"/>
            <polygon class="cls-12" points="756.0324 983.4264 727.2702 877.5924 554.2497 877.5924 554.2497 875.8483 729.4528 875.8483 758.1188 983.192 756.0324 983.4264"/>
            <polygon class="cls-34" points="673.8996 1010.5895 673.7029 1011.9752 637.8318 1019.2223 638.324 1013.3698 638.5588 1010.5895 673.8996 1010.5895"/>
            <path class="cls-18" d="m677.5237,1034.5162c-1.458.0049-29.6202.0928-36.8394,0-3.1465-.039-3.6982-2.7968-3.7241-4.582l35.7016-6.7168c-.371,4.0899-.5878,6.7022-.5908,7.1992-.0014.2891.023.5586.0708.8086.5982,3.1875,4.8345,3.291,5.3819,3.291Z"/>
            <polygon class="cls-34" points="665.2297 981.0299 587.3645 1007.7282 577.823 969.402 665.2297 981.0299"/>
            <polygon class="cls-44" points="554.5329 875.8483 729.4528 875.8483 757.8342 981.8375 580.0178 981.8375 554.5329 875.8483"/>
          </g>
          <path class="cls-18" d="m680.6911,995.236c-.5053-2.5987-3.0224-4.7061-5.6215-4.7061s-4.2969,2.1074-3.7915,4.7061c.5053,2.5996,3.0219,4.707,5.6211,4.707s4.2968-2.1074,3.7919-4.707Z"/>
          <polygon class="cls-19" points="749.5842 977.2448 585.8059 977.2448 567.2585 903.358 565.8367 897.691 564.6233 892.858 561.7785 881.526 723.1964 881.526 726.32 892.858 727.6525 897.691 729.2145 903.358 749.5842 977.2448"/>
          <polygon class="cls-2" points="726.32 892.858 564.6233 892.858 561.7785 881.526 723.1964 881.526 726.32 892.858"/>
          <g>
            <path class="cls-19" d="m568.4563,886.6471c-.1948-.7822.2812-1.416,1.0635-1.416s1.5747.6338,1.77,1.416c.1948.7822-.2813,1.417-1.0635,1.417s-1.5747-.6348-1.77-1.417Z"/>
            <path class="cls-19" d="m573.1633,886.6471c-.1948-.7822.2813-1.416,1.0635-1.416.7827,0,1.5747.6338,1.77,1.416s-.2812,1.417-1.0635,1.417-1.5747-.6348-1.77-1.417Z"/>
            <path class="cls-19" d="m578.2322,886.6471c-.1954-.7822.2807-1.416,1.0634-1.416.7823,0,1.5747.6338,1.7696,1.416.1953.7822-.2808,1.417-1.0635,1.417-.7822,0-1.5747-.6348-1.7695-1.417Z"/>
          </g>
          <g>
            <path class="cls-2" d="m608.1003,918.3239h-24.6953c-.7627,0-1.5425-.6241-1.7324-1.3868h0c-.1904-.7627.2783-1.3867,1.041-1.3867h24.6953c.7627,0,1.5425.624,1.7324,1.3867h0c.19.7627-.2783,1.3868-1.041,1.3868Z"/>
            <path class="cls-2" d="m609.4177,923.6061h-24.6958c-.7627,0-1.542-.624-1.7324-1.3867h0c-.19-.7627.2783-1.3867,1.041-1.3867h24.6958c.7622,0,1.542.624,1.7319,1.3867h0c.1905.7627-.2778,1.3867-1.0405,1.3867Z"/>
            <path class="cls-2" d="m610.7346,928.8883h-24.6958c-.7622,0-1.542-.624-1.7319-1.3867h0c-.1905-.7627.2778-1.3867,1.0405-1.3867h24.6958c.7627,0,1.542.624,1.7324,1.3867h0c.19.7627-.2783,1.3867-1.041,1.3867Z"/>
          </g>
          <g>
            <path class="cls-2" d="m652.2546,918.3239h-24.6958c-.7627,0-1.542-.6241-1.7324-1.3868h0c-.1899-.7627.2783-1.3867,1.041-1.3867h24.6958c.7627,0,1.542.624,1.7324,1.3867h0c.19.7627-.2783,1.3868-1.041,1.3868Z"/>
            <path class="cls-2" d="m653.5715,923.6061h-24.6958c-.7627,0-1.542-.624-1.7319-1.3867h0c-.1904-.7627.2778-1.3867,1.0405-1.3867h24.6958c.7627,0,1.542.624,1.7324,1.3867h0c.19.7627-.2783,1.3867-1.041,1.3867Z"/>
            <path class="cls-2" d="m654.8884,928.8883h-24.6953c-.7627,0-1.5425-.624-1.7324-1.3867h0c-.1905-.7627.2783-1.3867,1.041-1.3867h24.6953c.7627,0,1.5425.624,1.7324,1.3867h0c.1905.7627-.2783,1.3867-1.041,1.3867Z"/>
          </g>
          <g>
            <path class="cls-2" d="m694.7214,918.3239h-24.6953c-.7627,0-1.5425-.6241-1.7324-1.3868h0c-.1904-.7627.2783-1.3867,1.041-1.3867h24.6953c.7627,0,1.5425.624,1.7324,1.3867h0c.1905.7627-.2783,1.3868-1.041,1.3868Z"/>
            <path class="cls-2" d="m696.0388,923.6061h-24.6958c-.7627,0-1.542-.624-1.7324-1.3867h0c-.19-.7627.2783-1.3867,1.041-1.3867h24.6958c.7627,0,1.542.624,1.7324,1.3867h0c.19.7627-.2783,1.3867-1.041,1.3867Z"/>
            <path class="cls-2" d="m697.3557,928.8883h-24.6953c-.7627,0-1.5425-.624-1.7324-1.3867h0c-.1905-.7627.2783-1.3867,1.0405-1.3867h24.6958c.7627,0,1.542.624,1.7324,1.3867h0c.19.7627-.2783,1.3867-1.041,1.3867Z"/>
          </g>
          <g>
            <g>
              <g>
                <path class="cls-2" d="m717.57,900.4235l1.2167,4.8789c.2227.8955-.3266,1.6269-1.2216,1.6269h-139.7002c-.8946,0-1.8091-.7314-2.0323-1.6269l-1.2167-4.8789c-.2227-.8946.3266-1.627,1.2216-1.627h139.7002c.8946,0,1.8091.7324,2.0323,1.627Z"/>
                <path class="cls-18" d="m674.8689,898.7965l2.0273,8.1328h-99.0312c-.8946,0-1.8091-.7314-2.0323-1.6269l-1.2167-4.8789c-.2227-.8946.3266-1.627,1.2216-1.627h99.0313Z"/>
              </g>
              <g>
                <path class="cls-44" d="m694.3601,901.9928h-1.5459l-.1558-.625h2.3677l.1357.5449-.791,2.7432h-.8173l.8066-2.6631Z"/>
                <path class="cls-44" d="m695.8347,903.0114c-.2378-.9532.168-1.7002,1.042-1.7002.8691,0,1.6401.7373,1.8804,1.7002.2378.9541-.1631,1.7011-1.042,1.7011-.8784,0-1.6402-.7373-1.8804-1.7011Zm2.1802,0c-.1489-.5967-.5528-1.0469-.9849-1.0469s-.605.4365-.4526,1.0469c.1499.6015.5473,1.0478.9844,1.0478s.604-.4414.4531-1.0478Z"/>
                <path class="cls-44" d="m699.0305,902.1705c-.1157-.4648.1147-.8408.5938-.8408.4746,0,.8867.3711,1.0034.8408.1152.461-.1143.8409-.5933.8409-.4746,0-.8867-.3711-1.0039-.8409Zm2.5293-.8027h.5591l-1.5806,3.2881h-.5591l1.5806-3.2881Zm-1.4253.8027c-.0552-.2207-.2251-.413-.4131-.413-.1972,0-.2539.1875-.1972.413.0546.2207.2251.4141.413.4141.1973,0,.2525-.1934.1973-.4141Zm1.3355,1.6817c-.1158-.4649.1147-.8408.5937-.8408.4746,0,.8867.3711,1.0034.8408.1153.4609-.1142.8418-.5932.8418-.4746,0-.8868-.3711-1.0039-.8418Zm1.104,0c-.0552-.2207-.2251-.4131-.4131-.4131-.1973,0-.2539.1885-.1978.4131.0552.2217.2256.414.4136.414.1973,0,.2524-.1923.1973-.414Z"/>
              </g>
            </g>
            <g>
              <path class="cls-2" d="m663.2776,967.3961h-12.3833c-1.7388,0-3.4995-1.4092-3.9331-3.1484l-5.9859-24.0078c-.4336-1.7393.6245-3.1485,2.3628-3.1485h12.3838c1.7388,0,3.4995,1.4092,3.9331,3.1485l5.9859,24.0078c.4335,1.7392-.6246,3.1484-2.3633,3.1484Z"/>
              <path class="cls-2" d="m684.7117,967.3961h-12.3838c-1.7388,0-3.4995-1.4092-3.9331-3.1484l-5.9859-24.0078c-.4336-1.7393.6245-3.1485,2.3633-3.1485h12.3833c1.7388,0,3.4995,1.4092,3.9331,3.1485l5.9863,24.0078c.4331,1.7392-.625,3.1484-2.3632,3.1484Z"/>
              <path class="cls-2" d="m705.7448,967.3961h-12.3838c-1.7383,0-3.4991-1.4092-3.9326-3.1484l-5.9864-24.0078c-.4336-1.7393.625-3.1485,2.3633-3.1485h12.3838c1.7388,0,3.4995,1.4092,3.9331,3.1485l5.9858,24.0078c.4336,1.7392-.6245,3.1484-2.3632,3.1484Z"/>
              <g>
                <path class="cls-2" d="m638.8025,967.3961h-41.9253c-2.9141,0-5.8657-2.3623-6.5923-5.2763l-4.9243-19.752c-.7271-2.9141,1.0464-5.2764,3.9609-5.2764h41.9253c2.9141,0,5.8652,2.3623,6.5918,5.2764l4.9248,19.752c.7266,2.914-1.0469,5.2763-3.9609,5.2763Z"/>
                <path class="cls-44" d="m630.718,944.6676h-39.1743c-.6607,0-1.336-.54-1.5005-1.2012h0c-.1646-.6601.2412-1.2011.9019-1.2011h39.1738c.6606,0,1.3359.541,1.5005,1.2011h0c.165.6612-.2408,1.2012-.9014,1.2012Z"/>
                <path class="cls-44" d="m631.8694,949.2877h-39.1739c-.6606,0-1.3359-.541-1.5004-1.2011h0c-.1651-.6612.2407-1.2012.9013-1.2012h39.1743c.6607,0,1.336.54,1.5005,1.2012h0c.1646.6601-.2412,1.2011-.9018,1.2011Z"/>
                <path class="cls-44" d="m633.0212,953.9069h-39.1738c-.6606,0-1.3359-.541-1.5005-1.2012h0c-.165-.6602.2407-1.2012.9014-1.2012h39.1743c.6606,0,1.3359.541,1.5005,1.2012h0c.1645.6602-.2412,1.2012-.9019,1.2012Z"/>
                <path class="cls-44" d="m604.3796,959.0807h-9.2422c-.6606,0-1.3359-.541-1.5005-1.2012h0c-.165-.6601.2408-1.2011.9014-1.2011h9.2422c.6606,0,1.3359.541,1.5005,1.2011h0c.1645.6602-.2412,1.2012-.9014,1.2012Z"/>
              </g>
            </g>
          </g>
        </g>
        <g>
          <path class="cls-43" d="m778.671,1092.6784s-22.1386,10.9794-23.4409,22.9199c-1.3017,11.9394,3.4556,84.0888,3.4556,84.0888,0,0,23.2275,4.3926,27.3315.1202,0,0,5.7803-77.2442,4.7559-80.7266-1.0244-3.4824,63.7368-22.54,69.4917-22.4199,5.7549.1201-81.5938-3.9824-81.5938-3.9824Z"/>
          <path class="cls-43" d="m784.317,1199.3727s-1.3515,21.7988-5.5688,22.1113c-.5611.042-21.3907.042-21.3907.042l-26.5903-.1543s.1738-6.4072,7.9463-7.7617c7.7725-1.3545,20.7822-6.8164,25.4902-17.0898,4.9537-10.8067,20.1133,2.8525,20.1133,2.8525Z"/>
        </g>
        <g>
          <path class="cls-43" d="m709.691,1199.3727s-1.3515,21.7988-5.5693,22.1113c-.5605.042-21.3906.042-21.3906.042l-26.5899-.1543s.1739-6.4072,7.9463-7.7617c7.7725-1.3545,20.7818-6.8164,25.4903-17.0898,4.9531-10.8067,20.1132,2.8525,20.1132,2.8525Z"/>
          <path class="cls-5" d="m871.883,1053.8571l-.4467.1279c-.5088-2.1416-1.8062-3.9316-4.0762-5.2168-16.418-9.2891-47.6641-2.9639-47.6641-2.9639,0,0-100.8159,16.3799-110.1572,29.6543s-23.8887,126.3301-23.8887,126.3301c0,0,17.6304,4.6045,24.92,1.8682,0,0,34.7441-89.5801,37.5585-99.2676,2.441-8.4004,50.3692-2.2725,74.5479-3.9668,14.498-.4551,37.1753-1.4941,43.3433-3.6416,9.2734-3.2295,5.8632-42.9238,5.8632-42.9238Z"/>
        </g>
        <g>
          <path class="cls-23" d="m836.1472,932.7282l-8.377,10.4296-15.8544.7793c-.1592-1.5087-.7095-8.081-1.1748-13.6894-.376-4.5811-.6939-8.5147-.6939-8.5147l16.7466-14.6601c.0107.0937.8681,4.9629.9966,5.6719,2.2612,12.6103,8.3569,19.9834,8.3569,19.9834Z"/>
          <path class="cls-16" d="m808.3342,928.8532c.3477-.126,21.4292-5.1729,23.646-4.3106,2.2168.8623,3.3252,5.2959,3.3252,5.2959l-34.3608,5.9111s2.956-5.2959,7.3896-6.8964Z"/>
          <path class="cls-23" d="m805.6095,923.2389s22.4751,1.0264,22.8989-12.9795c.4243-14.0059,3.6109-23.3066-10.7212-24.5547-14.3315-1.247-17.2827,4.0127-18.561,8.6533-1.2788,4.6407.5479,28.252,6.3833,28.8809Z"/>
          <path class="cls-43" d="m799.713,892.8912s5.2959,14.7793,8.2515,13.3008c2.956-1.4775,5.665-2.709,6.4043,1.9707.7387,4.6797-2.2168,11.084,7.6357,9.3594,9.8526-1.7236,17.1851-30.2246,13.3008-34.2373-11.207-11.5762-50.9868-4.0635-35.5923,9.6064Z"/>
          <path class="cls-18" d="m871.883,1053.8571c-5.6713,6.7021-53.9243,4.9541-68.0639-.7022-1.064-.4248-1.9063-.8721-2.4864-1.3379-8.3129-6.6504,10.4488-12.4912-10.5297-63.1787-.0113-.0264-.0225-.0478-.0298-.0742-15.0449-36.4258.9092-48.2305,10.9765-54.0684,0,0,28.7491-8.8369,44.8247-3.8564,20.875,6.4648,31.4048,116.0127,25.3086,123.2178Z"/>
          <path class="cls-16" d="m821.1437,1028.9801c-.9531,6.9024-6.5064,23.9268-17.3247,24.1748-1.064-.4248-1.9063-.8721-2.4864-1.3379-8.3129-6.6504,10.4488-12.4912-10.5297-63.1787-.0113-.0264-.0225-.0478-.0298-.0742,3.5063-2.4092,9.1889-5.1397,12.8799-.9639,5.6674,6.4024,18.4736,34.2344,17.4907,41.3799Z"/>
          <path class="cls-23" d="m719.005,1028.8883s-9.0571-5.2402-11.9756-5.6709c-2.9184-.4316-16.7793,11.3389-14.7446,12.2451,2.0352.9063,12.5156-3.5166,14.0327-2.6006,1.5171.9161,2.6895,3.4463,4.3442,3.4766,1.6548.0303,7.2403.0303,7.2403.0303l1.103-7.4805Z"/>
          <path class="cls-18" d="m801.7496,934.4957s-19.8339,10.3467-22.434,20.0977c-2.6006,9.75-12.1275,57.0049-15.7915,60.3125-3.6641,3.3076-45.8047,10.9951-45.8047,10.9951,0,0-4.9366,5.4766-3.3858,10.4678h65.8623s29.6846-42.9248,27.5752-59.124c-2.1094-16.1993-6.0215-42.7491-6.0215-42.7491Z"/>
        </g>
        <g>
          <path class="cls-47" d="m888.9548,1098.359h-136.8135s3.1861-11.792,82.4195-10.0361c56.0718,1.2431,54.394,10.0361,54.394,10.0361Z"/>
          <path class="cls-36" d="m900.0906,1221.526c-15.8628-73.4453-11.7842-118.5146-11.7637-119.082.04-1.1309-2.2393-2.1582-3.4649-2.1944-1.2412-.0195-6.7163-.3339-7.3496.6338-.83,1.2676-4.0249,56.7959,19.6172,120.6426h2.961Z"/>
          <path class="cls-36" d="m772.3492,1221.526c15.8633-73.4453,11.7842-118.5146,11.7642-119.082-.04-1.1309,2.2388-2.1582,3.4644-2.1944,1.2412-.0195,6.7168-.3339,7.3501.6338.83,1.2676,4.0244,56.7959-19.6172,120.6426h-2.9615Z"/>
          <path class="cls-13" d="m747.0338,1221.526c15.8633-73.4453,11.7842-118.5146,11.7642-119.082-.0401-1.1309,2.2387-2.1582,3.4643-2.1944,1.2412-.0195,6.7168-.3339,7.3501.6338.8301,1.2676,4.0244,56.7959-19.6172,120.6426h-2.9614Z"/>
          <path class="cls-13" d="m874.6047,1221.526c-15.8628-73.4453-11.7837-118.5146-11.7637-119.082.0401-1.1309-2.2392-2.1582-3.4648-2.1944-1.2407-.0195-6.7163-.3339-7.3501.6338-.8296,1.2676-4.0244,56.7959,19.6177,120.6426h2.9609Z"/>
          <path class="cls-36" d="m751.9382,1095.3112h137.0575c1.4795,0,2.6807,1.2012,2.6807,2.6807v1.4511c0,1.479-1.2007,2.6797-2.6797,2.6797h-137.0591c-1.4792,0-2.6801-1.2009-2.6801-2.6801v-1.4507c0-1.4795,1.2012-2.6807,2.6807-2.6807Z" transform="translate(1640.934 2197.4338) rotate(180)"/>
          <path class="cls-36" d="m851.6237,1062.9733c1.0097-22.7129,3.186-42.4698,5.7915-56.2481,4.1533-21.9638,7.8921-34.5996,7.935-34.7343.5474-1.9317,8.4507-9.7471,26.022-9.5059s15.9048,10.4912,15.9048,10.4912h0c.0019.3457-.0484.669-.1255.9102-.1694.5283-16.2993,54.0175-15.6006,123.0791.0098.9697.1284,2.6455.0532,3.7617,0,.0049-40.7197.9609-40.7295,0-1.4199-6.0352-.727-22.7608.7491-37.7539Z"/>
        </g>
        <path class="cls-5" d="m690.0818,1036.3688s10.9922-8.5215,16.4883-5.8428c5.496,2.6797,6.8017,5.8428,6.8017,5.8428h-23.29Z"/>
        <path class="cls-37" d="m344.4617,1030.5719s10.4384-2.3818,13.7382-1.374,10.604,7.1455,8.8296,7.1582c-1.7739.0127-8.8271-3.3106-9.9267-2.669-1.0992.6407-6.0454,3.2061-9.2515,1.9229-3.2061-1.2822-3.3896-5.0381-3.3896-5.0381Z"/>
        <path class="cls-6" d="m298.7702,956.485s-10.2363,27.0547-11.4687,41.9346c-1.9272,23.2675-1.8291,37.8115-1.8291,37.8115,0,0,6.603.2822,23.4473,0,16.8447-.2832,36.5957,0,36.5957,0,0,0,5.0659-4.9092-1.8409-8.6729-6.9072-3.7646-35.9672-10.6455-35.2421-13.5517.7246-2.9053,10.747-43.3037,10.747-43.3037l-20.4092-14.2178Z"/>
        <path class="cls-5" d="m349.4084,1036.3688s6.1831-4.3311,10.5113-3.2315c4.3281,1.0996,7.1098,3.2188,7.1098,3.2188l-17.6211.0127Z"/>
      </g>
      <g>
        <path class="cls-15" d="m2298.6824,1061.4723h-171.7813c-5.4365,0-9.8838-4.4473-9.8838-9.8838h0c0-5.4365,4.4473-9.8838,9.8838-9.8838h171.7813c5.4375,0,9.8847,4.4473,9.8847,9.8838h0c0,5.4365-4.4472,9.8838-9.8847,9.8838Z"/>
        <g>
          <path class="cls-14" d="m2184.5222,1061.4l-5.4414,21.2491v.0019l-15.0293,58.6943-13.4375,52.4688c-.2012.7949-1.2295,1.3769-2.4316,1.3769-1.0586,0-1.877-.624-1.7383-1.3271l11.5869-59.4814,12.3926-63.6241,1.8701-9.5986,12.2285.2402Z"/>
          <path class="cls-13" d="m2179.0808,1082.6491c.7139-9.1319-8.6572-11.8907-8.6572-11.8907l1.8701-9.5986,12.2285.2402-5.4414,21.2491Z"/>
        </g>
        <g>
          <path class="cls-14" d="m2247.8279,1061.4l5.4423,21.2491v.0019l15.0293,58.6943,13.4366,52.4688c.2021.7949,1.2295,1.3769,2.4316,1.3769,1.0596,0,1.8779-.624,1.7383-1.3271l-11.5869-59.4814-12.3916-63.6241-1.8711-9.5986-12.2285.2402Z"/>
          <path class="cls-13" d="m2253.2702,1082.6491c-.7148-9.1319,8.6573-11.8907,8.6573-11.8907l-1.8711-9.5986-12.2285.2402,5.4423,21.2491Z"/>
        </g>
      </g>
      <path class="cls-16" d="m2271.6228,1195.1373s-38.8936-33.1816-5.1836-96.2041c33.71-63.0234,151.6943-81.0341,176.6103-128.456l-7.3281,236.914-164.0986-12.2539Z"/>
      <path class="cls-32" d="m2765.4001,675.9655v417.0058c0,70.5713-57.7314,128.3028-128.3027,128.3028h-810.7842c-29.5478,0-56.8418-10.1241-78.584-27.0743h570.4473c60.2822,0,109.5937-49.3115,109.5937-109.5937v-394.1856c0-60.2822-49.3115-109.5937-109.5937-109.5937,0,0-466.4824-1.7915-554.4541,0-35.9111.7363-52.7412,44.0908-52.7412,44.0908,6.5732-54.7207,82.3984-77.2549,115.332-77.2549h810.7842c70.5713,0,128.3027,57.732,128.3027,128.3028Z"/>
      <g>
        <polygon class="cls-21" points="2276.5837 1011.6471 2276.2595 1019.0631 2275.5818 1034.5651 2275.2722 1041.7047 2255.5974 1041.7047 2255.1501 1034.5651 2254.1843 1019.0631 2253.7234 1011.6471 2276.5837 1011.6471"/>
        <polygon class="cls-26" points="2276.9587 1006.6373 2253.6531 1006.6373 2252.6921 1011.6471 2277.614 1011.6471 2276.9587 1006.6373"/>
        <polygon class="cls-10" points="2276.2595 1019.0631 2275.5818 1034.5651 2255.1501 1034.5651 2254.1843 1019.0631 2276.2595 1019.0631"/>
      </g>
      <g>
        <path class="cls-10" d="m2177.0671,1013.7702l-.1347,3.0488-.1006,2.2431-.6211,14.2803-.0547,1.2217-.3106,7.1396h-19.6767l-.4463-7.1396-.0752-1.2217-.8906-14.2803-.1406-2.2431-.25-4.0508.0546-.125s4.587-.8311,7.3399.9219c2.7539,1.7519,5.7588-1.6729,8.2617-.6709,2.5039,1.001,2.6738,2.2529,4.6768,1.4218.5957-.2509,1.4521-.4257,2.3681-.5458Z"/>
        <polygon class="cls-9" points="2177.157 1011.6471 2177.0671 1013.7702 2176.9324 1016.819 2176.8318 1019.0621 2176.2107 1033.3424 2176.156 1034.5641 2175.8454 1041.7037 2156.1687 1041.7037 2155.7224 1034.5641 2155.6472 1033.3424 2154.7566 1019.0621 2154.616 1016.819 2154.366 1012.7682 2154.2956 1011.6471 2177.157 1011.6471"/>
        <path class="cls-9" d="m2177.2751,1011.6432c.0039-.1162.0088-.2324.0088-.3496,0-6.3242-5.1269-11.4522-11.4512-11.4522s-11.4531,5.128-11.4531,11.4522c0,.1172.0059.2334.0098.3496h22.8857Z"/>
        <path class="cls-21" d="m2163.8484,1039.8912l-1.001-.125c.0615-.6279,3.2646-42.9931,3.7627-45.8173.5488-3.1075,3.5625-4.0264,3.6904-4.0645l.0537-.0127,16.0215-2.8379.1758.9864-15.9922,2.832c-.2705.0869-2.541.8828-2.9629,3.2705-.4912,2.7861-3.7324,45.6152-3.748,45.7685Z"/>
        <polygon class="cls-21" points="2176.9324 1016.819 2176.8318 1019.0621 2176.2107 1033.3424 2155.6472 1033.3424 2154.7566 1019.0621 2154.616 1016.819 2176.9324 1016.819"/>
      </g>
      <path class="cls-32" d="m2765.4001,1059.236v33.7353c0,70.5713-57.7314,128.3028-128.3027,128.3028h-810.7842c-29.5478,0-55.1103-10.1485-76.8535-27.0977l568.7168.0234c38.2969,0,72.165-19.8964,91.7637-49.872,137.0312,7.7275,288.3076-53.8076,355.4599-85.0918Z"/>
      <g>
        <g>
          <path class="cls-3" d="m2615.3601,1129.4196s-14.6953-17.1436-.9063-28.0332c0,0,10.0723-6.0977,18.2852-5.6026,0,0-11.6377,19.5137-7.873,21.4541,3.7646,1.9414,11.3994-22.6787,11.3994-22.6787,0,0,22.9209-2.2226,30.2939,1.3223,0,0-19.5947,16.0351-15.4678,16.9892,4.127.9551,25.2911-14.7832,25.2911-14.7832,0,0,21.332,3.6299,20.1943,16.6436-1.1367,13.0127-8.4873,17.0312-11.7188,16.6855-3.2304-.3457-22.1289-7.5605-22.54-4.9131-.4111,2.6475,10.9639,11.2979,18.9307,11.7022,0,0-15.0401,16.5869-25.0362,11.7998-9.9951-4.7871-10.8486-12.375-17.0791-15.2207-6.2304-2.8457-11.5498-2.8389-8.9765.0635,2.5722,2.9023,13.8486,5.7236,17.4121,12.0263,3.5625,6.3028,6.7597,10.5538-3.5821,8.9981-10.3418-1.5567-27.1513-9.1231-27.8886-17.7881l-.7383-8.665Z"/>
          <g>
            <path class="cls-3" d="m2686.0954,1115.0817s-57.9404-2.2324-70.7353,14.3379c0,0-2.8301,8.4746-11.5371,16.1923l-1.3574,3.6993s10.04-10.586,13.6328-11.2266c0,0-5.6192-20.5293,69.997-23.0029Z"/>
            <path class="cls-3" d="m2603.823,1145.6119s-12.4365,9.1973-13.3008,25.6309l2.2578.2022s3.9717-16.9922,11.1504-23.6377c7.1797-6.6446-.1074-2.1954-.1074-2.1954Z"/>
          </g>
        </g>
        <g>
          <path class="cls-8" d="m2563.9812,1107.859s23.376-13.0898,12.4668-30.8564c0,0-8.7266-10.9082-18.0762-13.7129,0,0,4.9863,26.4922,0,27.1152-4.9873.624-3.4287-29.9209-3.4287-29.9209,0,0-24.623-11.8437-34.2852-10.9082,0,0,15.2725,25.8692,10.2862,25.2451-4.9873-.623-22.1299-26.8037-22.1299-26.8037,0,0-25.2451-4.6748-29.2979,10.2852-4.0517,14.9609,2.4942,22.4404,6.2344,23.376,3.7403.9345,27.7393.623,27.1153,3.7402-.6231,3.1162-16.8301,8.1035-25.8692,5.2988,0,0,9.9736,24.6221,23.0645,23.375,13.0908-1.2461,17.1425-9.3496,25.2461-9.9736,8.1035-.6231,14.0253,1.5586,9.9736,3.7402-4.0518,2.1817-17.7656.7149-24.3115,6.2793-6.545,5.5645-11.8438,8.9932.3125,11.4863,12.1552,2.4942,33.9726.9356,38.3359-8.415l4.3633-9.3506Z"/>
          <g>
            <path class="cls-3" d="m2491.0495,1062.9772s65.4522,21.1943,72.9317,44.8818c0,0-.3115,10.5977,6.2344,22.7529v4.6749s-6.8575-15.8956-10.5977-18.0772c0,0,14.6484-20.5703-68.5684-54.2324Z"/>
            <path class="cls-3" d="m2570.2156,1130.6119s10.0937,15.3282,4.3388,33.9864l-2.5967-.6973s2.5206-20.5517-2.7607-30.8877c-5.2803-10.3359,1.0186-2.4014,1.0186-2.4014Z"/>
          </g>
        </g>
        <g>
          <path class="cls-8" d="m2601.1706,1089.8053s-30.8134-17.2549-16.4336-40.6738c0,0,11.504-14.3799,23.8291-18.0772,0,0-6.5732,34.9219,0,35.7442,6.5733.8213,4.5196-39.4424,4.5196-39.4424,0,0,32.457-15.6123,45.1933-14.3789,0,0-20.1318,34.0996-13.5576,33.2783,6.5733-.8213,29.1699-35.333,29.1699-35.333,0,0,33.2793-6.1631,38.6192,13.5586,5.3418,19.7207-3.2862,29.581-8.2168,30.8135-4.9297,1.2324-36.5654.8213-35.7432,4.9297.8213,4.1084,22.1856,10.6826,34.1006,6.9843,0,0-13.1475,32.458-30.4033,30.8145-17.2559-1.6436-22.5967-12.3262-33.2783-13.1475-10.6827-.8222-18.4893,2.0547-13.1475,4.9297,5.3408,2.876,23.418.9434,32.0459,8.2774,8.6279,7.3349,15.6123,11.8544-.4102,15.1416-16.0234,3.2871-44.7832,1.2324-50.5351-11.0928l-5.752-12.3262Z"/>
          <g>
            <path class="cls-3" d="m2697.3093,1030.6432s-86.2783,27.9375-96.1387,59.1621c0,0,.4112,13.9688-8.2168,29.9922v6.1631s9.0391-20.9531,13.9688-23.8291c0,0-19.3106-27.1162,90.3867-71.4883Z"/>
            <path class="cls-3" d="m2592.9538,1119.7975s-13.3056,20.2051-5.7207,44.8008l3.4239-.9199s-3.3233-27.0899,3.6386-40.7149c6.961-13.625-1.3418-3.166-1.3418-3.166Z"/>
          </g>
        </g>
        <path class="cls-16" d="m2600.1326,1217.9342c33.3349,0,60.3593-27.0234,60.3593-60.3594h-120.7187c0,33.336,27.0234,60.3594,60.3594,60.3594Z"/>
        <path class="cls-18" d="m2614.9851,1217.4723c-2.4551.3066-4.958.4619-7.499.4619-33.335,0-60.3565-27.0244-60.3565-60.3594h14.9951c0,30.7969,23.0635,56.2051,52.8604,59.8975Z"/>
        <path class="cls-16" d="m2661.3249,1221.0055h-122.3847c0-4.1123,3.334-7.4463,7.4463-7.4463h107.4921c4.1124,0,7.4463,3.334,7.4463,7.4463h0Z"/>
        <rect class="cls-31" x="2537.7888" y="1157.5748" width="124.0752" height="1.8516"/>
      </g>
      <path class="cls-40" d="m4.6571,1221.276h2752.8464c1.7265,0,3.1281,1.4017,3.1281,3.1281v1.0699c0,1.7265-1.4017,3.1281-3.1281,3.1281H4.6571c-1.7259,0-3.1271-1.4012-3.1271-3.1271v-1.0719c0-1.7259,1.4012-3.1271,3.1271-3.1271Z"/>
    </g>
  </g>
</svg>