<?xml version="1.0" encoding="UTF-8"?><svg xmlns="http://www.w3.org/2000/svg" viewBox="0 0 27.79 24.3"><defs><style>.d{fill:#414042;}</style></defs><g id="a"/><g id="b"><g id="c"><g><path class="d" d="M24.66,24.3H3.14c-1.73,0-3.14-1.41-3.14-3.14V3.14C0,1.41,1.41,0,3.14,0H24.66c1.73,0,3.14,1.41,3.14,3.14V21.17c0,1.73-1.41,3.14-3.14,3.14ZM3.14,1.3c-1.01,0-1.83,.82-1.83,1.84V21.17c0,1.01,.82,1.84,1.83,1.84H24.66c1.01,0,1.83-.82,1.83-1.84V3.14c0-1.01-.82-1.84-1.83-1.84H3.14Z"/><path class="d" d="M.65,15.43c-.17,0-.33-.06-.46-.19-.25-.25-.25-.67,0-.92L6.79,7.73c.25-.25,.67-.25,.92,0s.25,.67,0,.92L1.11,15.24c-.13,.13-.29,.19-.46,.19Z"/><path class="d" d="M11.84,24.3c-.17,0-.33-.06-.46-.19-.25-.25-.25-.67,0-.92l9.88-9.88c.25-.25,.67-.25,.92,0s.25,.67,0,.92l-9.88,9.88c-.13,.13-.29,.19-.46,.19Z"/><path class="d" d="M17.28,18.64c-.17,0-.33-.06-.46-.19L6.89,8.52c-.25-.25-.25-.67,0-.92s.67-.25,.92,0l9.93,9.93c.25,.25,.25,.67,0,.92-.13,.13-.29,.19-.46,.19Z"/><path class="d" d="M27.14,19.86c-.17,0-.33-.06-.46-.19l-5.42-5.42c-.25-.25-.25-.67,0-.92s.67-.25,.92,0l5.42,5.42c.25,.25,.25,.67,0,.92-.13,.13-.29,.19-.46,.19Z"/><path class="d" d="M19.47,10.7c-2.01,0-3.65-1.64-3.65-3.65s1.64-3.65,3.65-3.65,3.65,1.64,3.65,3.65-1.64,3.65-3.65,3.65Zm0-5.99c-1.29,0-2.35,1.05-2.35,2.35s1.05,2.35,2.35,2.35,2.35-1.05,2.35-2.35-1.05-2.35-2.35-2.35Z"/></g></g></g></svg>