<?xml version="1.0" encoding="UTF-8"?><svg xmlns="http://www.w3.org/2000/svg" viewBox="0 0 27.96 24.56"><defs><style>.d{fill:#414042;}</style></defs><g id="a"/><g id="b"><g id="c"><g><path class="d" d="M4.79,23.93c-.36,0-.65-.29-.65-.65v-4.16c0-.36,.29-.65,.65-.65s.65,.29,.65,.65v4.16c0,.36-.29,.65-.65,.65Z"/><path class="d" d="M12.81,24.56H2.56c-1.41,0-2.56-1.15-2.56-2.56v-3.4c0-2.73,1.61-5.21,4.1-6.33,.26-.12,.57-.05,.76,.17,.72,.84,1.75,1.32,2.82,1.32s2.11-.48,2.83-1.32c.19-.22,.5-.29,.76-.17,2.49,1.12,4.1,3.61,4.1,6.33v3.4c0,1.41-1.15,2.56-2.56,2.56ZM4.23,13.66c-1.79,.99-2.93,2.88-2.93,4.94v3.4c0,.7,.57,1.26,1.26,1.26H12.81c.7,0,1.26-.57,1.26-1.26v-3.4c0-2.06-1.14-3.96-2.93-4.94-.94,.89-2.17,1.4-3.46,1.4s-2.52-.5-3.46-1.4Z"/><path class="d" d="M23.96,24.01c-.36,0-.65-.29-.65-.65v-5.89c0-.36,.29-.65,.65-.65s.65,.29,.65,.65v5.89c0,.36-.29,.65-.65,.65Z"/><path class="d" d="M25.4,24.56H15.15c-.57,0-1.11-.19-1.56-.54-.16-.12-.25-.31-.25-.51s.09-.39,.25-.51c.31-.24,.5-.61,.5-.99v-3.4c0-.92-.23-1.8-.67-2.64-.1-.19-.1-.42,0-.61,.73-1.37,1.89-2.46,3.28-3.08,.26-.12,.57-.05,.76,.17,.72,.84,1.75,1.32,2.83,1.32s2.11-.48,2.83-1.32c.19-.22,.5-.29,.76-.17,2.49,1.12,4.1,3.61,4.1,6.33v3.4c0,1.41-1.15,2.56-2.56,2.56Zm-10.35-1.3s.07,0,.1,0h10.25c.7,0,1.26-.57,1.26-1.26v-3.4c0-2.06-1.14-3.96-2.93-4.94-.94,.89-2.17,1.4-3.46,1.4s-2.52-.5-3.46-1.4c-.85,.47-1.58,1.17-2.1,2.02,.44,.93,.66,1.91,.66,2.92v3.4c0,.45-.12,.88-.33,1.26Z"/><path class="d" d="M17.64,24.56H9.03c-.36,0-.65-.29-.65-.65s.29-.65,.65-.65h8.61c.36,0,.65,.29,.65,.65s-.29,.65-.65,.65Z"/><path class="d" d="M7.69,15.06c-2.78,0-5.05-2.26-5.05-5.05s2.26-5.05,5.05-5.05,5.05,2.26,5.05,5.05-2.26,5.05-5.05,5.05Zm0-8.79c-2.07,0-3.75,1.68-3.75,3.75s1.68,3.75,3.75,3.75,3.75-1.68,3.75-3.75-1.68-3.75-3.75-3.75Z"/><path class="d" d="M20.27,15.06c-2.78,0-5.05-2.26-5.05-5.05s2.26-5.05,5.05-5.05,5.05,2.26,5.05,5.05-2.26,5.05-5.05,5.05Zm0-8.79c-2.07,0-3.75,1.68-3.75,3.75s1.68,3.75,3.75,3.75,3.75-1.68,3.75-3.75-1.68-3.75-3.75-3.75Z"/><path class="d" d="M13.87,10.09c-.75,0-1.5-.18-2.21-.53-.17-.08-.3-.24-.35-.43-.26-1.08-.99-1.98-1.99-2.47-.17-.08-.3-.24-.35-.43-.1-.42-.15-.81-.15-1.18,0-2.78,2.26-5.05,5.05-5.05s5.05,2.26,5.05,5.05c0,.42-.06,.85-.2,1.34-.04,.17-.15,.31-.3,.39-.86,.49-1.48,1.29-1.74,2.24-.04,.17-.15,.31-.3,.39-.79,.46-1.63,.69-2.5,.69Zm-1.38-1.58c1,.41,2.05,.36,3.01-.12,.36-1.07,1.07-1.98,2.02-2.6,.06-.27,.09-.52,.09-.75,0-2.07-1.68-3.75-3.75-3.75s-3.75,1.68-3.75,3.75c0,.19,.02,.39,.06,.6,1.11,.63,1.93,1.66,2.31,2.87Zm5.6-2.3h0Z"/></g></g></g></svg>