<?xml version="1.0" encoding="UTF-8"?><svg xmlns="http://www.w3.org/2000/svg" viewBox="0 0 18.69 24.42"><defs><style>.d{fill:#414042;}</style></defs><g id="a"/><g id="b"><g id="c"><g><path class="d" d="M9.34,12.16c-3.35,0-6.08-2.73-6.08-6.08S5.99,0,9.34,0s6.08,2.73,6.08,6.08-2.73,6.08-6.08,6.08Zm0-10.86c-2.63,0-4.78,2.14-4.78,4.78s2.14,4.78,4.78,4.78,4.78-2.14,4.78-4.78S11.98,1.3,9.34,1.3Z"/><path class="d" d="M5.36,23.69c-.36,0-.65-.29-.65-.65v-5.21c0-.36,.29-.65,.65-.65s.65,.29,.65,.65v5.21c0,.36-.29,.65-.65,.65Z"/><path class="d" d="M13.74,23.76c-.36,0-.65-.29-.65-.65v-6.77c0-.36,.29-.65,.65-.65s.65,.29,.65,.65v6.77c0,.36-.29,.65-.65,.65Z"/><path class="d" d="M15.88,24.42H2.8c-1.54,0-2.8-1.26-2.8-2.8v-5.62c0-3.17,1.9-5.98,4.84-7.17,.27-.11,.57-.03,.75,.2,.92,1.16,2.28,1.82,3.75,1.82s2.84-.67,3.75-1.82c.18-.23,.49-.31,.75-.2,2.94,1.19,4.84,4,4.84,7.17v5.62c0,1.55-1.26,2.8-2.8,2.8ZM4.9,10.23c-2.2,1.08-3.6,3.29-3.6,5.77v5.62c0,.83,.67,1.5,1.5,1.5H15.88c.83,0,1.5-.67,1.5-1.5v-5.62c0-2.48-1.4-4.7-3.6-5.77-1.15,1.23-2.74,1.93-4.44,1.93s-3.29-.7-4.44-1.93Z"/></g></g></g></svg>