<?xml version="1.0" encoding="UTF-8"?><svg xmlns="http://www.w3.org/2000/svg" viewBox="0 0 28.49 24.55"><defs><style>.d{fill:#E99E23;}</style></defs><g id="a"/><g id="b"><g id="c"><path class="d" d="M14.29,24.55c-.13,0-.35-.04-.46-.11-.59-.4-1.19-.8-1.78-1.2C6.13,19.26,0,15.15,0,8.42,0,3.78,3.34,0,7.45,0c3.05,0,5.65,1.66,6.8,4.35,1.15-2.68,3.75-4.35,6.8-4.35,4.11,0,7.45,3.78,7.45,8.42,0,6.73-6.13,10.84-12.05,14.82-.59,.4-1.19,.8-1.78,1.2-.11,.07-.23,.11-.36,.11h0Zm0-.65h0ZM7.45,1.3C4.06,1.3,1.3,4.49,1.3,8.42c0,6.04,5.57,9.78,11.48,13.74,.49,.33,.98,.66,1.47,.99,.49-.33,.98-.66,1.47-.99,5.9-3.96,11.48-7.7,11.48-13.74,0-3.93-2.76-7.12-6.15-7.12-2.53,0-4.69,1.38-5.62,3.6-.04,.09-.07,.18-.1,.27l-.09,.23c-.14,.37-.53,.6-.99,.61h0c-.46,0-.84-.23-.99-.61-.03-.08-.06-.16-.09-.24-.02-.07-.05-.14-.08-.21-.92-2.25-3.08-3.65-5.64-3.65Z"/></g></g></svg>