<?xml version="1.0" encoding="utf-8"?>
<!-- Generator: Adobe Illustrator 26.3.1, SVG Export Plug-In . SVG Version: 6.00 Build 0)  -->
<svg version="1.1" id="Layer_1" xmlns="http://www.w3.org/2000/svg" xmlns:xlink="http://www.w3.org/1999/xlink" x="0px" y="0px"
	 viewBox="0 0 512 512" style="enable-background:new 0 0 512 512;" xml:space="preserve">
<style type="text/css">
	.st0{fill:#424143;}
</style>
<path class="st0" d="M301.8,228.8c5.3-8.3,8.3-18.2,8.3-28.7c0-29.8-24.3-54.1-54.1-54.1c-29.8,0-54.1,24.3-54.1,54.1
	c0,10.6,3.1,20.4,8.3,28.7c-22.5,11.4-38,34.8-38,61.7v51.3c0,13.3,10.9,24.2,24.2,24.2h119.3c13.3,0,24.2-10.9,24.2-24.2v-51.3
	C339.8,263.6,324.3,240.2,301.8,228.8z M256,155.1c24.8,0,45,20.2,45,45s-20.2,45-45,45s-45-20.2-45-45S231.2,155.1,256,155.1z
	 M330.7,341.8c0,8.3-6.8,15.1-15.1,15.1h-15.2c0.2-0.5,0.3-0.9,0.3-1.5v-61.8c0-2.6-2-4.6-4.6-4.6c-2.6,0-4.6,2-4.6,4.6v61.8
	c0,0.5,0.1,1,0.3,1.5h-68.1c0.3-0.6,0.5-1.3,0.5-2.1v-47.5c0-2.6-2-4.6-4.6-4.6c-2.6,0-4.6,2-4.6,4.6v47.5c0,0.8,0.2,1.5,0.5,2.1
	h-19.3c-8.3,0-15.1-6.8-15.1-15.1v-51.3c0-24,14.1-44.7,34.5-54.3c9.9,11,24.3,17.9,40.2,17.9c15.9,0,30.3-6.9,40.2-17.9
	c20.4,9.6,34.5,30.3,34.5,54.3V341.8z"/>
<g>
	<path class="st0" d="M256,8.8c33.4,0,65.8,6.5,96.2,19.4c29.4,12.5,55.9,30.3,78.6,53s40.5,49.2,53,78.6
		c12.9,30.5,19.4,62.9,19.4,96.2s-6.5,65.8-19.4,96.2c-12.5,29.4-30.3,55.9-53,78.6s-49.2,40.5-78.6,53
		c-30.5,12.9-62.9,19.4-96.2,19.4s-65.8-6.5-96.2-19.4c-29.4-12.5-55.9-30.3-78.6-53s-40.5-49.2-53-78.6
		C15.3,321.8,8.8,289.4,8.8,256s6.5-65.8,19.4-96.2c12.5-29.4,30.3-55.9,53-78.6s49.2-40.5,78.6-53C190.2,15.3,222.6,8.8,256,8.8
		 M256,0.8C115,0.8,0.8,115,0.8,256S115,511.2,256,511.2S511.2,397,511.2,256S397,0.8,256,0.8L256,0.8z"/>
</g>
</svg>
