<?xml version="1.0" encoding="UTF-8"?><svg xmlns="http://www.w3.org/2000/svg" viewBox="0 0 18.64 24.45"><defs><style>.d{fill:#414042;}</style></defs><g id="a"/><g id="b"><g id="c"><g><path class="d" d="M3.22,24.45c-1.78,0-3.22-1.44-3.22-3.22V3.22C0,1.45,1.45,0,3.22,0s3.22,1.45,3.22,3.22V21.23c0,1.78-1.45,3.22-3.22,3.22ZM3.22,1.3c-1.06,0-1.92,.86-1.92,1.92V21.23c0,1.06,.86,1.92,1.92,1.92s1.92-.86,1.92-1.92V3.22c0-1.06-.86-1.92-1.92-1.92Z"/><path class="d" d="M15.42,24.45c-1.78,0-3.22-1.44-3.22-3.22V3.22c0-1.78,1.45-3.22,3.22-3.22s3.22,1.45,3.22,3.22V21.23c0,1.78-1.45,3.22-3.22,3.22ZM15.42,1.3c-1.06,0-1.92,.86-1.92,1.92V21.23c0,1.06,.86,1.92,1.92,1.92s1.92-.86,1.92-1.92V3.22c0-1.06-.86-1.92-1.92-1.92Z"/></g></g></g></svg>