<?xml version="1.0" encoding="UTF-8"?><svg xmlns="http://www.w3.org/2000/svg" viewBox="0 0 18.59 24.61"><defs><style>.d{fill:#414042;}</style></defs><g id="a"/><g id="b"><g id="c"><path class="d" d="M3.28,24.61c-.51,0-1.03-.12-1.51-.36-1.1-.55-1.76-1.59-1.76-2.78V3.14C0,1.94,.66,.9,1.76,.36,2.93-.22,4.28-.09,5.3,.69l12.05,9.17c.79,.6,1.24,1.49,1.24,2.45s-.45,1.85-1.24,2.45L5.3,23.92c-.6,.45-1.31,.69-2.03,.69Zm0-23.31c-.35,0-.68,.09-.95,.22-.65,.32-1.04,.93-1.04,1.62V21.47c0,.69,.39,1.29,1.04,1.62,.56,.28,1.43,.37,2.17-.2l12.05-9.17c.46-.35,.72-.87,.72-1.42s-.26-1.07-.72-1.42L4.52,1.72c-.4-.3-.83-.42-1.23-.42Z"/></g></g></svg>