<?xml version="1.0" encoding="UTF-8"?><svg xmlns="http://www.w3.org/2000/svg" viewBox="0 0 24.52 24.52"><defs><style>.d{fill:#414042;}</style></defs><g id="a"/><g id="b"><g id="c"><g><path class="d" d="M12.26,24.52C5.5,24.52,0,19.02,0,12.26S5.5,0,12.26,0s12.26,5.5,12.26,12.26-5.5,12.26-12.26,12.26ZM12.26,1.3C6.22,1.3,1.3,6.22,1.3,12.26s4.92,10.96,10.96,10.96,10.96-4.92,10.96-10.96S18.3,1.3,12.26,1.3Z"/><path class="d" d="M12.26,12.91c-.36,0-.65-.29-.65-.65V4.15c0-.36,.29-.65,.65-.65s.65,.29,.65,.65V12.26c0,.36-.29,.65-.65,.65Z"/><path class="d" d="M17.1,15.7c-.11,0-.22-.03-.32-.09l-4.84-2.8c-.31-.18-.42-.58-.24-.89,.18-.31,.58-.42,.89-.24l4.84,2.8c.31,.18,.42,.58,.24,.89-.12,.21-.34,.32-.56,.32Z"/></g></g></g></svg>