<?xml version="1.0" encoding="UTF-8"?><svg xmlns="http://www.w3.org/2000/svg" viewBox="0 0 15.26 24.39"><defs><style>.d{fill:#414042;}</style></defs><g id="a"/><g id="b"><g id="c"><path class="d" d="M3.15,24.39c-.84,0-1.64-.33-2.23-.92-1.23-1.23-1.23-3.23,0-4.46l6.83-6.83L.92,5.35C-.31,4.12-.31,2.12,.92,.89,2.11-.3,4.19-.3,5.38,.89L14.35,9.86c.61,.61,.94,1.46,.91,2.34,.03,.83-.3,1.69-.91,2.3L5.38,23.47c-.59,.59-1.38,.92-2.23,.92ZM3.15,1.27c-.5,0-.96,.19-1.31,.54-.72,.72-.72,1.9,0,2.62l7.29,7.29c.12,.12,.19,.29,.19,.46s-.07,.34-.19,.46L1.84,19.93c-.72,.72-.72,1.9,0,2.62,.7,.7,1.92,.7,2.62,0L13.43,13.58c.36-.36,.55-.85,.53-1.38,.02-.57-.17-1.06-.53-1.42h0L4.46,1.81c-.35-.35-.81-.54-1.31-.54Z"/></g></g></svg>