<?xml version="1.0" encoding="UTF-8"?><svg xmlns="http://www.w3.org/2000/svg" viewBox="0 0 34.03 24.42"><defs><style>.d{fill:#414042;}</style></defs><g id="a"/><g id="b"><g id="c"><path class="d" d="M13.29,24.42s-.06,0-.09,0c-.97,0-1.9-.38-2.59-1.07L1.08,13.82c-1.44-1.44-1.44-3.78,0-5.22,1.44-1.44,3.78-1.44,5.22,0l6.96,6.96L27.74,1.08c1.44-1.44,3.78-1.44,5.22,0,1.44,1.44,1.44,3.78,0,5.22L15.9,23.35c-.69,.69-1.62,1.07-2.61,1.07Zm-.05-1.3h.03c.66,0,1.26-.25,1.7-.69L32.03,5.38c.93-.93,.93-2.45,0-3.38-.93-.93-2.45-.93-3.38,0l-14.94,14.94c-.25,.25-.67,.25-.92,0l-7.42-7.42c-.93-.93-2.45-.93-3.38,0-.93,.93-.93,2.45,0,3.38l9.53,9.53c.45,.45,1.05,.72,1.72,.69Z"/></g></g></svg>