<?xml version="1.0" encoding="UTF-8"?><svg xmlns="http://www.w3.org/2000/svg" viewBox="0 0 26.86 24.52"><defs><style>.d{fill:#414042;}</style></defs><g id="a"/><g id="b"><g id="c"><g><path class="d" d="M10.77,24.52c-.34,0-.69-.08-1-.25-.71-.37-1.16-1.11-1.16-1.91v-2.24H3.04c-1.68,0-3.04-1.36-3.04-3.04V3.04C0,1.36,1.37,0,3.04,0H23.82c1.68,0,3.04,1.36,3.04,3.04v14.03c0,1.68-1.37,3.04-3.04,3.04h-6.02l-5.8,4.01c-.37,.25-.8,.38-1.23,.38ZM3.04,1.3c-.96,0-1.74,.78-1.74,1.74v14.03c0,.96,.78,1.74,1.74,1.74h6.22c.36,0,.65,.29,.65,.65v2.89c0,.32,.17,.61,.46,.76,.29,.15,.62,.13,.89-.05l5.97-4.13c.11-.08,.24-.12,.37-.12h6.22c.96,0,1.74-.78,1.74-1.74V3.04c0-.96-.78-1.74-1.74-1.74H3.04Z"/><path class="d" d="M17.57,10.04H9.29c-.36,0-.65-.29-.65-.65s.29-.65,.65-.65h8.29c.36,0,.65,.29,.65,.65s-.29,.65-.65,.65Z"/><path class="d" d="M17.57,14.01H9.29c-.36,0-.65-.29-.65-.65s.29-.65,.65-.65h8.29c.36,0,.65,.29,.65,.65s-.29,.65-.65,.65Z"/><path class="d" d="M17.57,6.08H9.29c-.36,0-.65-.29-.65-.65s.29-.65,.65-.65h8.29c.36,0,.65,.29,.65,.65s-.29,.65-.65,.65Z"/></g></g></g></svg>