<?xml version="1.0" encoding="UTF-8"?><svg xmlns="http://www.w3.org/2000/svg" viewBox="0 0 32.23 30.53"><defs><style>.d{fill:#414042;}</style></defs><g id="a"/><g id="b"><g id="c"><g><path class="d" d="M20.64,26.61H11.59c-.36,0-.65-.29-.65-.65,0-1.66-.79-2.74-1.71-3.99-1.06-1.44-2.26-3.07-2.26-5.8,0-5.04,4.1-9.15,9.15-9.15s9.15,4.1,9.15,9.15c0,2.73-1.2,4.36-2.26,5.8-.92,1.25-1.71,2.33-1.71,3.99,0,.36-.29,.65-.65,.65Zm-8.44-1.3h7.82c.18-1.73,1.07-2.93,1.93-4.11,1.03-1.4,2.01-2.73,2.01-5.03,0-4.33-3.52-7.85-7.85-7.85s-7.85,3.52-7.85,7.85c0,2.3,.97,3.63,2.01,5.03,.86,1.17,1.75,2.38,1.93,4.11Z"/><path class="d" d="M18.93,30.53h-5.63c-1.3,0-2.36-1.06-2.36-2.35v-2.22c0-.36,.29-.65,.65-.65h9.04c.36,0,.65,.29,.65,.65v2.22c0,1.3-1.06,2.35-2.36,2.35Zm-6.68-3.92v1.57c0,.58,.47,1.06,1.05,1.06h5.63c.58,0,1.05-.47,1.05-1.06v-1.57h-7.74Z"/><path class="d" d="M16.11,26.61c-.36,0-.65-.29-.65-.65v-6.15c0-.36,.29-.65,.65-.65s.65,.29,.65,.65v6.15c0,.36-.29,.65-.65,.65Z"/><path class="d" d="M16.11,20.46c-.17,0-.33-.06-.46-.19l-3.85-3.85c-.25-.25-.25-.67,0-.92s.67-.25,.92,0l3.85,3.85c.25,.25,.25,.67,0,.92-.13,.13-.29,.19-.46,.19Z"/><path class="d" d="M16.11,20.46c-.17,0-.33-.06-.46-.19-.25-.25-.25-.67,0-.92l3.65-3.65c.25-.25,.67-.25,.92,0s.25,.67,0,.92l-3.65,3.65c-.13,.13-.29,.19-.46,.19Z"/><path class="d" d="M16.13,4.53c-.36,0-.65-.29-.65-.65V.65c0-.36,.29-.65,.65-.65s.65,.29,.65,.65V3.88c0,.36-.29,.65-.65,.65Z"/><path class="d" d="M7.48,8.11c-.17,0-.33-.06-.46-.19l-2.29-2.29c-.25-.25-.25-.67,0-.92s.67-.25,.92,0l2.29,2.29c.25,.25,.25,.67,0,.92-.13,.13-.29,.19-.46,.19Z"/><path class="d" d="M3.88,16.75H.65c-.36,0-.65-.29-.65-.65s.29-.65,.65-.65H3.88c.36,0,.65,.29,.65,.65s-.29,.65-.65,.65Z"/><path class="d" d="M31.58,16.78h-3.24c-.36,0-.65-.29-.65-.65s.29-.65,.65-.65h3.24c.36,0,.65,.29,.65,.65s-.29,.65-.65,.65Z"/><path class="d" d="M24.77,8.13c-.17,0-.33-.06-.46-.19-.25-.25-.25-.67,0-.92l2.29-2.29c.25-.25,.67-.25,.92,0,.25,.25,.25,.67,0,.92l-2.29,2.29c-.13,.13-.29,.19-.46,.19Z"/></g></g></g></svg>