<?xml version="1.0" encoding="UTF-8"?><svg xmlns="http://www.w3.org/2000/svg" viewBox="0 0 29.49 24.47"><defs><style>.d{fill:#414042;}</style></defs><g id="a"/><g id="b"><g id="c"><g><path class="d" d="M14.35,24.47c-.41,0-.82-.12-1.17-.35l-6.98-5.25c-.1-.06-.26-.11-.42-.11H2.14c-1.18,0-2.14-.96-2.14-2.14V7.78c0-1.18,.96-2.14,2.14-2.14h3.62c.17,0,.33-.05,.47-.14L13.06,.38l.03-.02c.66-.44,1.5-.49,2.2-.12,.7,.37,1.14,1.09,1.14,1.88l.07,20.19c0,.79-.43,1.51-1.12,1.89-.32,.17-.67,.26-1.02,.26ZM2.14,6.94c-.46,0-.84,.38-.84,.84v8.84c0,.46,.38,.84,.84,.84h3.63c.42,0,.82,.12,1.17,.35l6.98,5.25c.23,.15,.55,.16,.83,.01,.28-.15,.44-.43,.44-.74l-.07-20.19c0-.32-.17-.59-.45-.74-.27-.15-.59-.13-.85,.04L6.98,6.56c-.38,.26-.79,.38-1.22,.38H2.14Z"/><path class="d" d="M20.7,17.27c-.22,0-.43-.11-.56-.31-.19-.31-.09-.71,.22-.89,1.37-.84,2.19-2.29,2.19-3.88s-.82-3.05-2.19-3.88c-.31-.19-.4-.59-.22-.89,.19-.31,.59-.4,.89-.22,1.76,1.07,2.81,2.94,2.81,4.99s-1.05,3.92-2.81,4.99c-.11,.06-.22,.1-.34,.1Z"/><path class="d" d="M23.85,21.74c-.22,0-.43-.11-.56-.31-.19-.31-.09-.71,.22-.89,2.93-1.79,4.68-4.9,4.68-8.31s-1.75-6.52-4.68-8.31c-.31-.19-.4-.59-.22-.89,.19-.31,.59-.4,.89-.22,3.32,2.03,5.3,5.55,5.3,9.42s-1.98,7.4-5.3,9.42c-.11,.06-.22,.1-.34,.1Z"/></g></g></g></svg>