<?xml version="1.0" encoding="UTF-8"?><svg xmlns="http://www.w3.org/2000/svg" viewBox="0 0 24.31 24.31"><defs><style>.d{fill:#414042;}</style></defs><g id="a"/><g id="b"><g id="c"><path class="d" d="M3.67,24.31c-.94,0-1.88-.36-2.6-1.07-1.43-1.43-1.43-3.76,0-5.19l5.89-5.89L1.07,6.27C.38,5.58,0,4.66,0,3.67S.38,1.77,1.07,1.07C2.51-.36,4.84-.36,6.27,1.07l5.89,5.89L18.04,1.07c1.38-1.38,3.81-1.38,5.19,0,.69,.69,1.07,1.61,1.07,2.6s-.38,1.91-1.07,2.6l-5.89,5.89,5.89,5.89c1.43,1.43,1.43,3.76,0,5.19s-3.81,1.38-5.19,0l-5.89-5.89-5.89,5.89c-.72,.72-1.66,1.07-2.6,1.07ZM3.67,1.3c-.61,0-1.22,.23-1.68,.69-.45,.45-.69,1.04-.69,1.68s.25,1.23,.69,1.68l6.35,6.35c.25,.25,.25,.67,0,.92L1.99,18.96c-.93,.93-.93,2.43,0,3.36,.92,.92,2.43,.92,3.36,0l6.35-6.35c.25-.25,.67-.25,.92,0l6.35,6.35c.89,.89,2.46,.89,3.35,0,.93-.93,.93-2.43,0-3.36l-6.35-6.35c-.25-.25-.25-.67,0-.92l6.35-6.35c.45-.45,.69-1.04,.69-1.68s-.25-1.23-.69-1.68c-.89-.89-2.46-.89-3.35,0l-6.35,6.35c-.25,.25-.67,.25-.92,0L5.35,1.99c-.46-.46-1.07-.69-1.68-.69Z"/></g></g></svg>