<?xml version="1.0" encoding="UTF-8"?><svg xmlns="http://www.w3.org/2000/svg" viewBox="0 0 45.32 24.44"><defs><style>.d{fill:#414042;}</style></defs><g id="a"/><g id="b"><g id="c"><g><path class="d" d="M4.5,17.22c-.36,0-.72-.11-1.03-.34-.54-.4-.81-1.05-.7-1.72l.65-3.81c.03-.15-.02-.3-.13-.4L.53,8.27C.05,7.8-.12,7.11,.09,6.47s.75-1.1,1.42-1.19l3.82-.56c.15-.02,.28-.11,.34-.25l1.71-3.46C7.67,.4,8.28,.03,8.95,.03s1.28,.37,1.57,.98l1.82,3.69c.16,.32,.03,.71-.29,.87-.32,.16-.71,.03-.87-.3l-1.82-3.69c-.11-.23-.32-.25-.41-.25s-.29,.02-.41,.25l-1.71,3.46c-.26,.52-.75,.88-1.32,.96l-3.82,.56c-.25,.04-.34,.23-.37,.31-.03,.08-.07,.29,.12,.47l2.77,2.7c.41,.4,.6,.98,.5,1.55l-.65,3.81c-.04,.25,.11,.39,.18,.44,.07,.05,.25,.15,.48,.03l3.64-1.92c.32-.17,.71-.04,.88,.27,.17,.32,.04,.71-.27,.88l-3.64,1.92c-.26,.14-.54,.2-.82,.2Z"/><path class="d" d="M40.82,17.24c-.28,0-.55-.07-.81-.2l-3.69-1.94c-.32-.17-.44-.56-.27-.88s.56-.44,.88-.27l3.69,1.94c.21,.11,.39,.01,.45-.03,.07-.05,.21-.18,.17-.42l-.66-3.86c-.1-.56,.09-1.13,.5-1.53l2.81-2.74c.17-.17,.13-.37,.11-.44-.03-.08-.11-.26-.35-.29l-3.88-.56c-.56-.08-1.05-.44-1.3-.95l-1.74-3.52c-.11-.22-.31-.24-.39-.24s-.28,.02-.39,.24l-1.84,3.73c-.16,.32-.55,.45-.87,.3-.32-.16-.45-.55-.29-.87l1.84-3.73c.29-.6,.89-.97,1.55-.97s1.26,.37,1.55,.97l1.74,3.52c.06,.13,.18,.22,.33,.24l3.88,.56c.66,.1,1.19,.55,1.4,1.18s.04,1.31-.44,1.77l-2.81,2.74c-.1,.1-.15,.24-.12,.38l.66,3.86c.11,.65-.15,1.3-.69,1.69-.3,.22-.66,.33-1.01,.33Z"/><path class="d" d="M29.34,24.44c-.34,0-.69-.08-1-.25l-5.08-2.67c-.25-.13-.55-.13-.8,0l-5.08,2.67c-.73,.38-1.6,.32-2.27-.16-.67-.49-1-1.29-.86-2.11l.97-5.65c.05-.28-.04-.56-.25-.76l-4.11-4c-.59-.58-.8-1.42-.54-2.21,.26-.79,.92-1.35,1.74-1.47l5.68-.82c.28-.04,.52-.22,.64-.47l2.54-5.14c.37-.74,1.11-1.2,1.93-1.2s1.57,.46,1.93,1.2l2.54,5.14c.12,.25,.36,.43,.64,.47l5.68,.82c.82,.12,1.48,.68,1.74,1.47,.25,.79,.05,1.63-.54,2.21l-4.11,4c-.2,.2-.29,.48-.25,.76l.97,5.65c.14,.81-.19,1.62-.86,2.11-.38,.27-.82,.41-1.26,.41Zm-6.48-4.32c.34,0,.69,.08,1,.25l5.08,2.67c.29,.16,.63,.13,.9-.07,.27-.2,.4-.51,.34-.84l-.97-5.65c-.12-.7,.11-1.41,.62-1.91l4.11-4c.24-.23,.32-.56,.22-.88-.1-.32-.36-.53-.69-.58l-5.68-.82c-.7-.1-1.31-.54-1.62-1.18l-2.54-5.14c-.3-.6-1.24-.6-1.53,0l-2.54,5.14c-.31,.64-.92,1.08-1.62,1.18l-5.68,.82c-.33,.05-.59,.27-.69,.58-.1,.32-.02,.64,.22,.88l4.11,4c.51,.5,.74,1.21,.62,1.91l-.97,5.65c-.06,.33,.07,.64,.34,.84s.61,.22,.9,.06l5.08-2.67h0c.31-.17,.66-.25,1-.25Z"/></g></g></g></svg>