<?xml version="1.0" encoding="UTF-8"?><svg xmlns="http://www.w3.org/2000/svg" viewBox="0 0 98.43 98.43"><defs><style>.d{fill:#232323;}.e{fill:#ea9d03;}</style></defs><g id="a"/><g id="b"><g id="c"><g><path class="e" d="M98.43,48.88c-.18-3.47-3.05-6.23-6.56-6.23h-17.59c-3.62,0-6.56,2.94-6.56,6.57s2.94,6.57,6.56,6.57v.06h10.42c-3.11,16.76-17.8,29.45-35.47,29.45-19.93,0-36.08-16.16-36.08-36.08S29.29,13.13,49.22,13.13c7.91,0,15.23,2.55,21.18,6.87,1.1,.82,2.46,1.3,3.94,1.3,3.63,0,6.58-2.95,6.58-6.58,0-1.97-.87-3.73-2.24-4.95-.01,0-.02-.01-.03-.02-.3-.22-.6-.43-.9-.65-.01,0-.02-.01-.03-.02h0C69.67,3.37,59.84,0,49.22,0,22.03,0,0,22.04,0,49.22s22.03,49.22,49.22,49.22c24.93,0,45.53-18.54,48.77-42.58,.28-2.06,.42-4.16,.44-6.29,0-.11,0-.23,0-.34s0-.23,0-.34Z"/><path class="d" d="M49.22,41.56c4.23,0,7.66,3.42,7.66,7.66s-3.43,7.66-7.66,7.66-7.67-3.42-7.67-7.66,3.43-7.66,7.67-7.66Z"/></g></g></g></svg>